<?xml version="1.0" encoding="UTF-8" standalone="no"?>
<!DOCTYPE svg PUBLIC "-//W3C//DTD SVG 1.1//EN" "http://www.w3.org/Graphics/SVG/1.1/DTD/svg11.dtd">
<svg xmlns="http://www.w3.org/2000/svg" version="1.1" viewBox="199 68 1274 490" width="1274.0pt" height="490.0pt" xmlns:xlink="http://www.w3.org/1999/xlink">
<defs>
<path d="M 0.00 0.00 L 1672.00 0.00 L 1672.00 627.00 L 0.00 627.00 L 0.00 0.00 Z M 209.00 78.37 C 208.99 235.13 209.00 391.88 209.00 548.63 C 627.00 548.61 1045.00 548.63 1463.00 548.62 C 1462.97 481.51 1463.05 414.39 1462.96 347.28 C 1451.56 335.56 1440.14 323.86 1428.80 312.08 C 1440.18 300.36 1451.65 288.72 1463.00 276.97 C 1463.00 210.77 1463.00 144.57 1463.00 78.37 C 1045.00 78.38 627.00 78.37 209.00 78.37 Z" id="p0" />
<path d="M 209.00 78.37 C 627.00 78.37 1045.00 78.38 1463.00 78.37 C 1463.00 144.57 1463.00 210.77 1463.00 276.97 C 1451.65 288.72 1440.18 300.36 1428.80 312.08 C 1440.14 323.86 1451.56 335.56 1462.96 347.28 C 1463.05 414.39 1462.97 481.51 1463.00 548.62 C 1045.00 548.63 627.00 548.61 209.00 548.63 C 209.00 391.88 208.99 235.13 209.00 78.37 Z M 435.42 230.43 C 435.92 230.86 436.43 231.29 436.93 231.72 C 432.63 234.40 428.91 237.77 425.33 241.33 C 402.07 264.94 378.52 288.25 355.39 311.99 C 380.89 338.69 406.88 364.91 432.63 391.37 C 438.49 397.20 444.08 403.27 450.03 409.01 C 445.64 402.89 442.11 396.25 440.18 388.93 C 436.07 374.03 436.30 358.62 436.51 343.31 C 426.77 332.81 416.62 322.70 406.82 312.26 C 419.80 299.02 432.80 285.80 445.83 272.61 C 437.69 269.31 428.90 267.96 420.19 269.54 C 405.98 272.14 394.78 279.30 383.07 287.25 C 393.47 277.83 404.20 269.72 417.94 265.87 C 426.68 263.35 436.55 263.26 444.99 266.92 C 454.01 270.70 460.95 277.42 467.44 284.54 C 476.51 294.87 484.55 306.26 492.71 317.31 C 506.40 335.84 519.41 355.14 534.21 372.80 C 540.66 380.18 548.25 388.47 557.24 392.68 C 564.99 396.44 573.91 397.52 582.25 395.18 C 591.83 392.56 599.46 386.23 606.26 379.26 C 628.11 356.92 649.72 334.37 671.57 312.03 C 657.23 296.85 642.70 281.84 628.10 266.92 C 611.86 250.09 595.61 233.28 579.13 216.69 C 583.41 222.10 587.33 227.65 589.83 234.12 C 596.06 249.66 596.48 267.61 595.82 284.13 C 604.73 293.64 614.05 302.79 622.65 312.57 C 610.33 325.09 598.12 337.71 585.83 350.26 C 595.82 353.61 606.67 353.94 616.74 350.77 C 626.68 347.78 635.33 342.66 643.77 336.75 C 633.28 346.22 622.24 354.20 607.98 356.66 C 598.07 358.48 587.65 356.47 579.42 350.58 C 568.75 343.19 560.06 332.04 552.19 321.83 C 539.26 304.69 527.02 287.01 514.25 269.75 C 507.46 260.75 500.34 251.61 492.47 243.53 C 485.16 236.09 476.25 229.60 465.94 227.20 C 456.18 224.78 445.65 226.45 437.05 231.63 C 437.20 230.86 437.33 230.04 437.60 229.31 C 442.57 225.60 448.82 223.48 454.95 222.81 C 466.07 221.92 476.92 225.41 485.94 231.85 C 494.99 222.61 504.06 213.35 513.11 204.11 C 513.89 203.45 514.74 202.35 515.77 202.17 C 517.79 203.78 519.53 205.82 521.29 207.71 C 527.46 214.46 533.95 220.88 540.13 227.62 C 541.35 211.46 539.96 195.42 533.58 180.39 C 530.94 173.85 527.32 167.87 523.50 161.95 C 535.08 174.34 542.50 190.23 544.84 206.99 C 546.50 218.26 545.83 229.67 541.34 240.24 C 536.41 252.10 528.00 261.03 519.29 270.18 C 525.68 278.44 531.73 286.97 537.77 295.49 C 546.03 282.18 558.29 271.59 566.62 258.63 C 572.44 249.49 575.09 238.71 572.86 227.98 C 570.25 214.17 560.71 203.29 552.26 192.61 C 561.52 201.12 571.53 211.23 575.38 223.49 C 578.81 233.57 577.95 244.67 573.20 254.18 C 567.15 266.67 556.81 275.65 550.36 287.39 C 547.13 293.43 545.15 300.14 545.28 307.03 C 545.29 308.33 545.99 309.29 546.61 310.37 C 549.09 314.24 551.94 317.87 554.53 321.67 C 553.91 312.92 553.98 303.89 557.96 295.86 C 564.27 283.01 576.49 273.51 582.83 260.22 C 582.47 275.45 583.12 290.77 582.35 306.00 C 581.60 319.10 579.23 332.03 574.45 344.28 C 576.67 345.91 578.88 347.54 581.09 349.17 C 585.63 339.51 588.41 328.96 590.08 318.45 C 592.24 302.78 591.71 286.11 591.60 270.28 C 591.51 257.79 590.41 245.59 586.15 233.76 C 582.42 222.79 575.82 213.44 567.87 205.13 C 550.39 186.61 532.83 168.14 515.01 149.96 C 492.36 172.65 470.06 195.72 447.48 218.48 C 443.48 222.46 439.67 226.74 435.42 230.43 Z M 515.02 475.23 C 539.89 449.69 564.30 423.70 589.06 398.06 C 591.85 395.24 594.55 392.35 597.21 389.41 C 591.66 393.81 586.53 397.92 579.49 399.65 C 567.97 402.72 556.34 399.16 546.73 392.64 C 536.45 403.32 526.05 413.88 515.67 424.45 C 507.93 417.39 500.93 409.44 493.60 401.96 C 493.24 410.05 492.31 417.92 493.42 426.01 C 494.77 440.19 500.38 453.06 508.13 464.86 C 497.74 453.25 490.38 438.65 488.78 423.03 C 487.34 409.74 489.85 396.16 496.49 384.51 C 501.92 375.02 509.65 366.56 517.26 358.76 C 511.02 350.07 504.47 341.61 498.43 332.77 C 489.59 347.78 475.81 360.20 467.44 375.42 C 461.56 386.07 459.58 398.63 463.71 410.27 C 466.72 419.10 472.17 425.76 477.69 433.07 C 470.79 426.63 463.10 419.25 459.80 410.21 C 455.98 399.53 457.36 387.30 462.37 377.24 C 468.58 364.29 479.13 354.76 485.03 342.09 C 488.49 334.80 490.33 326.08 489.11 318.07 C 486.71 312.90 482.55 308.49 479.36 303.77 C 480.21 310.16 480.62 316.59 479.94 323.03 C 479.02 331.29 475.13 338.73 470.45 345.45 C 463.69 355.07 455.99 363.33 450.71 374.01 C 450.10 355.39 449.30 336.61 450.33 318.00 C 451.03 304.62 453.49 291.39 458.63 278.97 C 456.34 277.11 454.09 275.11 451.60 273.52 C 441.25 296.13 440.92 319.62 440.88 344.00 C 441.24 358.17 440.87 372.43 443.89 386.22 C 446.11 396.62 450.63 406.49 457.09 414.94 C 461.94 421.13 467.45 426.42 472.90 432.09 C 487.05 446.37 500.84 460.99 515.02 475.23 Z M 724.51 274.17 C 726.37 275.98 728.62 277.86 729.94 280.10 C 731.27 282.38 731.25 285.44 731.32 288.00 C 731.33 302.33 731.26 316.67 731.30 331.00 C 731.27 334.46 731.26 338.19 730.40 341.55 C 729.58 344.57 727.42 346.57 725.45 348.86 C 731.92 348.90 738.39 348.80 744.86 348.91 C 741.39 345.55 738.94 342.10 739.15 337.03 C 739.20 321.70 738.91 306.34 739.17 291.01 C 746.71 301.67 754.73 312.00 762.45 322.52 C 769.40 331.62 776.03 340.96 783.19 349.89 C 785.03 349.91 786.86 349.92 788.70 349.94 C 788.71 330.62 788.79 311.31 788.80 292.00 C 788.84 288.57 788.83 284.85 789.75 281.53 C 790.62 278.65 792.87 276.76 794.90 274.67 C 788.36 274.58 781.81 274.59 775.27 274.63 C 777.04 276.42 779.38 278.35 780.28 280.75 C 781.28 283.60 781.24 287.01 781.27 290.00 C 781.21 302.43 781.20 314.86 781.22 327.29 C 768.24 309.53 755.02 291.95 742.02 274.20 C 736.19 274.16 730.35 274.13 724.51 274.17 Z M 808.35 275.18 C 810.03 277.21 812.26 279.33 812.78 281.99 C 813.54 285.54 813.35 289.38 813.38 293.00 C 813.29 307.00 813.39 321.00 813.36 335.00 C 813.31 337.76 813.35 340.92 812.39 343.54 C 811.51 345.62 809.82 347.46 808.46 349.24 C 824.87 349.23 841.29 349.18 857.70 349.26 C 858.39 343.37 859.38 337.47 859.60 331.55 C 855.21 335.49 853.30 340.29 847.21 342.12 C 840.59 343.65 833.24 343.01 826.46 343.14 C 826.37 333.33 826.49 323.52 826.43 313.72 C 831.24 313.79 836.27 313.27 841.01 314.13 C 844.94 314.76 847.01 318.93 850.03 321.40 C 849.99 314.62 850.44 307.74 849.67 301.00 C 846.66 303.50 843.96 307.11 839.82 307.49 C 835.40 307.97 830.87 307.71 826.42 307.76 C 826.48 298.97 826.38 290.18 826.41 281.39 C 831.61 281.42 836.81 281.30 842.01 281.43 C 844.94 281.57 847.90 281.88 850.35 283.68 C 853.30 285.79 854.56 289.45 857.40 291.87 C 857.67 286.32 857.40 280.76 857.47 275.21 C 841.10 275.33 824.72 275.22 808.35 275.18 Z M 869.14 275.85 C 871.96 278.45 874.74 280.94 876.74 284.26 C 882.75 293.93 888.54 303.72 894.61 313.35 C 889.71 320.83 884.67 328.23 879.68 335.66 C 876.36 340.75 872.67 345.04 868.23 349.18 C 874.80 349.29 881.36 349.17 887.94 349.20 C 886.74 347.72 885.35 346.24 884.43 344.56 C 883.57 342.95 885.00 341.15 885.74 339.75 C 890.01 332.99 894.48 326.34 898.83 319.62 C 902.85 326.44 906.96 333.20 911.03 339.99 C 911.74 341.24 912.53 342.59 912.83 344.00 C 912.46 345.99 910.58 347.74 909.43 349.33 C 917.82 349.25 926.21 349.29 934.61 349.27 C 931.57 346.61 928.67 343.93 926.53 340.46 C 920.19 330.47 913.96 320.41 907.71 310.37 C 913.20 301.99 918.68 293.60 924.25 285.27 C 926.61 281.57 929.81 278.78 933.10 275.93 C 926.25 275.80 919.41 275.88 912.56 275.88 C 913.86 277.46 915.42 279.10 916.31 280.95 C 916.66 283.06 915.17 285.34 914.16 287.12 C 910.63 292.77 906.93 298.33 903.24 303.88 C 899.65 298.04 896.19 292.14 892.79 286.20 C 891.88 284.56 890.90 282.80 890.55 280.94 C 891.41 279.11 892.71 277.47 893.90 275.84 C 885.65 275.83 877.39 275.73 869.14 275.85 Z M 1028.49 276.76 C 1020.18 278.69 1012.71 283.95 1008.24 291.23 C 1002.91 299.54 1001.68 309.36 1002.52 319.03 C 1003.26 327.48 1006.30 335.57 1012.32 341.68 C 1020.89 350.78 1034.72 353.44 1046.56 350.45 C 1056.64 347.90 1064.85 340.29 1068.76 330.74 C 1071.90 323.23 1072.40 315.01 1071.62 306.99 C 1070.63 297.68 1066.39 288.87 1059.09 282.88 C 1050.90 276.10 1038.62 274.45 1028.49 276.76 Z M 944.27 276.75 C 945.75 278.60 947.74 280.60 948.32 282.95 C 949.01 285.88 949.04 289.01 949.11 291.99 C 949.13 306.00 949.10 320.00 949.11 334.00 C 949.09 336.92 949.03 339.92 948.51 342.81 C 948.05 345.42 946.19 347.36 944.71 349.47 C 952.06 349.37 959.42 349.31 966.77 349.46 C 965.32 347.69 963.32 345.75 962.61 343.54 C 961.85 340.83 961.86 337.80 961.84 335.00 C 961.87 328.58 961.89 322.16 961.85 315.73 C 966.54 315.82 971.38 315.39 976.03 316.05 C 980.21 316.72 982.26 320.63 984.77 323.58 C 985.54 316.71 985.01 309.69 985.10 302.78 C 982.10 305.37 979.18 309.29 974.98 309.54 C 970.64 309.99 966.21 309.72 961.86 309.75 C 961.89 300.79 961.87 291.82 961.84 282.87 C 968.52 283.13 975.76 282.21 982.27 283.76 C 987.94 285.48 988.49 290.35 992.44 293.80 C 992.80 288.14 992.53 282.43 992.63 276.75 C 976.51 276.82 960.39 276.70 944.27 276.75 Z M 1244.31 329.37 C 1243.89 335.06 1243.85 340.69 1243.74 346.38 C 1250.54 350.32 1258.12 352.32 1266.00 351.92 C 1272.60 351.87 1279.05 349.45 1283.55 344.53 C 1290.32 337.26 1290.49 324.68 1283.62 317.41 C 1276.84 309.82 1264.60 307.65 1257.66 301.33 C 1253.30 297.64 1253.19 290.31 1257.62 286.65 C 1260.94 283.84 1265.47 283.90 1269.51 284.75 C 1274.14 285.86 1277.34 289.43 1279.47 293.50 C 1280.79 295.67 1281.11 297.90 1283.74 298.88 C 1284.27 293.49 1284.13 288.12 1284.32 282.72 C 1277.46 279.05 1269.75 277.73 1262.03 278.52 C 1256.81 279.11 1251.81 281.32 1248.16 285.15 C 1241.71 291.91 1241.66 303.97 1248.45 310.53 C 1255.00 317.33 1265.92 319.65 1272.61 325.36 C 1277.79 329.55 1278.14 337.75 1273.41 342.41 C 1268.94 346.63 1261.55 346.51 1256.40 343.63 C 1251.94 341.12 1249.67 337.03 1247.30 332.71 C 1246.54 331.20 1245.68 330.32 1244.31 329.37 Z M 1079.21 278.55 C 1079.89 279.33 1080.57 280.12 1081.24 280.91 C 1083.71 283.90 1083.83 287.28 1083.91 290.99 C 1084.00 303.66 1083.84 316.33 1084.04 329.00 C 1083.96 333.39 1084.14 337.87 1083.59 342.24 C 1083.19 345.41 1081.33 347.42 1079.48 349.84 C 1086.62 349.83 1093.77 349.70 1100.91 349.84 C 1098.92 347.41 1096.99 345.38 1096.81 342.04 C 1096.29 334.35 1096.72 326.58 1096.62 318.87 C 1098.57 318.86 1100.53 318.84 1102.48 318.82 C 1106.68 325.66 1110.33 332.83 1114.34 339.78 C 1116.74 343.84 1119.29 348.31 1124.18 349.61 C 1128.98 350.74 1134.30 350.10 1139.21 350.07 C 1136.15 347.31 1133.04 344.80 1130.61 341.43 C 1124.94 333.50 1120.27 324.81 1114.73 316.78 C 1118.30 315.02 1121.63 313.37 1124.34 310.36 C 1130.93 303.41 1130.97 290.79 1123.70 284.29 C 1118.69 279.60 1111.61 278.54 1105.01 278.49 C 1096.40 278.52 1087.81 278.53 1079.21 278.55 Z M 1142.18 278.52 C 1142.33 284.21 1141.80 289.89 1141.97 295.56 L 1143.16 295.98 C 1146.06 292.75 1147.39 288.52 1151.40 286.38 C 1155.22 284.35 1160.58 284.76 1164.80 284.63 C 1164.89 301.42 1164.85 318.21 1164.85 335.00 C 1164.83 338.05 1164.91 341.03 1164.12 344.01 C 1163.48 346.36 1161.74 348.24 1160.31 350.16 C 1167.77 350.13 1175.23 350.10 1182.70 350.17 C 1181.30 348.42 1179.53 346.56 1178.69 344.47 C 1177.78 341.84 1177.72 338.76 1177.70 336.00 C 1177.73 318.91 1177.67 301.83 1177.67 284.74 C 1181.94 284.88 1187.52 284.34 1191.24 286.75 C 1195.34 289.29 1196.00 293.62 1199.67 296.56 C 1200.04 290.57 1199.73 284.53 1199.80 278.53 C 1180.59 278.62 1161.39 278.53 1142.18 278.52 Z M 1207.70 279.19 C 1209.19 281.20 1210.99 283.18 1211.46 285.72 C 1212.07 289.07 1211.88 292.61 1211.92 296.00 C 1211.81 310.65 1212.01 325.32 1211.86 339.97 C 1211.89 344.04 1210.24 347.09 1207.81 350.21 C 1214.87 350.10 1221.93 350.09 1228.99 350.20 C 1227.74 348.48 1226.19 346.61 1225.51 344.58 C 1224.60 341.57 1224.60 338.13 1224.58 335.00 C 1224.66 321.67 1224.57 308.33 1224.59 295.00 C 1224.61 292.04 1224.45 288.91 1225.02 285.99 C 1225.54 283.36 1227.36 281.25 1228.90 279.13 C 1221.83 279.24 1214.77 279.20 1207.70 279.19 Z M 797.55 376.46 C 797.61 383.74 797.56 391.01 797.56 398.29 C 798.76 398.30 799.95 398.31 801.15 398.31 C 801.16 395.87 801.17 393.42 801.20 390.98 C 804.36 390.78 807.41 391.14 810.04 389.02 C 813.70 386.25 813.57 379.90 809.48 377.57 C 806.11 375.75 801.28 376.60 797.55 376.46 Z M 821.40 398.32 C 822.63 398.30 823.87 398.28 825.11 398.26 C 825.11 395.43 825.11 392.60 825.13 389.77 C 826.19 389.76 827.24 389.75 828.30 389.74 C 830.23 392.56 832.09 395.42 833.91 398.32 C 835.33 398.32 836.75 398.32 838.17 398.32 C 836.10 395.39 834.08 392.44 832.05 389.49 C 833.42 388.19 835.47 386.88 835.89 384.94 C 836.83 381.59 835.44 378.02 831.97 376.97 C 828.64 376.09 824.93 376.32 821.52 376.53 C 821.32 383.78 821.50 391.06 821.40 398.32 Z M 845.91 376.46 C 845.92 383.74 845.90 391.02 845.89 398.30 C 850.47 398.26 855.05 398.25 859.63 398.30 C 859.66 397.28 859.69 396.25 859.72 395.23 C 856.35 395.25 852.97 395.27 849.60 395.27 C 849.59 393.04 849.58 390.82 849.57 388.59 C 852.35 388.60 855.14 388.61 857.92 388.63 C 857.91 387.65 857.90 386.68 857.89 385.70 C 855.14 385.72 852.38 385.74 849.63 385.75 C 849.63 383.67 849.63 381.58 849.63 379.50 C 852.92 379.49 856.22 379.49 859.52 379.51 C 859.51 378.48 859.50 377.45 859.48 376.42 C 854.96 376.41 850.44 376.42 845.91 376.46 Z M 885.02 396.85 C 884.74 395.84 884.46 394.84 884.18 393.84 C 881.35 394.92 878.98 396.18 875.85 395.24 C 869.59 393.30 869.54 381.99 875.51 379.66 C 878.60 378.57 881.13 379.65 884.00 380.68 C 884.40 379.71 884.81 378.75 885.21 377.78 C 881.05 376.10 876.70 375.19 872.60 377.62 C 867.58 380.72 866.29 387.43 868.41 392.66 C 870.05 396.37 873.94 398.78 877.99 398.65 C 880.57 398.66 882.65 397.70 885.02 396.85 Z M 906.83 393.73 C 906.56 394.79 906.30 395.86 906.04 396.93 C 909.92 398.40 913.57 399.67 917.52 397.49 C 920.64 395.74 921.61 391.51 919.29 388.71 C 917.11 386.26 913.10 385.48 910.56 383.43 C 909.70 382.41 909.97 380.73 910.73 379.72 C 913.61 378.37 915.90 379.61 918.65 380.51 C 919.06 379.53 919.47 378.55 919.88 377.57 C 916.45 376.37 912.62 375.24 909.22 377.20 C 906.24 378.97 905.44 383.49 907.99 385.98 C 910.34 388.09 913.92 388.74 916.26 390.80 C 917.55 392.39 916.94 394.48 915.11 395.35 C 911.95 396.29 909.65 394.85 906.83 393.73 Z M 929.13 398.31 C 930.28 398.32 931.44 398.33 932.59 398.34 C 932.62 390.99 932.58 383.64 932.63 376.30 C 931.49 376.36 930.37 376.45 929.24 376.57 C 928.95 383.80 929.17 391.07 929.13 398.31 Z M 948.47 376.60 C 941.11 378.99 939.33 389.47 943.89 395.08 C 947.94 400.08 956.79 399.85 960.33 394.37 C 963.30 389.91 963.13 382.70 959.13 378.89 C 956.28 376.10 952.20 375.62 948.47 376.60 Z M 970.88 398.27 C 972.03 398.27 973.18 398.28 974.33 398.28 C 974.24 392.83 974.24 387.38 974.23 381.93 C 977.59 386.83 981.09 391.62 984.56 396.43 C 985.67 398.16 986.80 398.25 988.74 398.63 C 988.85 391.23 988.80 383.82 988.83 376.41 L 985.57 376.39 C 985.59 381.68 985.52 386.97 985.54 392.26 C 981.82 386.90 977.98 381.61 974.04 376.42 C 973.11 376.39 972.19 376.40 971.28 376.46 C 970.61 383.67 971.07 391.02 970.88 398.27 Z M 1013.02 386.41 C 1011.17 388.14 1009.18 389.23 1008.87 391.98 C 1008.43 395.61 1011.57 398.22 1014.95 398.53 C 1017.86 398.92 1019.89 397.54 1022.28 396.19 C 1022.89 396.89 1023.51 397.58 1024.12 398.27 C 1025.55 398.28 1026.97 398.29 1028.40 398.29 C 1027.08 396.82 1025.75 395.35 1024.42 393.88 C 1025.49 391.61 1026.30 389.31 1026.97 386.89 L 1023.93 387.32 C 1023.29 388.81 1022.88 390.40 1022.39 391.94 C 1020.83 390.16 1019.24 388.41 1017.60 386.70 C 1020.24 384.86 1022.59 383.61 1022.27 379.88 C 1021.00 374.94 1013.21 374.94 1011.42 379.42 C 1010.47 382.21 1011.84 384.04 1013.02 386.41 Z M 1041.62 376.38 C 1041.64 383.67 1041.70 390.97 1041.58 398.25 C 1042.78 398.24 1043.98 398.23 1045.18 398.21 C 1045.18 390.94 1045.23 383.67 1045.17 376.41 C 1043.99 376.40 1042.80 376.39 1041.62 376.38 Z M 1054.89 398.24 C 1056.01 398.24 1057.13 398.25 1058.24 398.26 C 1058.21 392.86 1058.21 387.45 1058.22 382.05 C 1061.97 387.53 1065.86 392.90 1069.75 398.27 C 1070.71 398.29 1071.68 398.32 1072.64 398.34 C 1072.63 391.03 1072.63 383.72 1072.68 376.41 L 1069.32 376.38 C 1069.38 381.76 1069.26 387.12 1069.40 392.50 C 1065.92 386.95 1061.83 381.79 1058.00 376.48 C 1057.06 376.41 1056.12 376.39 1055.17 376.40 C 1054.55 383.63 1055.08 390.98 1054.89 398.24 Z M 1079.41 379.55 C 1081.58 379.53 1083.74 379.51 1085.91 379.48 C 1085.88 385.73 1085.91 391.99 1085.88 398.25 C 1087.08 398.25 1088.28 398.25 1089.48 398.25 C 1089.49 392.00 1089.56 385.75 1089.53 379.51 C 1091.65 379.54 1093.77 379.56 1095.89 379.59 C 1095.91 378.52 1095.92 377.45 1095.94 376.39 C 1090.56 376.53 1085.15 376.27 1079.79 376.54 C 1079.64 377.54 1079.51 378.54 1079.41 379.55 Z M 1103.27 398.25 C 1107.77 398.24 1112.26 398.24 1116.76 398.23 C 1116.78 397.23 1116.80 396.24 1116.83 395.24 C 1113.47 395.23 1110.12 395.24 1106.77 395.28 C 1106.78 393.05 1106.78 390.83 1106.78 388.60 C 1109.59 388.61 1112.39 388.62 1115.20 388.62 C 1115.11 387.64 1115.02 386.67 1114.93 385.69 C 1112.22 385.71 1109.52 385.74 1106.81 385.75 C 1106.79 383.65 1106.77 381.55 1106.75 379.45 C 1110.02 379.47 1113.29 379.48 1116.55 379.48 C 1116.57 378.46 1116.58 377.44 1116.59 376.42 C 1112.19 376.48 1107.76 376.25 1103.37 376.55 C 1103.09 383.77 1103.37 391.03 1103.27 398.25 Z M 1141.56 397.01 C 1141.53 394.04 1141.50 391.06 1141.47 388.08 C 1140.36 388.09 1139.24 388.09 1138.13 388.09 C 1138.13 390.53 1138.13 392.98 1138.13 395.42 C 1134.77 395.41 1131.36 396.01 1129.13 392.89 C 1126.70 389.27 1126.82 382.34 1131.08 380.02 C 1134.22 378.36 1137.06 379.55 1140.15 380.55 C 1140.62 379.64 1141.09 378.72 1141.56 377.80 C 1137.59 376.13 1133.43 375.33 1129.42 377.37 C 1122.39 381.07 1121.95 393.12 1128.95 397.09 C 1133.11 399.44 1137.33 398.67 1141.56 397.01 Z M 1150.23 398.24 C 1151.39 398.21 1152.54 398.19 1153.69 398.16 C 1153.71 395.35 1153.71 392.54 1153.72 389.73 C 1154.84 389.71 1155.95 389.70 1157.06 389.68 C 1158.89 392.55 1160.76 395.41 1162.67 398.23 C 1164.03 398.23 1165.38 398.22 1166.73 398.22 C 1164.72 395.28 1162.72 392.33 1160.64 389.44 C 1162.34 387.73 1164.36 386.55 1164.64 383.97 C 1165.10 380.90 1163.89 378.20 1160.91 377.07 C 1157.63 376.02 1153.78 376.36 1150.37 376.54 C 1150.04 383.75 1150.36 391.02 1150.23 398.24 Z M 1173.32 398.24 C 1174.49 398.24 1175.65 398.24 1176.81 398.24 C 1176.76 390.92 1176.80 383.59 1176.77 376.27 C 1175.66 376.33 1174.55 376.43 1173.45 376.55 C 1173.19 383.77 1173.40 391.02 1173.32 398.24 Z M 1183.20 379.59 C 1185.30 379.56 1187.40 379.51 1189.51 379.47 C 1189.50 385.74 1189.53 392.01 1189.52 398.28 C 1190.72 398.27 1191.93 398.25 1193.13 398.24 C 1193.11 391.99 1193.18 385.75 1193.14 379.50 C 1195.22 379.51 1197.31 379.51 1199.39 379.52 L 1199.48 376.42 C 1194.18 376.51 1188.86 376.29 1183.57 376.53 C 1183.42 377.54 1183.30 378.56 1183.20 379.59 Z M 1203.67 376.42 C 1205.61 380.09 1207.65 383.71 1209.70 387.32 C 1211.80 390.49 1210.95 394.62 1211.06 398.28 C 1212.21 398.26 1213.36 398.24 1214.51 398.22 C 1214.67 394.89 1213.76 390.55 1215.65 387.67 C 1217.70 383.90 1219.84 380.19 1221.84 376.39 C 1220.62 376.42 1219.40 376.45 1218.19 376.48 C 1216.42 379.97 1214.60 383.43 1212.88 386.94 C 1211.17 383.40 1209.35 379.90 1207.54 376.41 C 1206.25 376.41 1204.96 376.41 1203.67 376.42 Z M 893.53 376.43 C 893.44 383.72 893.57 391.02 893.52 398.31 C 894.72 398.30 895.92 398.29 897.12 398.29 C 897.11 391.01 897.17 383.74 897.12 376.46 C 895.92 376.45 894.72 376.44 893.53 376.43 Z" id="p1" />
<path d="M 515.01 149.96 C 532.83 168.14 550.39 186.61 567.87 205.13 C 575.82 213.44 582.42 222.79 586.15 233.76 C 590.41 245.59 591.51 257.79 591.60 270.28 C 591.71 286.11 592.24 302.78 590.08 318.45 C 588.41 328.96 585.63 339.51 581.09 349.17 C 578.88 347.54 576.67 345.91 574.45 344.28 C 579.23 332.03 581.60 319.10 582.35 306.00 C 583.12 290.77 582.47 275.45 582.83 260.22 C 576.49 273.51 564.27 283.01 557.96 295.86 C 553.98 303.89 553.91 312.92 554.53 321.67 C 551.94 317.87 549.09 314.24 546.61 310.37 C 545.99 309.29 545.29 308.33 545.28 307.03 C 545.15 300.14 547.13 293.43 550.36 287.39 C 556.81 275.65 567.15 266.67 573.20 254.18 C 577.95 244.67 578.81 233.57 575.38 223.49 C 571.53 211.23 561.52 201.12 552.26 192.61 C 560.71 203.29 570.25 214.17 572.86 227.98 C 575.09 238.71 572.44 249.49 566.62 258.63 C 558.29 271.59 546.03 282.18 537.77 295.49 C 531.73 286.97 525.68 278.44 519.29 270.18 C 528.00 261.03 536.41 252.10 541.34 240.24 C 545.83 229.67 546.50 218.26 544.84 206.99 C 542.50 190.23 535.08 174.34 523.50 161.95 C 527.32 167.87 530.94 173.85 533.58 180.39 C 539.96 195.42 541.35 211.46 540.13 227.62 C 533.95 220.88 527.46 214.46 521.29 207.71 C 519.53 205.82 517.79 203.78 515.77 202.17 C 514.74 202.35 513.89 203.45 513.11 204.11 C 504.06 213.35 494.99 222.61 485.94 231.85 C 476.92 225.41 466.07 221.92 454.95 222.81 C 448.82 223.48 442.57 225.60 437.60 229.31 C 437.33 230.04 437.20 230.86 437.05 231.63 C 445.65 226.45 456.18 224.78 465.94 227.20 C 476.25 229.60 485.16 236.09 492.47 243.53 C 500.34 251.61 507.46 260.75 514.25 269.75 C 527.02 287.01 539.26 304.69 552.19 321.83 C 560.06 332.04 568.75 343.19 579.42 350.58 C 587.65 356.47 598.07 358.48 607.98 356.66 C 622.24 354.20 633.28 346.22 643.77 336.75 C 635.33 342.66 626.68 347.78 616.74 350.77 C 606.67 353.94 595.82 353.61 585.83 350.26 C 598.12 337.71 610.33 325.09 622.65 312.57 C 614.05 302.79 604.73 293.64 595.82 284.13 C 596.48 267.61 596.06 249.66 589.83 234.12 C 587.33 227.65 583.41 222.10 579.13 216.69 C 595.61 233.28 611.86 250.09 628.10 266.92 C 642.70 281.84 657.23 296.85 671.57 312.03 C 649.72 334.37 628.11 356.92 606.26 379.26 C 599.46 386.23 591.83 392.56 582.25 395.18 C 573.91 397.52 564.99 396.44 557.24 392.68 C 548.25 388.47 540.66 380.18 534.21 372.80 C 519.41 355.14 506.40 335.84 492.71 317.31 C 484.55 306.26 476.51 294.87 467.44 284.54 C 460.95 277.42 454.01 270.70 444.99 266.92 C 436.55 263.26 426.68 263.35 417.94 265.87 C 404.20 269.72 393.47 277.83 383.07 287.25 C 394.78 279.30 405.98 272.14 420.19 269.54 C 428.90 267.96 437.69 269.31 445.83 272.61 C 432.80 285.80 419.80 299.02 406.82 312.26 C 416.62 322.70 426.77 332.81 436.51 343.31 C 436.30 358.62 436.07 374.03 440.18 388.93 C 442.11 396.25 445.64 402.89 450.03 409.01 C 444.08 403.27 438.49 397.20 432.63 391.37 C 406.88 364.91 380.89 338.69 355.39 311.99 C 378.52 288.25 402.07 264.94 425.33 241.33 C 428.91 237.77 432.63 234.40 436.93 231.72 C 436.43 231.29 435.92 230.86 435.42 230.43 C 439.67 226.74 443.48 222.46 447.48 218.48 C 470.06 195.72 492.36 172.65 515.01 149.96 Z M 408.51 262.61 C 417.18 257.35 427.88 254.27 438.03 255.81 C 445.76 256.91 452.74 260.44 458.89 265.15 C 465.75 270.47 471.74 277.03 477.31 283.66 C 490.44 299.66 502.13 316.91 514.41 333.57 C 523.51 346.21 532.66 359.36 543.03 370.97 C 549.47 377.92 557.01 384.89 566.18 387.91 C 575.34 390.94 585.32 389.48 593.55 384.56 C 604.74 378.03 614.27 366.99 623.28 357.78 C 615.82 363.02 607.21 366.23 598.00 365.86 C 588.24 365.59 579.26 361.32 571.81 355.20 C 563.33 348.24 555.87 339.53 549.15 330.89 C 535.17 312.45 522.01 293.39 508.18 274.84 C 500.29 264.48 492.13 253.31 482.32 244.69 C 475.38 238.65 467.34 233.82 458.02 232.86 C 449.28 231.83 440.64 234.45 433.49 239.46 C 424.31 245.80 416.54 254.87 408.51 262.61 Z" id="p2" />
<path d="M 458.02 232.86 C 467.34 233.82 475.38 238.65 482.32 244.69 C 492.13 253.31 500.29 264.48 508.18 274.84 C 522.01 293.39 535.17 312.45 549.15 330.89 C 555.87 339.53 563.33 348.24 571.81 355.20 C 579.26 361.32 588.24 365.59 598.00 365.86 C 607.21 366.23 615.82 363.02 623.28 357.78 C 614.27 366.99 604.74 378.03 593.55 384.56 C 585.32 389.48 575.34 390.94 566.18 387.91 C 557.01 384.89 549.47 377.92 543.03 370.97 C 532.66 359.36 523.51 346.21 514.41 333.57 C 502.13 316.91 490.44 299.66 477.31 283.66 C 471.74 277.03 465.75 270.47 458.89 265.15 C 452.74 260.44 445.76 256.91 438.03 255.81 C 427.88 254.27 417.18 257.35 408.51 262.61 C 416.54 254.87 424.31 245.80 433.49 239.46 C 440.64 234.45 449.28 231.83 458.02 232.86 Z" id="p3" />
<path d="M 451.60 273.52 C 454.09 275.11 456.34 277.11 458.63 278.97 C 453.49 291.39 451.03 304.62 450.33 318.00 C 449.30 336.61 450.10 355.39 450.71 374.01 C 455.99 363.33 463.69 355.07 470.45 345.45 C 475.13 338.73 479.02 331.29 479.94 323.03 C 480.62 316.59 480.21 310.16 479.36 303.77 C 482.55 308.49 486.71 312.90 489.11 318.07 C 490.33 326.08 488.49 334.80 485.03 342.09 C 479.13 354.76 468.58 364.29 462.37 377.24 C 457.36 387.30 455.98 399.53 459.80 410.21 C 463.10 419.25 470.79 426.63 477.69 433.07 C 472.17 425.76 466.72 419.10 463.71 410.27 C 459.58 398.63 461.56 386.07 467.44 375.42 C 475.81 360.20 489.59 347.78 498.43 332.77 C 504.47 341.61 511.02 350.07 517.26 358.76 C 509.65 366.56 501.92 375.02 496.49 384.51 C 489.85 396.16 487.34 409.74 488.78 423.03 C 490.38 438.65 497.74 453.25 508.13 464.86 C 500.38 453.06 494.77 440.19 493.42 426.01 C 492.31 417.92 493.24 410.05 493.60 401.96 C 500.93 409.44 507.93 417.39 515.67 424.45 C 526.05 413.88 536.45 403.32 546.73 392.64 C 556.34 399.16 567.97 402.72 579.49 399.65 C 586.53 397.92 591.66 393.81 597.21 389.41 C 594.55 392.35 591.85 395.24 589.06 398.06 C 564.30 423.70 539.89 449.69 515.02 475.23 C 500.84 460.99 487.05 446.37 472.90 432.09 C 467.45 426.42 461.94 421.13 457.09 414.94 C 450.63 406.49 446.11 396.62 443.89 386.22 C 440.87 372.43 441.24 358.17 440.88 344.00 C 440.92 319.62 441.25 296.13 451.60 273.52 Z" id="p4" />
<path d="M 724.51 274.17 C 730.35 274.13 736.19 274.16 742.02 274.20 C 755.02 291.95 768.24 309.53 781.22 327.29 C 781.20 314.86 781.21 302.43 781.27 290.00 C 781.24 287.01 781.28 283.60 780.28 280.75 C 779.38 278.35 777.04 276.42 775.27 274.63 C 781.81 274.59 788.36 274.58 794.90 274.67 C 792.87 276.76 790.62 278.65 789.75 281.53 C 788.83 284.85 788.84 288.57 788.80 292.00 C 788.79 311.31 788.71 330.62 788.70 349.94 C 786.86 349.92 785.03 349.91 783.19 349.89 C 776.03 340.96 769.40 331.62 762.45 322.52 C 754.73 312.00 746.71 301.67 739.17 291.01 C 738.91 306.34 739.20 321.70 739.15 337.03 C 738.94 342.10 741.39 345.55 744.86 348.91 C 738.39 348.80 731.92 348.90 725.45 348.86 C 727.42 346.57 729.58 344.57 730.40 341.55 C 731.26 338.19 731.27 334.46 731.30 331.00 C 731.26 316.67 731.33 302.33 731.32 288.00 C 731.25 285.44 731.27 282.38 729.94 280.10 C 728.62 277.86 726.37 275.98 724.51 274.17 Z" id="p5" />
<path d="M 808.35 275.18 C 824.72 275.22 841.10 275.33 857.47 275.21 C 857.40 280.76 857.67 286.32 857.40 291.87 C 854.56 289.45 853.30 285.79 850.35 283.68 C 847.90 281.88 844.94 281.57 842.01 281.43 C 836.81 281.30 831.61 281.42 826.41 281.39 C 826.38 290.18 826.48 298.97 826.42 307.76 C 830.87 307.71 835.40 307.97 839.82 307.49 C 843.96 307.11 846.66 303.50 849.67 301.00 C 850.44 307.74 849.99 314.62 850.03 321.40 C 847.01 318.93 844.94 314.76 841.01 314.13 C 836.27 313.27 831.24 313.79 826.43 313.72 C 826.49 323.52 826.37 333.33 826.46 343.14 C 833.24 343.01 840.59 343.65 847.21 342.12 C 853.30 340.29 855.21 335.49 859.60 331.55 C 859.38 337.47 858.39 343.37 857.70 349.26 C 841.29 349.18 824.87 349.23 808.46 349.24 C 809.82 347.46 811.51 345.62 812.39 343.54 C 813.35 340.92 813.31 337.76 813.36 335.00 C 813.39 321.00 813.29 307.00 813.38 293.00 C 813.35 289.38 813.54 285.54 812.78 281.99 C 812.26 279.33 810.03 277.21 808.35 275.18 Z" id="p6" />
<path d="M 869.14 275.85 C 877.39 275.73 885.65 275.83 893.90 275.84 C 892.71 277.47 891.41 279.11 890.55 280.94 C 890.90 282.80 891.88 284.56 892.79 286.20 C 896.19 292.14 899.65 298.04 903.24 303.88 C 906.93 298.33 910.63 292.77 914.16 287.12 C 915.17 285.34 916.66 283.06 916.31 280.95 C 915.42 279.10 913.86 277.46 912.56 275.88 C 919.41 275.88 926.25 275.80 933.10 275.93 C 929.81 278.78 926.61 281.57 924.25 285.27 C 918.68 293.60 913.20 301.99 907.71 310.37 C 913.96 320.41 920.19 330.47 926.53 340.46 C 928.67 343.93 931.57 346.61 934.61 349.27 C 926.21 349.29 917.82 349.25 909.43 349.33 C 910.58 347.74 912.46 345.99 912.83 344.00 C 912.53 342.59 911.74 341.24 911.03 339.99 C 906.96 333.20 902.85 326.44 898.83 319.62 C 894.48 326.34 890.01 332.99 885.74 339.75 C 885.00 341.15 883.57 342.95 884.43 344.56 C 885.35 346.24 886.74 347.72 887.94 349.20 C 881.36 349.17 874.80 349.29 868.23 349.18 C 872.67 345.04 876.36 340.75 879.68 335.66 C 884.67 328.23 889.71 320.83 894.61 313.35 C 888.54 303.72 882.75 293.93 876.74 284.26 C 874.74 280.94 871.96 278.45 869.14 275.85 Z" id="p7" />
<path d="M 1028.49 276.76 C 1038.62 274.45 1050.90 276.10 1059.09 282.88 C 1066.39 288.87 1070.63 297.68 1071.62 306.99 C 1072.40 315.01 1071.90 323.23 1068.76 330.74 C 1064.85 340.29 1056.64 347.90 1046.56 350.45 C 1034.72 353.44 1020.89 350.78 1012.32 341.68 C 1006.30 335.57 1003.26 327.48 1002.52 319.03 C 1001.68 309.36 1002.91 299.54 1008.24 291.23 C 1012.71 283.95 1020.18 278.69 1028.49 276.76 Z M 1031.43 282.56 C 1026.16 284.18 1021.99 288.86 1019.81 293.80 C 1016.22 301.78 1015.99 311.42 1016.60 320.02 C 1017.36 327.49 1019.49 335.54 1025.19 340.81 C 1031.94 347.20 1043.75 346.97 1050.05 340.05 C 1056.49 333.09 1057.81 323.13 1058.08 314.03 C 1058.08 305.13 1056.62 295.27 1050.85 288.13 C 1046.22 282.37 1038.39 280.54 1031.43 282.56 Z" id="p8" />
<path d="M 944.27 276.75 C 960.39 276.70 976.51 276.82 992.63 276.75 C 992.53 282.43 992.80 288.14 992.44 293.80 C 988.49 290.35 987.94 285.48 982.27 283.76 C 975.76 282.21 968.52 283.13 961.84 282.87 C 961.87 291.82 961.89 300.79 961.86 309.75 C 966.21 309.72 970.64 309.99 974.98 309.54 C 979.18 309.29 982.10 305.37 985.10 302.78 C 985.01 309.69 985.54 316.71 984.77 323.58 C 982.26 320.63 980.21 316.72 976.03 316.05 C 971.38 315.39 966.54 315.82 961.85 315.73 C 961.89 322.16 961.87 328.58 961.84 335.00 C 961.86 337.80 961.85 340.83 962.61 343.54 C 963.32 345.75 965.32 347.69 966.77 349.46 C 959.42 349.31 952.06 349.37 944.71 349.47 C 946.19 347.36 948.05 345.42 948.51 342.81 C 949.03 339.92 949.09 336.92 949.11 334.00 C 949.10 320.00 949.13 306.00 949.11 291.99 C 949.04 289.01 949.01 285.88 948.32 282.95 C 947.74 280.60 945.75 278.60 944.27 276.75 Z" id="p9" />
<path d="M 1262.03 278.52 C 1269.75 277.73 1277.46 279.05 1284.32 282.72 C 1284.13 288.12 1284.27 293.49 1283.74 298.88 C 1281.11 297.90 1280.79 295.67 1279.47 293.50 C 1277.34 289.43 1274.14 285.86 1269.51 284.75 C 1265.47 283.90 1260.94 283.84 1257.62 286.65 C 1253.19 290.31 1253.30 297.64 1257.66 301.33 C 1264.60 307.65 1276.84 309.82 1283.62 317.41 C 1290.49 324.68 1290.32 337.26 1283.55 344.53 C 1279.05 349.45 1272.60 351.87 1266.00 351.92 C 1258.12 352.32 1250.54 350.32 1243.74 346.38 C 1243.85 340.69 1243.89 335.06 1244.31 329.37 C 1245.68 330.32 1246.54 331.20 1247.30 332.71 C 1249.67 337.03 1251.94 341.12 1256.40 343.63 C 1261.55 346.51 1268.94 346.63 1273.41 342.41 C 1278.14 337.75 1277.79 329.55 1272.61 325.36 C 1265.92 319.65 1255.00 317.33 1248.45 310.53 C 1241.66 303.97 1241.71 291.91 1248.16 285.15 C 1251.81 281.32 1256.81 279.11 1262.03 278.52 Z" id="p10" />
<path d="M 1079.21 278.55 C 1087.81 278.53 1096.40 278.52 1105.01 278.49 C 1111.61 278.54 1118.69 279.60 1123.70 284.29 C 1130.97 290.79 1130.93 303.41 1124.34 310.36 C 1121.63 313.37 1118.30 315.02 1114.73 316.78 C 1120.27 324.81 1124.94 333.50 1130.61 341.43 C 1133.04 344.80 1136.15 347.31 1139.21 350.07 C 1134.30 350.10 1128.98 350.74 1124.18 349.61 C 1119.29 348.31 1116.74 343.84 1114.34 339.78 C 1110.33 332.83 1106.68 325.66 1102.48 318.82 C 1100.53 318.84 1098.57 318.86 1096.62 318.87 C 1096.72 326.58 1096.29 334.35 1096.81 342.04 C 1096.99 345.38 1098.92 347.41 1100.91 349.84 C 1093.77 349.70 1086.62 349.83 1079.48 349.84 C 1081.33 347.42 1083.19 345.41 1083.59 342.24 C 1084.14 337.87 1083.96 333.39 1084.04 329.00 C 1083.84 316.33 1084.00 303.66 1083.91 290.99 C 1083.83 287.28 1083.71 283.90 1081.24 280.91 C 1080.57 280.12 1079.89 279.33 1079.21 278.55 Z M 1096.57 284.34 C 1096.53 294.04 1096.60 303.73 1096.61 313.42 C 1101.79 313.30 1106.81 313.62 1111.02 310.04 C 1115.64 306.02 1116.42 299.95 1115.47 294.18 C 1114.73 290.24 1112.41 286.74 1108.56 285.29 C 1104.89 283.96 1100.43 284.45 1096.57 284.34 Z" id="p11" />
<path d="M 1142.18 278.52 C 1161.39 278.53 1180.59 278.62 1199.80 278.53 C 1199.73 284.53 1200.04 290.57 1199.67 296.56 C 1196.00 293.62 1195.34 289.29 1191.24 286.75 C 1187.52 284.34 1181.94 284.88 1177.67 284.74 C 1177.67 301.83 1177.73 318.91 1177.70 336.00 C 1177.72 338.76 1177.78 341.84 1178.69 344.47 C 1179.53 346.56 1181.30 348.42 1182.70 350.17 C 1175.23 350.10 1167.77 350.13 1160.31 350.16 C 1161.74 348.24 1163.48 346.36 1164.12 344.01 C 1164.91 341.03 1164.83 338.05 1164.85 335.00 C 1164.85 318.21 1164.89 301.42 1164.80 284.63 C 1160.58 284.76 1155.22 284.35 1151.40 286.38 C 1147.39 288.52 1146.06 292.75 1143.16 295.98 L 1141.97 295.56 C 1141.80 289.89 1142.33 284.21 1142.18 278.52 Z" id="p12" />
<path d="M 1207.70 279.19 C 1214.77 279.20 1221.83 279.24 1228.90 279.13 C 1227.36 281.25 1225.54 283.36 1225.02 285.99 C 1224.45 288.91 1224.61 292.04 1224.59 295.00 C 1224.57 308.33 1224.66 321.67 1224.58 335.00 C 1224.60 338.13 1224.60 341.57 1225.51 344.58 C 1226.19 346.61 1227.74 348.48 1228.99 350.20 C 1221.93 350.09 1214.87 350.10 1207.81 350.21 C 1210.24 347.09 1211.89 344.04 1211.86 339.97 C 1212.01 325.32 1211.81 310.65 1211.92 296.00 C 1211.88 292.61 1212.07 289.07 1211.46 285.72 C 1210.99 283.18 1209.19 281.20 1207.70 279.19 Z" id="p13" />
<path d="M 1031.43 282.56 C 1038.39 280.54 1046.22 282.37 1050.85 288.13 C 1056.62 295.27 1058.08 305.13 1058.08 314.03 C 1057.81 323.13 1056.49 333.09 1050.05 340.05 C 1043.75 346.97 1031.94 347.20 1025.19 340.81 C 1019.49 335.54 1017.36 327.49 1016.60 320.02 C 1015.99 311.42 1016.22 301.78 1019.81 293.80 C 1021.99 288.86 1026.16 284.18 1031.43 282.56 Z" id="p14" />
<path d="M 1108.56 285.29 C 1112.41 286.74 1114.73 290.24 1115.47 294.18 C 1116.42 299.95 1115.64 306.02 1111.02 310.04 C 1106.81 313.62 1101.79 313.30 1096.61 313.42 C 1096.60 303.73 1096.53 294.04 1096.57 284.34 C 1100.43 284.45 1104.89 283.96 1108.56 285.29 Z" id="p15" />
<path d="M 809.48 377.57 C 813.57 379.90 813.70 386.25 810.04 389.02 C 807.41 391.14 804.36 390.78 801.20 390.98 C 801.17 393.42 801.16 395.87 801.15 398.31 C 799.95 398.31 798.76 398.30 797.56 398.29 C 797.56 391.01 797.61 383.74 797.55 376.46 C 801.28 376.60 806.11 375.75 809.48 377.57 Z M 801.16 379.31 C 801.16 382.30 801.19 385.30 801.25 388.29 C 803.67 387.82 807.49 388.31 808.65 385.62 C 809.23 383.71 809.22 380.89 807.07 379.97 C 805.27 379.27 803.07 379.47 801.16 379.31 Z" id="p16" />
<path d="M 821.52 376.53 C 824.93 376.32 828.64 376.09 831.97 376.97 C 835.44 378.02 836.83 381.59 835.89 384.94 C 835.47 386.88 833.42 388.19 832.05 389.49 C 834.08 392.44 836.10 395.39 838.17 398.32 C 836.75 398.32 835.33 398.32 833.91 398.32 C 832.09 395.42 830.23 392.56 828.30 389.74 C 827.24 389.75 826.19 389.76 825.13 389.77 C 825.11 392.60 825.11 395.43 825.11 398.26 C 823.87 398.28 822.63 398.30 821.40 398.32 C 821.50 391.06 821.32 383.78 821.52 376.53 Z M 825.17 387.38 C 826.78 387.26 828.46 387.28 830.03 386.89 C 832.96 386.12 833.59 381.44 830.90 380.03 C 829.27 379.18 827.01 379.34 825.21 379.35 C 825.01 382.01 825.13 384.71 825.17 387.38 Z" id="p17" />
<path d="M 845.91 376.46 C 850.44 376.42 854.96 376.41 859.48 376.42 C 859.50 377.45 859.51 378.48 859.52 379.51 C 856.22 379.49 852.92 379.49 849.63 379.50 C 849.63 381.58 849.63 383.67 849.63 385.75 C 852.38 385.74 855.14 385.72 857.89 385.70 C 857.90 386.68 857.91 387.65 857.92 388.63 C 855.14 388.61 852.35 388.60 849.57 388.59 C 849.58 390.82 849.59 393.04 849.60 395.27 C 852.97 395.27 856.35 395.25 859.72 395.23 C 859.69 396.25 859.66 397.28 859.63 398.30 C 855.05 398.25 850.47 398.26 845.89 398.30 C 845.90 391.02 845.92 383.74 845.91 376.46 Z" id="p18" />
<path d="M 885.21 377.78 C 884.81 378.75 884.40 379.71 884.00 380.68 C 881.13 379.65 878.60 378.57 875.51 379.66 C 869.54 381.99 869.59 393.30 875.85 395.24 C 878.98 396.18 881.35 394.92 884.18 393.84 C 884.46 394.84 884.74 395.84 885.02 396.85 C 882.65 397.70 880.57 398.66 877.99 398.65 C 873.94 398.78 870.05 396.37 868.41 392.66 C 866.29 387.43 867.58 380.72 872.60 377.62 C 876.70 375.19 881.05 376.10 885.21 377.78 Z" id="p19" />
<path d="M 919.88 377.57 C 919.47 378.55 919.06 379.53 918.65 380.51 C 915.90 379.61 913.61 378.37 910.73 379.72 C 909.97 380.73 909.70 382.41 910.56 383.43 C 913.10 385.48 917.11 386.26 919.29 388.71 C 921.61 391.51 920.64 395.74 917.52 397.49 C 913.57 399.67 909.92 398.40 906.04 396.93 C 906.30 395.86 906.56 394.79 906.83 393.73 C 909.65 394.85 911.95 396.29 915.11 395.35 C 916.94 394.48 917.55 392.39 916.26 390.80 C 913.92 388.74 910.34 388.09 907.99 385.98 C 905.44 383.49 906.24 378.97 909.22 377.20 C 912.62 375.24 916.45 376.37 919.88 377.57 Z" id="p20" />
<path d="M 929.24 376.57 C 930.37 376.45 931.49 376.36 932.63 376.30 C 932.58 383.64 932.62 390.99 932.59 398.34 C 931.44 398.33 930.28 398.32 929.13 398.31 C 929.17 391.07 928.95 383.80 929.24 376.57 Z" id="p21" />
<path d="M 948.47 376.60 C 952.20 375.62 956.28 376.10 959.13 378.89 C 963.13 382.70 963.30 389.91 960.33 394.37 C 956.79 399.85 947.94 400.08 943.89 395.08 C 939.33 389.47 941.11 378.99 948.47 376.60 Z M 949.46 379.53 C 944.77 381.07 944.52 387.52 945.78 391.44 C 947.17 395.48 952.05 396.89 955.54 394.61 C 959.12 392.32 959.20 386.65 957.92 383.09 C 956.59 379.57 952.86 378.45 949.46 379.53 Z" id="p22" />
<path d="M 971.28 376.46 C 972.19 376.40 973.11 376.39 974.04 376.42 C 977.98 381.61 981.82 386.90 985.54 392.26 C 985.52 386.97 985.59 381.68 985.57 376.39 L 988.83 376.41 C 988.80 383.82 988.85 391.23 988.74 398.63 C 986.80 398.25 985.67 398.16 984.56 396.43 C 981.09 391.62 977.59 386.83 974.23 381.93 C 974.24 387.38 974.24 392.83 974.33 398.28 C 973.18 398.28 972.03 398.27 970.88 398.27 C 971.07 391.02 970.61 383.67 971.28 376.46 Z" id="p23" />
<path d="M 1022.27 379.88 C 1022.59 383.61 1020.24 384.86 1017.60 386.70 C 1019.24 388.41 1020.83 390.16 1022.39 391.94 C 1022.88 390.40 1023.29 388.81 1023.93 387.32 L 1026.97 386.89 C 1026.30 389.31 1025.49 391.61 1024.42 393.88 C 1025.75 395.35 1027.08 396.82 1028.40 398.29 C 1026.97 398.29 1025.55 398.28 1024.12 398.27 C 1023.51 397.58 1022.89 396.89 1022.28 396.19 C 1019.89 397.54 1017.86 398.92 1014.95 398.53 C 1011.57 398.22 1008.43 395.61 1008.87 391.98 C 1009.18 389.23 1011.17 388.14 1013.02 386.41 C 1011.84 384.04 1010.47 382.21 1011.42 379.42 C 1013.21 374.94 1021.00 374.94 1022.27 379.88 Z M 1016.22 385.54 C 1017.60 383.80 1019.82 382.59 1019.12 380.06 C 1017.98 378.05 1015.89 378.43 1014.47 379.91 C 1014.07 382.18 1015.34 383.59 1016.22 385.54 Z M 1020.64 394.47 C 1018.64 392.29 1016.67 390.09 1014.61 387.96 C 1012.98 389.93 1011.05 392.30 1013.37 394.63 C 1015.65 396.86 1018.17 395.41 1020.64 394.47 Z" id="p24" />
<path d="M 1045.17 376.41 C 1045.23 383.67 1045.18 390.94 1045.18 398.21 C 1043.98 398.23 1042.78 398.24 1041.58 398.25 C 1041.70 390.97 1041.64 383.67 1041.62 376.38 C 1042.80 376.39 1043.99 376.40 1045.17 376.41 Z" id="p25" />
<path d="M 1055.17 376.40 C 1056.12 376.39 1057.06 376.41 1058.00 376.48 C 1061.83 381.79 1065.92 386.95 1069.40 392.50 C 1069.26 387.12 1069.38 381.76 1069.32 376.38 L 1072.68 376.41 C 1072.63 383.72 1072.63 391.03 1072.64 398.34 C 1071.68 398.32 1070.71 398.29 1069.75 398.27 C 1065.86 392.90 1061.97 387.53 1058.22 382.05 C 1058.21 387.45 1058.21 392.86 1058.24 398.26 C 1057.13 398.25 1056.01 398.24 1054.89 398.24 C 1055.08 390.98 1054.55 383.63 1055.17 376.40 Z" id="p26" />
<path d="M 1079.79 376.54 C 1085.15 376.27 1090.56 376.53 1095.94 376.39 C 1095.92 377.45 1095.91 378.52 1095.89 379.59 C 1093.77 379.56 1091.65 379.54 1089.53 379.51 C 1089.56 385.75 1089.49 392.00 1089.48 398.25 C 1088.28 398.25 1087.08 398.25 1085.88 398.25 C 1085.91 391.99 1085.88 385.73 1085.91 379.48 C 1083.74 379.51 1081.58 379.53 1079.41 379.55 C 1079.51 378.54 1079.64 377.54 1079.79 376.54 Z" id="p27" />
<path d="M 1103.37 376.55 C 1107.76 376.25 1112.19 376.48 1116.59 376.42 C 1116.58 377.44 1116.57 378.46 1116.55 379.48 C 1113.29 379.48 1110.02 379.47 1106.75 379.45 C 1106.77 381.55 1106.79 383.65 1106.81 385.75 C 1109.52 385.74 1112.22 385.71 1114.93 385.69 C 1115.02 386.67 1115.11 387.64 1115.20 388.62 C 1112.39 388.62 1109.59 388.61 1106.78 388.60 C 1106.78 390.83 1106.78 393.05 1106.77 395.28 C 1110.12 395.24 1113.47 395.23 1116.83 395.24 C 1116.80 396.24 1116.78 397.23 1116.76 398.23 C 1112.26 398.24 1107.77 398.24 1103.27 398.25 C 1103.37 391.03 1103.09 383.77 1103.37 376.55 Z" id="p28" />
<path d="M 1141.56 377.80 C 1141.09 378.72 1140.62 379.64 1140.15 380.55 C 1137.06 379.55 1134.22 378.36 1131.08 380.02 C 1126.82 382.34 1126.70 389.27 1129.13 392.89 C 1131.36 396.01 1134.77 395.41 1138.13 395.42 C 1138.13 392.98 1138.13 390.53 1138.13 388.09 C 1139.24 388.09 1140.36 388.09 1141.47 388.08 C 1141.50 391.06 1141.53 394.04 1141.56 397.01 C 1137.33 398.67 1133.11 399.44 1128.95 397.09 C 1121.95 393.12 1122.39 381.07 1129.42 377.37 C 1133.43 375.33 1137.59 376.13 1141.56 377.80 Z" id="p29" />
<path d="M 1150.37 376.54 C 1153.78 376.36 1157.63 376.02 1160.91 377.07 C 1163.89 378.20 1165.10 380.90 1164.64 383.97 C 1164.36 386.55 1162.34 387.73 1160.64 389.44 C 1162.72 392.33 1164.72 395.28 1166.73 398.22 C 1165.38 398.22 1164.03 398.23 1162.67 398.23 C 1160.76 395.41 1158.89 392.55 1157.06 389.68 C 1155.95 389.70 1154.84 389.71 1153.72 389.73 C 1153.71 392.54 1153.71 395.35 1153.69 398.16 C 1152.54 398.19 1151.39 398.21 1150.23 398.24 C 1150.36 391.02 1150.04 383.75 1150.37 376.54 Z M 1153.75 379.22 C 1153.74 381.95 1153.74 384.68 1153.75 387.41 C 1155.98 387.16 1158.19 386.84 1160.40 386.44 C 1160.73 384.44 1161.92 382.42 1160.39 380.64 C 1158.85 379.07 1155.79 379.52 1153.75 379.22 Z" id="p30" />
<path d="M 1173.45 376.55 C 1174.55 376.43 1175.66 376.33 1176.77 376.27 C 1176.80 383.59 1176.76 390.92 1176.81 398.24 C 1175.65 398.24 1174.49 398.24 1173.32 398.24 C 1173.40 391.02 1173.19 383.77 1173.45 376.55 Z" id="p31" />
<path d="M 1183.57 376.53 C 1188.86 376.29 1194.18 376.51 1199.48 376.42 L 1199.39 379.52 C 1197.31 379.51 1195.22 379.51 1193.14 379.50 C 1193.18 385.75 1193.11 391.99 1193.13 398.24 C 1191.93 398.25 1190.72 398.27 1189.52 398.28 C 1189.53 392.01 1189.50 385.74 1189.51 379.47 C 1187.40 379.51 1185.30 379.56 1183.20 379.59 C 1183.30 378.56 1183.42 377.54 1183.57 376.53 Z" id="p32" />
<path d="M 1203.67 376.42 C 1204.96 376.41 1206.25 376.41 1207.54 376.41 C 1209.35 379.90 1211.17 383.40 1212.88 386.94 C 1214.60 383.43 1216.42 379.97 1218.19 376.48 C 1219.40 376.45 1220.62 376.42 1221.84 376.39 C 1219.84 380.19 1217.70 383.90 1215.65 387.67 C 1213.76 390.55 1214.67 394.89 1214.51 398.22 C 1213.36 398.24 1212.21 398.26 1211.06 398.28 C 1210.95 394.62 1211.80 390.49 1209.70 387.32 C 1207.65 383.71 1205.61 380.09 1203.67 376.42 Z" id="p33" />
<path d="M 893.53 376.43 C 894.72 376.44 895.92 376.45 897.12 376.46 C 897.17 383.74 897.11 391.01 897.12 398.29 C 895.92 398.29 894.72 398.30 893.52 398.31 C 893.57 391.02 893.44 383.72 893.53 376.43 Z" id="p34" />
<path d="M 1019.12 380.06 C 1019.82 382.59 1017.60 383.80 1016.22 385.54 C 1015.34 383.59 1014.07 382.18 1014.47 379.91 C 1015.89 378.43 1017.98 378.05 1019.12 380.06 Z" id="p35" />
<path d="M 801.16 379.31 C 803.07 379.47 805.27 379.27 807.07 379.97 C 809.22 380.89 809.23 383.71 808.65 385.62 C 807.49 388.31 803.67 387.82 801.25 388.29 C 801.19 385.30 801.16 382.30 801.16 379.31 Z" id="p36" />
<path d="M 825.21 379.35 C 827.01 379.34 829.27 379.18 830.90 380.03 C 833.59 381.44 832.96 386.12 830.03 386.89 C 828.46 387.28 826.78 387.26 825.17 387.38 C 825.13 384.71 825.01 382.01 825.21 379.35 Z" id="p37" />
<path d="M 949.46 379.53 C 952.86 378.45 956.59 379.57 957.92 383.09 C 959.20 386.65 959.12 392.32 955.54 394.61 C 952.05 396.89 947.17 395.48 945.78 391.44 C 944.52 387.52 944.77 381.07 949.46 379.53 Z" id="p38" />
<path d="M 1153.75 379.22 C 1155.79 379.52 1158.85 379.07 1160.39 380.64 C 1161.92 382.42 1160.73 384.44 1160.40 386.44 C 1158.19 386.84 1155.98 387.16 1153.75 387.41 C 1153.74 384.68 1153.74 381.95 1153.75 379.22 Z" id="p39" />
<path d="M 1014.61 387.96 C 1016.67 390.09 1018.64 392.29 1020.64 394.47 C 1018.17 395.41 1015.65 396.86 1013.37 394.63 C 1011.05 392.30 1012.98 389.93 1014.61 387.96 Z" id="p40" />
</defs>
<g stroke-width="10pt">
<use stroke="#000000" xlink:href="#p1" />
<use stroke="#ffffff" xlink:href="#p2" />
<use stroke="#000000" xlink:href="#p3" />
<use stroke="#ffffff" xlink:href="#p4" />
<use stroke="#ffffff" xlink:href="#p5" />
<use stroke="#ffffff" xlink:href="#p6" />
<use stroke="#ffffff" xlink:href="#p7" />
<use stroke="#ffffff" xlink:href="#p8" />
<use stroke="#ffffff" xlink:href="#p9" />
<use stroke="#ffffff" xlink:href="#p10" />
<use stroke="#ffffff" xlink:href="#p11" />
<use stroke="#ffffff" xlink:href="#p12" />
<use stroke="#ffffff" xlink:href="#p13" />
<use stroke="#000000" xlink:href="#p14" />
<use stroke="#000000" xlink:href="#p15" />
<use stroke="#ffffff" xlink:href="#p16" />
<use stroke="#ffffff" xlink:href="#p17" />
<use stroke="#ffffff" xlink:href="#p18" />
<use stroke="#ffffff" xlink:href="#p19" />
<use stroke="#ffffff" xlink:href="#p20" />
<use stroke="#ffffff" xlink:href="#p21" />
<use stroke="#ffffff" xlink:href="#p22" />
<use stroke="#ffffff" xlink:href="#p23" />
<use stroke="#ffffff" xlink:href="#p24" />
<use stroke="#ffffff" xlink:href="#p25" />
<use stroke="#ffffff" xlink:href="#p26" />
<use stroke="#ffffff" xlink:href="#p27" />
<use stroke="#ffffff" xlink:href="#p28" />
<use stroke="#ffffff" xlink:href="#p29" />
<use stroke="#ffffff" xlink:href="#p30" />
<use stroke="#ffffff" xlink:href="#p31" />
<use stroke="#ffffff" xlink:href="#p32" />
<use stroke="#ffffff" xlink:href="#p33" />
<use stroke="#ffffff" xlink:href="#p34" />
<use stroke="#000000" xlink:href="#p35" />
<use stroke="#000000" xlink:href="#p36" />
<use stroke="#000000" xlink:href="#p37" />
<use stroke="#000000" xlink:href="#p38" />
<use stroke="#000000" xlink:href="#p39" />
<use stroke="#000000" xlink:href="#p40" />
</g>
<g>
<use fill="#000000" xlink:href="#p1" />
<use fill="#ffffff" xlink:href="#p2" />
<use fill="#000000" xlink:href="#p3" />
<use fill="#ffffff" xlink:href="#p4" />
<use fill="#ffffff" xlink:href="#p5" />
<use fill="#ffffff" xlink:href="#p6" />
<use fill="#ffffff" xlink:href="#p7" />
<use fill="#ffffff" xlink:href="#p8" />
<use fill="#ffffff" xlink:href="#p9" />
<use fill="#ffffff" xlink:href="#p10" />
<use fill="#ffffff" xlink:href="#p11" />
<use fill="#ffffff" xlink:href="#p12" />
<use fill="#ffffff" xlink:href="#p13" />
<use fill="#000000" xlink:href="#p14" />
<use fill="#000000" xlink:href="#p15" />
<use fill="#ffffff" xlink:href="#p16" />
<use fill="#ffffff" xlink:href="#p17" />
<use fill="#ffffff" xlink:href="#p18" />
<use fill="#ffffff" xlink:href="#p19" />
<use fill="#ffffff" xlink:href="#p20" />
<use fill="#ffffff" xlink:href="#p21" />
<use fill="#ffffff" xlink:href="#p22" />
<use fill="#ffffff" xlink:href="#p23" />
<use fill="#ffffff" xlink:href="#p24" />
<use fill="#ffffff" xlink:href="#p25" />
<use fill="#ffffff" xlink:href="#p26" />
<use fill="#ffffff" xlink:href="#p27" />
<use fill="#ffffff" xlink:href="#p28" />
<use fill="#ffffff" xlink:href="#p29" />
<use fill="#ffffff" xlink:href="#p30" />
<use fill="#ffffff" xlink:href="#p31" />
<use fill="#ffffff" xlink:href="#p32" />
<use fill="#ffffff" xlink:href="#p33" />
<use fill="#ffffff" xlink:href="#p34" />
<use fill="#000000" xlink:href="#p35" />
<use fill="#000000" xlink:href="#p36" />
<use fill="#000000" xlink:href="#p37" />
<use fill="#000000" xlink:href="#p38" />
<use fill="#000000" xlink:href="#p39" />
<use fill="#000000" xlink:href="#p40" />
</g>
</svg>