<?xml version="1.0" encoding="UTF-8" standalone="no"?>
<!DOCTYPE svg PUBLIC "-//W3C//DTD SVG 1.1//EN" "http://www.w3.org/Graphics/SVG/1.1/DTD/svg11.dtd">
<svg xmlns="http://www.w3.org/2000/svg" version="1.1" viewBox="0 0 1672 627" width="1672.0pt" height="627.0pt" xmlns:xlink="http://www.w3.org/1999/xlink">
<defs>
<path d="M 0.00 0.00 L 1672.00 0.00 L 1672.00 627.00 L 0.00 627.00 L 0.00 0.00 Z M 382.96 216.55 C 383.37 216.61 383.78 216.67 384.18 216.74 C 388.08 214.01 392.24 211.86 396.96 211.01 C 408.45 208.81 419.62 212.45 428.99 219.07 C 438.07 209.89 447.33 200.87 456.32 191.61 C 464.20 199.69 472.08 207.78 480.01 215.82 C 481.50 205.62 481.38 195.52 478.77 185.51 C 476.05 174.20 470.72 164.07 464.30 154.46 C 472.99 164.30 479.25 175.94 481.95 188.83 C 484.71 201.13 484.01 214.01 478.67 225.53 C 473.88 236.27 466.33 243.97 458.25 252.22 C 464.30 260.26 470.22 268.41 476.04 276.62 C 483.02 262.45 497.02 251.69 504.88 237.90 C 508.60 231.57 510.56 224.34 510.19 216.98 C 509.80 209.22 506.67 202.13 502.06 195.97 C 497.29 189.74 492.24 183.71 487.28 177.64 C 492.54 182.39 497.40 187.61 502.00 193.01 C 506.60 198.47 510.55 204.88 511.99 211.96 C 513.96 221.54 511.78 231.46 506.79 239.79 C 501.49 248.97 493.58 256.24 488.20 265.21 C 484.39 271.49 482.59 278.69 482.50 286.00 C 485.22 289.71 488.01 293.38 490.61 297.19 C 489.90 288.10 491.45 279.07 496.21 271.22 C 502.50 260.87 511.73 253.38 517.13 242.13 C 519.95 236.92 520.93 231.37 521.67 225.57 C 521.54 229.37 521.36 233.10 520.44 236.81 C 519.51 240.75 517.58 243.82 517.77 248.00 C 517.53 272.52 519.62 295.67 510.64 319.08 C 512.64 320.61 514.67 322.10 516.72 323.57 C 522.82 309.47 525.41 294.31 525.67 279.01 C 525.78 270.01 525.69 261.00 525.66 252.00 C 525.57 241.52 525.21 231.13 522.07 221.06 C 520.09 214.27 516.85 207.99 512.82 202.21 C 508.44 196.22 502.60 190.92 497.40 185.58 C 483.52 171.74 469.79 157.83 455.96 143.95 C 437.46 162.11 419.26 180.60 400.91 198.91 C 394.92 204.77 389.20 210.94 382.96 216.55 Z M 516.82 205.01 C 529.24 222.69 528.19 243.45 528.20 264.00 C 536.70 272.73 545.32 281.37 553.93 290.00 C 542.46 301.67 530.81 313.15 519.47 324.93 C 528.51 328.74 538.49 328.81 547.77 325.79 C 560.36 321.87 572.06 313.05 582.19 304.80 C 571.86 315.34 558.51 326.16 543.80 329.38 C 534.03 331.77 523.60 330.56 515.10 325.02 C 506.96 319.62 499.97 311.67 493.82 304.15 C 482.43 289.79 471.98 274.69 461.06 259.96 C 452.45 248.30 443.67 235.85 433.09 225.89 C 424.24 217.74 413.31 212.14 400.99 212.75 C 393.32 213.13 386.86 216.28 380.30 219.99 C 378.72 221.11 377.33 222.58 375.94 223.93 C 353.89 245.88 331.93 267.93 309.93 289.92 C 338.05 318.51 366.55 346.73 394.57 375.41 C 395.95 376.95 397.56 377.71 399.31 378.68 C 402.28 382.41 405.30 385.95 408.70 389.30 C 424.34 405.13 440.13 420.82 455.78 436.64 C 480.99 411.24 506.22 385.84 531.38 360.40 C 525.86 364.60 520.03 367.96 513.01 368.66 C 502.87 369.79 493.31 366.40 485.13 360.58 C 475.51 370.42 465.71 380.09 456.02 389.85 C 449.06 382.74 442.11 375.62 435.00 368.67 C 433.46 378.56 433.41 388.45 435.96 398.19 C 438.61 409.10 443.98 419.01 450.25 428.22 C 440.50 417.52 433.33 403.54 431.86 389.02 C 430.29 376.32 433.28 363.02 440.25 352.26 C 445.20 344.36 452.17 337.47 458.61 330.75 C 452.61 322.67 446.55 314.62 440.73 306.40 C 437.21 314.42 430.73 321.49 425.39 328.42 C 418.82 336.93 410.52 345.84 407.25 356.20 C 404.33 365.10 405.12 374.84 410.00 382.89 C 415.19 391.41 422.38 398.72 428.32 406.74 C 420.69 398.93 411.86 390.91 406.67 381.22 C 401.53 371.66 402.19 360.45 406.65 350.76 C 411.22 340.44 419.76 332.43 425.70 322.79 C 430.69 314.84 433.23 305.34 432.86 295.96 C 432.85 294.72 431.96 293.68 431.33 292.66 C 428.86 289.06 426.21 285.61 423.53 282.17 C 426.01 293.14 424.32 304.95 418.71 314.71 C 412.72 325.23 402.73 334.76 397.81 345.83 C 395.82 350.04 395.08 354.49 394.39 359.05 C 394.10 353.83 395.66 349.12 396.29 344.04 C 395.63 329.06 395.67 313.99 395.88 298.99 C 396.19 285.61 398.19 272.48 403.61 260.14 C 401.55 258.51 399.47 256.89 397.37 255.30 C 388.37 274.11 387.40 293.52 387.76 314.00 C 388.10 331.39 386.70 352.09 393.86 368.19 C 395.03 371.44 397.53 373.56 396.59 377.09 C 392.83 371.53 389.85 365.51 388.22 358.97 C 384.71 345.22 385.37 331.92 385.36 317.85 C 376.42 308.58 367.30 299.49 358.26 290.31 C 370.54 278.25 382.51 265.88 394.74 253.77 C 386.50 249.89 377.90 248.91 369.02 251.15 C 354.61 254.66 341.32 264.47 329.80 273.45 C 340.09 263.64 352.41 253.53 366.23 249.43 C 376.19 246.34 386.96 246.67 396.12 251.93 C 405.76 257.41 413.68 266.90 420.61 275.42 C 431.85 289.89 442.44 304.87 453.38 319.58 C 462.34 331.53 471.32 344.58 482.38 354.63 C 488.83 360.58 497.13 365.22 505.95 366.15 C 517.55 367.44 529.75 362.07 537.57 353.59 C 558.75 332.44 579.70 311.05 600.82 289.84 C 572.87 261.51 544.49 233.61 516.82 205.01 Z M 985.49 223.76 C 971.56 225.68 959.26 234.76 953.76 247.76 C 949.92 256.85 949.30 267.36 951.36 276.97 C 953.73 288.29 961.12 298.33 971.38 303.75 C 985.97 311.23 1005.68 310.14 1018.67 299.79 C 1030.83 290.10 1035.73 274.08 1033.72 258.97 C 1032.55 248.92 1027.90 239.43 1020.18 232.81 C 1010.89 224.61 997.50 222.06 985.49 223.76 Z M 633.39 224.43 C 636.64 228.21 640.78 230.39 641.10 235.92 C 641.42 253.25 641.12 270.66 641.24 288.00 C 641.21 291.12 641.42 294.52 640.63 297.55 C 639.72 300.98 636.21 303.28 634.09 306.15 C 642.16 306.19 650.25 306.25 658.31 306.13 C 655.54 302.40 651.54 300.93 651.33 295.77 C 651.04 278.98 651.27 262.11 651.17 245.30 C 666.78 265.83 682.66 286.18 698.74 306.34 C 701.56 306.31 704.38 306.31 707.21 306.32 C 707.21 283.53 707.20 260.75 707.24 237.96 C 707.30 235.19 707.43 232.46 709.09 230.11 C 710.55 228.09 712.53 226.40 714.24 224.58 C 706.43 224.16 698.47 224.23 690.65 224.48 C 692.59 226.70 695.23 228.77 696.55 231.41 C 697.79 234.60 697.32 238.62 697.41 242.00 C 697.49 254.38 697.29 266.76 697.48 279.14 C 683.58 260.76 669.41 242.58 655.36 224.31 C 648.04 224.39 640.71 224.19 633.39 224.43 Z M 726.92 306.17 C 746.73 306.29 766.55 306.15 786.36 306.22 C 787.07 299.39 787.72 292.55 788.20 285.69 C 785.23 286.62 784.11 288.97 782.04 291.04 C 778.63 294.75 774.10 297.27 769.03 297.64 C 762.78 298.05 756.49 297.66 750.23 297.84 C 750.36 287.78 750.27 277.71 750.24 267.64 C 755.76 267.90 761.57 267.11 766.99 268.16 C 771.64 269.23 772.70 273.34 776.66 275.24 C 776.89 267.72 776.83 260.14 776.66 252.62 C 772.52 255.10 770.38 258.90 765.45 259.52 C 760.41 259.97 755.29 259.62 750.22 259.78 C 750.28 250.74 750.31 241.70 750.21 232.66 C 756.15 232.73 762.10 232.59 768.04 232.80 C 772.57 232.94 776.89 234.62 779.76 238.22 C 782.00 240.50 782.48 243.54 786.23 243.43 C 785.78 237.10 785.59 230.76 785.47 224.42 C 765.99 224.61 746.42 224.20 726.96 224.57 C 728.42 226.95 730.77 228.59 732.09 231.00 C 733.12 233.04 733.08 235.76 733.14 238.00 C 733.12 256.33 733.14 274.67 733.15 293.00 C 733.08 295.23 733.05 297.87 732.02 299.90 C 730.57 302.15 728.56 304.04 726.92 306.17 Z M 798.32 224.63 C 800.59 227.72 803.48 230.20 805.56 233.45 C 812.66 244.31 819.56 255.31 826.64 266.18 C 820.28 275.58 813.60 284.77 807.07 294.05 C 804.33 298.02 801.08 301.49 797.49 304.71 C 797.43 305.22 797.38 305.74 797.33 306.26 C 805.29 306.12 813.25 306.29 821.21 306.14 C 819.62 303.97 816.61 301.79 816.04 299.09 C 820.91 290.68 827.15 282.94 832.35 274.70 C 836.74 281.32 840.78 288.17 845.10 294.84 C 846.11 296.46 847.28 298.18 847.88 300.00 C 847.15 302.33 844.79 304.22 843.35 306.17 C 853.53 306.19 863.73 306.26 873.91 306.13 C 871.51 302.82 868.18 300.48 865.93 297.03 C 858.97 286.91 852.58 276.38 845.81 266.13 C 844.82 264.26 843.14 262.89 844.85 260.82 C 850.80 252.14 856.89 243.56 862.83 234.87 C 865.41 230.98 868.86 228.11 871.97 224.69 C 863.95 224.42 855.88 224.46 847.86 224.68 C 849.46 226.76 851.06 228.83 852.58 230.97 C 848.54 239.15 842.62 246.43 837.72 254.12 C 832.90 246.39 827.89 238.74 823.59 230.71 C 825.01 228.59 826.58 226.59 828.16 224.60 C 818.23 224.47 808.25 224.45 798.32 224.63 Z M 882.49 225.34 C 884.08 227.11 885.96 228.78 887.30 230.75 C 888.59 232.66 888.55 234.76 888.61 236.96 C 888.62 254.31 888.62 271.65 888.64 289.00 C 888.58 292.24 888.98 295.82 888.10 298.96 C 887.04 301.69 884.35 303.75 882.70 306.17 C 892.69 306.27 902.70 306.35 912.69 306.11 C 910.98 304.21 909.03 302.53 907.40 300.57 C 906.08 299.04 906.21 296.90 906.11 295.01 C 906.13 286.55 906.15 278.09 906.10 269.63 C 911.58 269.80 917.44 269.06 922.81 270.20 C 927.54 271.51 928.51 276.09 932.75 277.79 C 932.72 269.83 933.15 261.78 932.50 253.84 C 928.82 256.66 926.32 260.50 921.55 261.38 C 916.48 262.06 911.23 261.59 906.11 261.77 C 906.14 252.29 906.15 242.82 906.12 233.34 C 912.66 233.49 919.31 233.01 925.82 233.67 C 931.82 234.57 935.15 238.69 938.25 243.48 C 939.14 243.44 940.04 243.40 940.93 243.36 C 940.90 237.20 940.71 231.03 940.67 224.87 C 925.11 224.91 909.56 224.87 894.00 224.88 C 890.15 224.81 886.32 224.87 882.49 225.34 Z M 1238.57 282.66 C 1237.42 282.90 1236.27 283.13 1235.12 283.36 C 1235.16 289.61 1235.15 295.86 1235.16 302.11 C 1246.14 308.05 1259.85 310.36 1271.99 307.04 C 1278.49 305.25 1284.38 301.80 1288.05 296.00 C 1293.36 287.65 1292.13 275.94 1285.12 268.92 C 1277.10 260.37 1263.57 257.98 1254.57 251.38 C 1251.47 249.18 1249.46 245.79 1249.85 241.90 C 1250.23 237.99 1253.12 234.84 1256.77 233.62 C 1261.89 231.91 1267.89 232.65 1272.38 235.67 C 1276.85 238.87 1279.37 243.47 1281.85 248.23 C 1283.19 247.96 1284.53 247.70 1285.88 247.43 C 1285.83 241.59 1285.85 235.75 1285.84 229.91 C 1276.07 225.57 1265.37 223.77 1254.79 225.85 C 1248.83 227.06 1243.32 229.66 1239.36 234.39 C 1234.48 240.02 1233.25 248.23 1235.87 255.14 C 1237.73 259.68 1241.08 263.13 1245.09 265.86 C 1252.28 270.85 1260.83 273.29 1267.96 278.05 C 1270.37 279.76 1272.93 282.10 1273.90 284.97 C 1275.75 290.32 1273.30 296.59 1268.13 299.03 C 1261.28 302.30 1252.28 300.39 1246.93 295.08 C 1243.02 291.56 1240.99 287.21 1238.57 282.66 Z M 1039.85 226.51 C 1041.50 228.34 1043.53 230.09 1044.82 232.20 C 1045.83 233.86 1045.79 236.11 1045.87 237.99 C 1045.88 256.66 1045.86 275.34 1045.88 294.00 C 1045.82 295.91 1045.92 298.19 1045.13 299.96 C 1043.85 302.34 1041.61 304.32 1039.85 306.36 C 1049.58 306.52 1059.42 306.49 1069.15 306.30 C 1067.42 304.25 1065.24 302.47 1063.75 300.23 C 1062.94 298.35 1062.92 296.02 1062.87 294.00 C 1062.89 286.73 1062.93 279.46 1062.87 272.18 C 1064.90 272.17 1066.94 272.16 1068.97 272.16 C 1072.68 278.43 1076.38 284.70 1080.04 291.00 C 1082.48 294.99 1084.94 299.47 1088.27 302.78 C 1090.89 305.41 1094.37 306.45 1098.00 306.62 C 1103.02 306.78 1108.17 306.72 1113.18 306.37 C 1111.79 304.88 1110.26 303.57 1108.66 302.33 C 1104.60 299.25 1101.48 294.57 1098.60 290.42 C 1094.03 283.44 1089.38 276.51 1084.84 269.51 C 1090.57 267.30 1095.70 264.37 1099.01 259.02 C 1104.60 250.08 1102.74 237.26 1093.81 231.20 C 1084.97 225.28 1074.11 226.20 1064.00 226.14 C 1055.97 226.37 1047.85 225.75 1039.85 226.51 Z M 1114.18 246.64 L 1117.38 246.13 C 1120.30 242.96 1121.82 239.20 1125.62 236.69 C 1130.19 233.61 1135.62 234.24 1140.84 234.10 C 1140.87 252.73 1140.82 271.37 1140.86 290.00 C 1140.81 293.07 1141.17 296.49 1140.29 299.45 C 1139.10 302.06 1136.55 304.16 1134.73 306.33 C 1144.74 306.52 1154.88 306.59 1164.90 306.33 C 1163.17 304.35 1161.09 302.62 1159.55 300.50 C 1157.95 297.88 1158.46 293.95 1158.37 291.00 C 1158.30 272.05 1158.44 253.10 1158.30 234.15 C 1162.94 234.28 1168.75 233.64 1172.83 236.16 C 1176.86 238.47 1179.24 242.64 1181.77 246.38 C 1182.82 246.37 1183.88 246.36 1184.94 246.35 C 1184.80 239.61 1184.57 232.87 1184.27 226.13 C 1161.36 226.30 1138.26 226.03 1115.39 226.27 C 1114.62 233.01 1114.70 239.86 1114.18 246.64 Z M 1197.70 226.27 C 1201.98 229.64 1206.06 233.23 1210.08 236.90 C 1213.41 239.95 1217.05 242.82 1219.86 246.26 C 1219.82 242.39 1219.60 237.76 1221.13 234.14 C 1222.43 230.94 1224.79 228.73 1227.11 226.27 C 1217.31 226.27 1207.50 226.32 1197.70 226.27 Z M 1196.49 227.56 C 1196.56 249.70 1196.47 271.85 1196.48 294.00 C 1196.40 296.42 1196.48 298.93 1195.00 300.98 C 1193.61 302.89 1191.88 304.57 1190.33 306.34 C 1200.25 306.53 1210.31 306.57 1220.23 306.30 C 1218.43 304.31 1216.23 302.45 1214.81 300.17 C 1213.66 298.13 1213.78 295.28 1213.74 293.00 C 1213.83 277.66 1213.73 262.33 1213.78 246.99 C 1213.60 244.91 1214.23 243.11 1212.40 241.64 C 1207.18 236.87 1201.83 232.19 1196.49 227.56 Z M 508.77 317.32 C 516.86 295.00 515.01 273.12 515.23 249.88 C 510.03 258.06 502.77 264.70 497.90 272.98 C 493.92 279.80 493.07 287.25 492.87 295.02 C 492.97 297.38 492.91 299.56 494.53 301.46 C 498.90 307.05 503.58 312.47 508.77 317.32 Z M 398.41 340.16 C 404.44 328.70 414.66 319.89 419.20 308.22 C 422.19 300.62 422.14 293.04 421.71 285.01 C 421.48 282.47 421.58 280.20 419.85 278.15 C 415.49 272.48 410.76 266.83 405.42 262.05 C 400.37 273.92 398.84 286.22 398.46 299.01 C 398.11 312.72 398.41 326.45 398.41 340.16 Z M 716.60 335.22 C 716.58 344.10 716.65 352.98 716.59 361.86 C 717.89 361.88 719.18 361.89 720.48 361.91 C 720.45 358.59 720.45 355.27 720.46 351.95 C 724.43 351.82 728.30 352.26 731.66 349.72 C 736.11 346.57 735.86 338.49 730.58 336.31 C 726.44 334.53 721.04 335.45 716.60 335.22 Z M 744.10 361.89 C 745.37 361.88 746.64 361.88 747.91 361.87 C 747.89 358.30 747.89 354.73 747.88 351.16 C 749.51 351.15 751.14 351.15 752.78 351.16 C 755.09 354.62 757.12 358.30 759.63 361.62 C 761.18 361.95 762.85 361.86 764.43 361.95 C 761.67 358.15 759.04 354.25 756.13 350.57 C 758.31 349.16 760.71 348.22 761.61 345.57 C 763.01 341.65 761.50 337.27 757.35 335.95 C 753.18 334.84 748.50 335.21 744.22 335.33 C 744.00 344.17 744.20 353.04 744.10 361.89 Z M 772.47 361.88 C 777.85 361.87 783.23 361.87 788.61 361.88 C 788.60 360.84 788.58 359.80 788.57 358.76 C 784.48 358.78 780.38 358.77 776.29 358.78 C 776.33 355.71 776.34 352.64 776.33 349.57 C 779.97 349.59 783.61 349.58 787.25 349.60 L 787.27 346.57 C 783.61 346.61 779.96 346.64 776.31 346.69 C 776.32 343.91 776.32 341.12 776.30 338.34 C 780.38 338.32 784.47 338.32 788.55 338.35 C 788.56 337.30 788.56 336.26 788.57 335.21 C 783.25 335.27 777.90 335.08 772.59 335.28 C 772.31 344.13 772.61 353.02 772.47 361.88 Z M 816.76 361.13 C 816.81 360.00 816.85 358.87 816.90 357.73 C 812.84 358.99 809.15 360.23 805.11 358.01 C 799.33 354.50 799.14 344.36 804.03 340.04 C 807.88 336.99 811.94 337.87 816.23 339.33 C 816.69 338.39 817.15 337.45 817.61 336.51 C 812.66 334.58 807.50 333.97 802.73 336.75 C 794.63 341.65 794.42 355.49 802.49 360.50 C 807.15 363.29 811.80 362.44 816.76 361.13 Z M 826.17 362.12 C 827.40 362.11 828.64 362.11 829.87 362.10 C 830.00 353.13 829.70 344.14 830.13 335.19 C 828.83 335.19 827.53 335.23 826.23 335.31 C 826.02 344.23 826.15 353.19 826.17 362.12 Z M 853.69 354.91 C 852.91 356.09 852.27 358.11 850.84 358.62 C 847.19 360.22 843.06 358.61 839.58 357.31 C 839.58 358.52 839.58 359.74 839.58 360.95 C 844.39 362.23 848.99 363.49 853.59 360.74 C 856.94 358.82 857.87 354.35 856.03 351.09 C 853.52 347.59 847.95 346.85 844.71 344.36 C 842.41 342.54 843.53 339.13 846.14 338.34 C 849.39 337.26 852.17 338.46 855.26 339.34 C 855.48 338.27 855.70 337.19 855.92 336.11 C 851.27 334.91 846.93 333.79 842.57 336.59 C 839.12 338.95 838.75 344.31 841.98 347.01 C 846.07 350.27 850.92 349.85 853.69 354.91 Z M 866.23 361.92 C 867.52 361.90 868.80 361.88 870.08 361.86 C 870.12 352.94 870.05 344.03 870.10 335.11 C 868.86 335.14 867.62 335.21 866.39 335.31 C 866.08 344.16 866.42 353.06 866.23 361.92 Z M 887.52 335.69 C 878.81 338.96 877.35 351.49 882.81 358.15 C 887.30 363.70 896.76 363.69 901.54 358.54 C 906.26 353.65 906.54 344.86 902.52 339.47 C 899.05 334.87 892.76 333.85 887.52 335.69 Z M 914.68 335.21 C 914.61 344.10 914.64 353.00 914.57 361.89 C 915.79 361.87 917.00 361.86 918.22 361.84 C 918.06 354.47 918.47 347.03 917.81 339.70 C 922.36 347.25 927.56 354.35 932.30 361.78 C 933.62 361.81 934.95 361.85 936.27 361.88 C 936.32 352.98 936.31 344.09 936.30 335.19 C 935.10 335.19 933.89 335.19 932.69 335.18 C 932.62 342.33 932.54 349.46 932.81 356.60 C 928.54 349.24 923.48 342.33 918.77 335.24 C 917.41 335.23 916.04 335.22 914.68 335.21 Z M 963.63 346.99 C 960.72 349.17 957.85 350.87 958.06 355.01 C 957.92 359.87 962.72 362.41 967.03 362.30 C 970.18 362.32 972.42 360.78 974.96 359.18 C 975.92 360.02 976.86 360.99 977.96 361.66 C 979.52 361.84 981.11 361.83 982.68 361.87 C 980.87 360.09 979.06 358.31 977.25 356.54 C 978.87 353.85 980.02 351.22 980.92 348.22 C 979.82 348.19 978.72 348.17 977.63 348.14 C 976.87 350.30 976.07 352.45 975.22 354.58 C 972.97 352.16 970.71 349.76 968.41 347.40 C 970.97 345.61 973.47 344.42 974.31 341.14 C 974.98 338.19 972.81 335.65 970.02 335.06 C 966.57 334.18 961.34 335.82 961.10 340.00 C 960.69 342.88 962.07 344.76 963.63 346.99 Z M 997.30 361.92 C 998.58 361.88 999.86 361.84 1001.14 361.80 C 1001.13 352.90 1001.14 344.00 1001.15 335.10 C 999.90 335.14 998.65 335.21 997.41 335.31 C 997.20 344.17 997.42 353.05 997.30 361.92 Z M 1012.23 361.87 C 1013.41 361.86 1014.59 361.86 1015.77 361.85 C 1015.71 354.51 1015.80 347.17 1015.53 339.82 C 1020.05 347.35 1025.09 354.52 1029.93 361.84 C 1031.22 361.84 1032.52 361.85 1033.82 361.86 C 1033.80 352.98 1033.81 344.10 1033.80 335.22 C 1032.62 335.21 1031.43 335.19 1030.24 335.17 C 1030.28 342.33 1030.17 349.51 1030.41 356.66 C 1026.07 349.32 1021.08 342.36 1016.43 335.22 C 1015.07 335.22 1013.70 335.21 1012.35 335.30 C 1012.15 344.14 1012.37 353.02 1012.23 361.87 Z M 1041.40 335.18 C 1041.40 336.24 1041.41 337.30 1041.41 338.36 C 1044.21 338.33 1047.02 338.32 1049.82 338.32 C 1049.83 346.16 1049.83 354.01 1049.83 361.86 C 1051.14 361.87 1052.46 361.88 1053.77 361.89 C 1053.67 354.04 1053.76 346.19 1053.72 338.35 C 1056.62 338.33 1059.53 338.33 1062.44 338.36 C 1062.44 337.31 1062.43 336.25 1062.43 335.20 C 1055.42 335.20 1048.41 335.23 1041.40 335.18 Z M 1069.68 335.19 C 1069.71 344.08 1069.74 352.97 1069.63 361.86 C 1074.98 361.82 1080.33 361.82 1085.67 361.80 C 1085.67 360.77 1085.66 359.74 1085.65 358.71 C 1081.59 358.75 1077.53 358.76 1073.47 358.75 C 1073.46 355.70 1073.45 352.65 1073.43 349.59 C 1077.11 349.61 1080.80 349.61 1084.48 349.62 L 1084.43 346.56 C 1080.78 346.61 1077.13 346.62 1073.48 346.64 C 1073.50 343.85 1073.50 341.06 1073.48 338.27 C 1077.52 338.31 1081.57 338.30 1085.61 338.32 C 1085.62 337.27 1085.63 336.22 1085.64 335.17 C 1080.32 335.19 1075.00 335.21 1069.68 335.19 Z M 1115.49 360.54 C 1115.47 356.32 1115.48 352.10 1115.47 347.89 C 1112.38 347.89 1109.09 347.68 1106.03 348.24 L 1105.58 350.72 C 1107.67 350.76 1109.77 350.78 1111.86 350.79 C 1111.85 353.44 1111.85 356.09 1111.84 358.73 C 1107.10 359.44 1102.55 359.80 1099.24 355.71 C 1095.66 350.77 1096.66 341.36 1102.84 338.81 C 1106.80 337.11 1110.28 338.25 1114.19 339.29 L 1114.85 336.39 C 1109.48 334.00 1101.84 334.10 1097.42 338.41 C 1091.43 343.93 1091.82 355.66 1098.88 360.16 C 1104.21 363.38 1109.93 362.60 1115.49 360.54 Z M 1125.40 361.85 C 1126.73 361.84 1128.07 361.83 1129.40 361.82 C 1129.38 358.13 1129.32 354.44 1129.31 350.75 C 1130.85 350.81 1132.38 350.94 1133.89 351.16 C 1136.62 354.39 1138.68 358.25 1141.07 361.75 C 1142.60 361.77 1144.12 361.80 1145.65 361.82 C 1142.96 357.98 1140.37 354.08 1137.57 350.32 C 1139.56 349.02 1141.70 348.15 1142.70 345.84 C 1144.38 342.05 1143.05 337.34 1138.89 335.97 C 1134.72 334.74 1129.89 335.22 1125.57 335.30 C 1125.36 344.14 1125.61 353.00 1125.40 361.85 Z M 1153.15 361.84 C 1154.38 361.85 1155.61 361.85 1156.84 361.85 C 1156.80 352.93 1156.86 344.01 1156.81 335.08 C 1155.61 335.13 1154.42 335.20 1153.23 335.30 C 1153.03 344.14 1153.22 353.00 1153.15 361.84 Z M 1163.87 335.23 C 1163.88 336.27 1163.89 337.30 1163.89 338.34 C 1166.72 338.34 1169.54 338.33 1172.36 338.30 C 1172.30 346.15 1172.36 354.01 1172.28 361.86 C 1173.60 361.84 1174.92 361.83 1176.24 361.82 C 1176.19 353.99 1176.22 346.17 1176.21 338.35 C 1179.00 338.35 1181.80 338.34 1184.59 338.35 C 1184.62 337.30 1184.64 336.24 1184.66 335.18 C 1177.73 335.24 1170.80 335.19 1163.87 335.23 Z M 1188.52 335.17 C 1191.12 339.67 1193.60 344.24 1196.26 348.71 C 1198.82 352.16 1197.38 357.72 1197.65 361.85 C 1198.96 361.85 1200.28 361.86 1201.60 361.86 C 1201.82 357.80 1200.55 352.39 1202.90 348.90 C 1205.55 344.34 1208.20 339.78 1210.83 335.21 C 1209.44 335.20 1208.05 335.19 1206.66 335.17 C 1204.43 339.62 1201.89 343.88 1199.73 348.36 C 1197.55 343.92 1195.10 339.64 1192.82 335.25 C 1191.38 335.23 1189.95 335.20 1188.52 335.17 Z" id="p0" />
<path d="M 455.96 143.95 C 469.79 157.83 483.52 171.74 497.40 185.58 C 502.60 190.92 508.44 196.22 512.82 202.21 C 516.85 207.99 520.09 214.27 522.07 221.06 C 525.21 231.13 525.57 241.52 525.66 252.00 C 525.69 261.00 525.78 270.01 525.67 279.01 C 525.41 294.31 522.82 309.47 516.72 323.57 C 514.67 322.10 512.64 320.61 510.64 319.08 C 519.62 295.67 517.53 272.52 517.77 248.00 C 517.58 243.82 519.51 240.75 520.44 236.81 C 521.36 233.10 521.54 229.37 521.67 225.57 C 520.93 231.37 519.95 236.92 517.13 242.13 C 511.73 253.38 502.50 260.87 496.21 271.22 C 491.45 279.07 489.90 288.10 490.61 297.19 C 488.01 293.38 485.22 289.71 482.50 286.00 C 482.59 278.69 484.39 271.49 488.20 265.21 C 493.58 256.24 501.49 248.97 506.79 239.79 C 511.78 231.46 513.96 221.54 511.99 211.96 C 510.55 204.88 506.60 198.47 502.00 193.01 C 497.40 187.61 492.54 182.39 487.28 177.64 C 492.24 183.71 497.29 189.74 502.06 195.97 C 506.67 202.13 509.80 209.22 510.19 216.98 C 510.56 224.34 508.60 231.57 504.88 237.90 C 497.02 251.69 483.02 262.45 476.04 276.62 C 470.22 268.41 464.30 260.26 458.25 252.22 C 466.33 243.97 473.88 236.27 478.67 225.53 C 484.01 214.01 484.71 201.13 481.95 188.83 C 479.25 175.94 472.99 164.30 464.30 154.46 C 470.72 164.07 476.05 174.20 478.77 185.51 C 481.38 195.52 481.50 205.62 480.01 215.82 C 472.08 207.78 464.20 199.69 456.32 191.61 C 447.33 200.87 438.07 209.89 428.99 219.07 C 419.62 212.45 408.45 208.81 396.96 211.01 C 392.24 211.86 388.08 214.01 384.18 216.74 C 383.78 216.67 383.37 216.61 382.96 216.55 C 389.20 210.94 394.92 204.77 400.91 198.91 C 419.26 180.60 437.46 162.11 455.96 143.95 Z" id="p1" />
<path d="M 516.82 205.01 C 544.49 233.61 572.87 261.51 600.82 289.84 C 579.70 311.05 558.75 332.44 537.57 353.59 C 529.75 362.07 517.55 367.44 505.95 366.15 C 497.13 365.22 488.83 360.58 482.38 354.63 C 471.32 344.58 462.34 331.53 453.38 319.58 C 442.44 304.87 431.85 289.89 420.61 275.42 C 413.68 266.90 405.76 257.41 396.12 251.93 C 386.96 246.67 376.19 246.34 366.23 249.43 C 352.41 253.53 340.09 263.64 329.80 273.45 C 341.32 264.47 354.61 254.66 369.02 251.15 C 377.90 248.91 386.50 249.89 394.74 253.77 C 382.51 265.88 370.54 278.25 358.26 290.31 C 367.30 299.49 376.42 308.58 385.36 317.85 C 385.37 331.92 384.71 345.22 388.22 358.97 C 389.85 365.51 392.83 371.53 396.59 377.09 C 397.53 373.56 395.03 371.44 393.86 368.19 C 386.70 352.09 388.10 331.39 387.76 314.00 C 387.40 293.52 388.37 274.11 397.37 255.30 C 399.47 256.89 401.55 258.51 403.61 260.14 C 398.19 272.48 396.19 285.61 395.88 298.99 C 395.67 313.99 395.63 329.06 396.29 344.04 C 395.66 349.12 394.10 353.83 394.39 359.05 C 395.08 354.49 395.82 350.04 397.81 345.83 C 402.73 334.76 412.72 325.23 418.71 314.71 C 424.32 304.95 426.01 293.14 423.53 282.17 C 426.21 285.61 428.86 289.06 431.33 292.66 C 431.96 293.68 432.85 294.72 432.86 295.96 C 433.23 305.34 430.69 314.84 425.70 322.79 C 419.76 332.43 411.22 340.44 406.65 350.76 C 402.19 360.45 401.53 371.66 406.67 381.22 C 411.86 390.91 420.69 398.93 428.32 406.74 C 422.38 398.72 415.19 391.41 410.00 382.89 C 405.12 374.84 404.33 365.10 407.25 356.20 C 410.52 345.84 418.82 336.93 425.39 328.42 C 430.73 321.49 437.21 314.42 440.73 306.40 C 446.55 314.62 452.61 322.67 458.61 330.75 C 452.17 337.47 445.20 344.36 440.25 352.26 C 433.28 363.02 430.29 376.32 431.86 389.02 C 433.33 403.54 440.50 417.52 450.25 428.22 C 443.98 419.01 438.61 409.10 435.96 398.19 C 433.41 388.45 433.46 378.56 435.00 368.67 C 442.11 375.62 449.06 382.74 456.02 389.85 C 465.71 380.09 475.51 370.42 485.13 360.58 C 493.31 366.40 502.87 369.79 513.01 368.66 C 520.03 367.96 525.86 364.60 531.38 360.40 C 506.22 385.84 480.99 411.24 455.78 436.64 C 440.13 420.82 424.34 405.13 408.70 389.30 C 405.30 385.95 402.28 382.41 399.31 378.68 C 397.56 377.71 395.95 376.95 394.57 375.41 C 366.55 346.73 338.05 318.51 309.93 289.92 C 331.93 267.93 353.89 245.88 375.94 223.93 C 377.33 222.58 378.72 221.11 380.30 219.99 C 386.86 216.28 393.32 213.13 400.99 212.75 C 413.31 212.14 424.24 217.74 433.09 225.89 C 443.67 235.85 452.45 248.30 461.06 259.96 C 471.98 274.69 482.43 289.79 493.82 304.15 C 499.97 311.67 506.96 319.62 515.10 325.02 C 523.60 330.56 534.03 331.77 543.80 329.38 C 558.51 326.16 571.86 315.34 582.19 304.80 C 572.06 313.05 560.36 321.87 547.77 325.79 C 538.49 328.81 528.51 328.74 519.47 324.93 C 530.81 313.15 542.46 301.67 553.93 290.00 C 545.32 281.37 536.70 272.73 528.20 264.00 C 528.19 243.45 529.24 222.69 516.82 205.01 Z M 356.96 247.91 C 366.87 240.86 379.78 238.40 391.53 241.67 C 400.26 244.05 407.01 249.43 413.36 255.64 C 422.76 265.17 430.81 276.44 438.82 287.15 C 447.41 298.91 455.96 310.71 464.61 322.42 C 469.91 329.69 475.50 336.80 481.58 343.43 C 488.41 350.62 495.86 356.98 505.84 359.07 C 515.12 361.18 524.34 358.38 531.85 352.82 C 540.80 346.17 548.31 337.41 556.63 329.93 C 551.30 333.73 545.54 336.61 539.02 337.60 C 528.61 339.41 518.02 336.58 509.43 330.57 C 497.64 322.53 488.32 309.53 479.75 298.24 C 467.94 282.09 456.39 265.67 444.27 249.72 C 437.21 240.63 429.27 230.74 419.41 224.60 C 412.52 220.15 404.18 217.85 396.00 219.11 C 389.07 219.98 382.66 223.94 377.41 228.38 C 370.20 234.43 363.85 241.46 356.96 247.91 Z" id="p2" />
<path d="M 396.00 219.11 C 404.18 217.85 412.52 220.15 419.41 224.60 C 429.27 230.74 437.21 240.63 444.27 249.72 C 456.39 265.67 467.94 282.09 479.75 298.24 C 488.32 309.53 497.64 322.53 509.43 330.57 C 518.02 336.58 528.61 339.41 539.02 337.60 C 545.54 336.61 551.30 333.73 556.63 329.93 C 548.31 337.41 540.80 346.17 531.85 352.82 C 524.34 358.38 515.12 361.18 505.84 359.07 C 495.86 356.98 488.41 350.62 481.58 343.43 C 475.50 336.80 469.91 329.69 464.61 322.42 C 455.96 310.71 447.41 298.91 438.82 287.15 C 430.81 276.44 422.76 265.17 413.36 255.64 C 407.01 249.43 400.26 244.05 391.53 241.67 C 379.78 238.40 366.87 240.86 356.96 247.91 C 363.85 241.46 370.20 234.43 377.41 228.38 C 382.66 223.94 389.07 219.98 396.00 219.11 Z M 366.18 241.13 C 373.88 238.29 381.62 236.76 389.79 238.64 C 403.54 241.48 413.45 251.47 422.31 261.67 C 433.98 275.46 444.25 290.50 454.99 305.01 C 463.49 316.70 471.81 328.73 481.39 339.58 C 487.81 346.78 495.37 353.76 504.94 356.25 C 512.72 358.51 521.00 356.99 527.85 352.84 C 534.70 348.68 540.72 342.68 546.70 337.38 C 538.88 340.94 530.19 341.62 521.93 339.28 C 514.60 337.33 508.19 333.41 502.52 328.45 C 491.76 319.16 482.99 306.85 474.58 295.45 C 462.74 279.30 451.33 262.78 439.04 246.97 C 432.31 238.57 424.36 229.35 414.50 224.62 C 405.99 220.39 395.75 219.97 387.19 224.29 C 379.02 228.37 372.98 235.10 366.18 241.13 Z" id="p3" />
<path d="M 414.50 224.62 C 424.36 229.35 432.31 238.57 439.04 246.97 C 451.33 262.78 462.74 279.30 474.58 295.45 C 482.99 306.85 491.76 319.16 502.52 328.45 C 508.19 333.41 514.60 337.33 521.93 339.28 C 530.19 341.62 538.88 340.94 546.70 337.38 C 540.72 342.68 534.70 348.68 527.85 352.84 C 521.00 356.99 512.72 358.51 504.94 356.25 C 495.37 353.76 487.81 346.78 481.39 339.58 C 471.81 328.73 463.49 316.70 454.99 305.01 C 444.25 290.50 433.98 275.46 422.31 261.67 C 413.45 251.47 403.54 241.48 389.79 238.64 C 381.62 236.76 373.88 238.29 366.18 241.13 C 372.98 235.10 379.02 228.37 387.19 224.29 C 395.75 219.97 405.99 220.39 414.50 224.62 Z" id="p4" />
<path d="M 985.49 223.76 C 997.50 222.06 1010.89 224.61 1020.18 232.81 C 1027.90 239.43 1032.55 248.92 1033.72 258.97 C 1035.73 274.08 1030.83 290.10 1018.67 299.79 C 1005.68 310.14 985.97 311.23 971.38 303.75 C 961.12 298.33 953.73 288.29 951.36 276.97 C 949.30 267.36 949.92 256.85 953.76 247.76 C 959.26 234.76 971.56 225.68 985.49 223.76 Z M 985.47 232.60 C 979.76 234.81 975.58 239.69 973.21 245.22 C 969.61 253.43 969.11 263.18 969.70 272.01 C 970.41 280.49 972.97 289.60 979.50 295.48 C 986.28 301.57 997.06 301.89 1004.16 296.17 C 1010.83 290.80 1013.50 282.18 1014.50 273.99 C 1015.25 265.40 1015.10 255.96 1012.19 247.76 C 1010.45 242.70 1007.50 238.00 1003.11 234.85 C 998.17 231.23 991.17 230.58 985.47 232.60 Z" id="p5" />
<path d="M 633.39 224.43 C 640.71 224.19 648.04 224.39 655.36 224.31 C 669.41 242.58 683.58 260.76 697.48 279.14 C 697.29 266.76 697.49 254.38 697.41 242.00 C 697.32 238.62 697.79 234.60 696.55 231.41 C 695.23 228.77 692.59 226.70 690.65 224.48 C 698.47 224.23 706.43 224.16 714.24 224.58 C 712.53 226.40 710.55 228.09 709.09 230.11 C 707.43 232.46 707.30 235.19 707.24 237.96 C 707.20 260.75 707.21 283.53 707.21 306.32 C 704.38 306.31 701.56 306.31 698.74 306.34 C 682.66 286.18 666.78 265.83 651.17 245.30 C 651.27 262.11 651.04 278.98 651.33 295.77 C 651.54 300.93 655.54 302.40 658.31 306.13 C 650.25 306.25 642.16 306.19 634.09 306.15 C 636.21 303.28 639.72 300.98 640.63 297.55 C 641.42 294.52 641.21 291.12 641.24 288.00 C 641.12 270.66 641.42 253.25 641.10 235.92 C 640.78 230.39 636.64 228.21 633.39 224.43 Z" id="p6" />
<path d="M 726.96 224.57 C 746.42 224.20 765.99 224.61 785.47 224.42 C 785.59 230.76 785.78 237.10 786.23 243.43 C 782.48 243.54 782.00 240.50 779.76 238.22 C 776.89 234.62 772.57 232.94 768.04 232.80 C 762.10 232.59 756.15 232.73 750.21 232.66 C 750.31 241.70 750.28 250.74 750.22 259.78 C 755.29 259.62 760.41 259.97 765.45 259.52 C 770.38 258.90 772.52 255.10 776.66 252.62 C 776.83 260.14 776.89 267.72 776.66 275.24 C 772.70 273.34 771.64 269.23 766.99 268.16 C 761.57 267.11 755.76 267.90 750.24 267.64 C 750.27 277.71 750.36 287.78 750.23 297.84 C 756.49 297.66 762.78 298.05 769.03 297.64 C 774.10 297.27 778.63 294.75 782.04 291.04 C 784.11 288.97 785.23 286.62 788.20 285.69 C 787.72 292.55 787.07 299.39 786.36 306.22 C 766.55 306.15 746.73 306.29 726.92 306.17 C 728.56 304.04 730.57 302.15 732.02 299.90 C 733.05 297.87 733.08 295.23 733.15 293.00 C 733.14 274.67 733.12 256.33 733.14 238.00 C 733.08 235.76 733.12 233.04 732.09 231.00 C 730.77 228.59 728.42 226.95 726.96 224.57 Z" id="p7" />
<path d="M 798.32 224.63 C 808.25 224.45 818.23 224.47 828.16 224.60 C 826.58 226.59 825.01 228.59 823.59 230.71 C 827.89 238.74 832.90 246.39 837.72 254.12 C 842.62 246.43 848.54 239.15 852.58 230.97 C 851.06 228.83 849.46 226.76 847.86 224.68 C 855.88 224.46 863.95 224.42 871.97 224.69 C 868.86 228.11 865.41 230.98 862.83 234.87 C 856.89 243.56 850.80 252.14 844.85 260.82 C 843.14 262.89 844.82 264.26 845.81 266.13 C 852.58 276.38 858.97 286.91 865.93 297.03 C 868.18 300.48 871.51 302.82 873.91 306.13 C 863.73 306.26 853.53 306.19 843.35 306.17 C 844.79 304.22 847.15 302.33 847.88 300.00 C 847.28 298.18 846.11 296.46 845.10 294.84 C 840.78 288.17 836.74 281.32 832.35 274.70 C 827.15 282.94 820.91 290.68 816.04 299.09 C 816.61 301.79 819.62 303.97 821.21 306.14 C 813.25 306.29 805.29 306.12 797.33 306.26 C 797.38 305.74 797.43 305.22 797.49 304.71 C 801.08 301.49 804.33 298.02 807.07 294.05 C 813.60 284.77 820.28 275.58 826.64 266.18 C 819.56 255.31 812.66 244.31 805.56 233.45 C 803.48 230.20 800.59 227.72 798.32 224.63 Z" id="p8" />
<path d="M 882.49 225.34 C 886.32 224.87 890.15 224.81 894.00 224.88 C 909.56 224.87 925.11 224.91 940.67 224.87 C 940.71 231.03 940.90 237.20 940.93 243.36 C 940.04 243.40 939.14 243.44 938.25 243.48 C 935.15 238.69 931.82 234.57 925.82 233.67 C 919.31 233.01 912.66 233.49 906.12 233.34 C 906.15 242.82 906.14 252.29 906.11 261.77 C 911.23 261.59 916.48 262.06 921.55 261.38 C 926.32 260.50 928.82 256.66 932.50 253.84 C 933.15 261.78 932.72 269.83 932.75 277.79 C 928.51 276.09 927.54 271.51 922.81 270.20 C 917.44 269.06 911.58 269.80 906.10 269.63 C 906.15 278.09 906.13 286.55 906.11 295.01 C 906.21 296.90 906.08 299.04 907.40 300.57 C 909.03 302.53 910.98 304.21 912.69 306.11 C 902.70 306.35 892.69 306.27 882.70 306.17 C 884.35 303.75 887.04 301.69 888.10 298.96 C 888.98 295.82 888.58 292.24 888.64 289.00 C 888.62 271.65 888.62 254.31 888.61 236.96 C 888.55 234.76 888.59 232.66 887.30 230.75 C 885.96 228.78 884.08 227.11 882.49 225.34 Z" id="p9" />
<path d="M 1285.84 229.91 C 1285.85 235.75 1285.83 241.59 1285.88 247.43 C 1284.53 247.70 1283.19 247.96 1281.85 248.23 C 1279.37 243.47 1276.85 238.87 1272.38 235.67 C 1267.89 232.65 1261.89 231.91 1256.77 233.62 C 1253.12 234.84 1250.23 237.99 1249.85 241.90 C 1249.46 245.79 1251.47 249.18 1254.57 251.38 C 1263.57 257.98 1277.10 260.37 1285.12 268.92 C 1292.13 275.94 1293.36 287.65 1288.05 296.00 C 1284.38 301.80 1278.49 305.25 1271.99 307.04 C 1259.85 310.36 1246.14 308.05 1235.16 302.11 C 1235.15 295.86 1235.16 289.61 1235.12 283.36 C 1236.27 283.13 1237.42 282.90 1238.57 282.66 C 1240.99 287.21 1243.02 291.56 1246.93 295.08 C 1252.28 300.39 1261.28 302.30 1268.13 299.03 C 1273.30 296.59 1275.75 290.32 1273.90 284.97 C 1272.93 282.10 1270.37 279.76 1267.96 278.05 C 1260.83 273.29 1252.28 270.85 1245.09 265.86 C 1241.08 263.13 1237.73 259.68 1235.87 255.14 C 1233.25 248.23 1234.48 240.02 1239.36 234.39 C 1243.32 229.66 1248.83 227.06 1254.79 225.85 C 1265.37 223.77 1276.07 225.57 1285.84 229.91 Z" id="p10" />
<path d="M 1064.00 226.14 C 1074.11 226.20 1084.97 225.28 1093.81 231.20 C 1102.74 237.26 1104.60 250.08 1099.01 259.02 C 1095.70 264.37 1090.57 267.30 1084.84 269.51 C 1089.38 276.51 1094.03 283.44 1098.60 290.42 C 1101.48 294.57 1104.60 299.25 1108.66 302.33 C 1110.26 303.57 1111.79 304.88 1113.18 306.37 C 1108.17 306.72 1103.02 306.78 1098.00 306.62 C 1094.37 306.45 1090.89 305.41 1088.27 302.78 C 1084.94 299.47 1082.48 294.99 1080.04 291.00 C 1076.38 284.70 1072.68 278.43 1068.97 272.16 C 1066.94 272.16 1064.90 272.17 1062.87 272.18 C 1062.93 279.46 1062.89 286.73 1062.87 294.00 C 1062.92 296.02 1062.94 298.35 1063.75 300.23 C 1065.24 302.47 1067.42 304.25 1069.15 306.30 C 1059.42 306.49 1049.58 306.52 1039.85 306.36 C 1041.61 304.32 1043.85 302.34 1045.13 299.96 C 1045.92 298.19 1045.82 295.91 1045.88 294.00 C 1045.86 275.34 1045.88 256.66 1045.87 237.99 C 1045.79 236.11 1045.83 233.86 1044.82 232.20 C 1043.53 230.09 1041.50 228.34 1039.85 226.51 C 1047.85 225.75 1055.97 226.37 1064.00 226.14 Z M 1062.88 234.17 C 1062.91 244.37 1062.91 254.58 1062.88 264.79 C 1067.99 264.76 1072.96 265.23 1077.54 262.53 C 1082.08 259.95 1084.18 255.05 1084.42 250.00 C 1084.69 245.00 1083.45 239.83 1079.20 236.77 C 1074.74 233.34 1068.20 234.34 1062.88 234.17 Z" id="p11" />
<path d="M 1115.39 226.27 C 1138.26 226.03 1161.36 226.30 1184.27 226.13 C 1184.57 232.87 1184.80 239.61 1184.94 246.35 C 1183.88 246.36 1182.82 246.37 1181.77 246.38 C 1179.24 242.64 1176.86 238.47 1172.83 236.16 C 1168.75 233.64 1162.94 234.28 1158.30 234.15 C 1158.44 253.10 1158.30 272.05 1158.37 291.00 C 1158.46 293.95 1157.95 297.88 1159.55 300.50 C 1161.09 302.62 1163.17 304.35 1164.90 306.33 C 1154.88 306.59 1144.74 306.52 1134.73 306.33 C 1136.55 304.16 1139.10 302.06 1140.29 299.45 C 1141.17 296.49 1140.81 293.07 1140.86 290.00 C 1140.82 271.37 1140.87 252.73 1140.84 234.10 C 1135.62 234.24 1130.19 233.61 1125.62 236.69 C 1121.82 239.20 1120.30 242.96 1117.38 246.13 L 1114.18 246.64 C 1114.70 239.86 1114.62 233.01 1115.39 226.27 Z" id="p12" />
<path d="M 1197.70 226.27 C 1207.50 226.32 1217.31 226.27 1227.11 226.27 C 1224.79 228.73 1222.43 230.94 1221.13 234.14 C 1219.60 237.76 1219.82 242.39 1219.86 246.26 C 1217.05 242.82 1213.41 239.95 1210.08 236.90 C 1206.06 233.23 1201.98 229.64 1197.70 226.27 Z" id="p13" />
<path d="M 1196.49 227.56 C 1201.83 232.19 1207.18 236.87 1212.40 241.64 C 1214.23 243.11 1213.60 244.91 1213.78 246.99 C 1213.73 262.33 1213.83 277.66 1213.74 293.00 C 1213.78 295.28 1213.66 298.13 1214.81 300.17 C 1216.23 302.45 1218.43 304.31 1220.23 306.30 C 1210.31 306.57 1200.25 306.53 1190.33 306.34 C 1191.88 304.57 1193.61 302.89 1195.00 300.98 C 1196.48 298.93 1196.40 296.42 1196.48 294.00 C 1196.47 271.85 1196.56 249.70 1196.49 227.56 Z" id="p14" />
<path d="M 985.47 232.60 C 991.17 230.58 998.17 231.23 1003.11 234.85 C 1007.50 238.00 1010.45 242.70 1012.19 247.76 C 1015.10 255.96 1015.25 265.40 1014.50 273.99 C 1013.50 282.18 1010.83 290.80 1004.16 296.17 C 997.06 301.89 986.28 301.57 979.50 295.48 C 972.97 289.60 970.41 280.49 969.70 272.01 C 969.11 263.18 969.61 253.43 973.21 245.22 C 975.58 239.69 979.76 234.81 985.47 232.60 Z" id="p15" />
<path d="M 1062.88 234.17 C 1068.20 234.34 1074.74 233.34 1079.20 236.77 C 1083.45 239.83 1084.69 245.00 1084.42 250.00 C 1084.18 255.05 1082.08 259.95 1077.54 262.53 C 1072.96 265.23 1067.99 264.76 1062.88 264.79 C 1062.91 254.58 1062.91 244.37 1062.88 234.17 Z" id="p16" />
<path d="M 515.23 249.88 C 515.01 273.12 516.86 295.00 508.77 317.32 C 503.58 312.47 498.90 307.05 494.53 301.46 C 492.91 299.56 492.97 297.38 492.87 295.02 C 493.07 287.25 493.92 279.80 497.90 272.98 C 502.77 264.70 510.03 258.06 515.23 249.88 Z" id="p17" />
<path d="M 405.42 262.05 C 410.76 266.83 415.49 272.48 419.85 278.15 C 421.58 280.20 421.48 282.47 421.71 285.01 C 422.14 293.04 422.19 300.62 419.20 308.22 C 414.66 319.89 404.44 328.70 398.41 340.16 C 398.41 326.45 398.11 312.72 398.46 299.01 C 398.84 286.22 400.37 273.92 405.42 262.05 Z" id="p18" />
<path d="M 716.60 335.22 C 721.04 335.45 726.44 334.53 730.58 336.31 C 735.86 338.49 736.11 346.57 731.66 349.72 C 728.30 352.26 724.43 351.82 720.46 351.95 C 720.45 355.27 720.45 358.59 720.48 361.91 C 719.18 361.89 717.89 361.88 716.59 361.86 C 716.65 352.98 716.58 344.10 716.60 335.22 Z M 720.45 338.19 C 720.47 341.95 720.46 345.71 720.45 349.47 C 723.01 349.12 726.53 349.33 728.69 347.76 C 731.66 345.66 731.70 340.26 728.04 338.81 C 725.67 338.07 722.92 338.29 720.45 338.19 Z" id="p19" />
<path d="M 744.22 335.33 C 748.50 335.21 753.18 334.84 757.35 335.95 C 761.50 337.27 763.01 341.65 761.61 345.57 C 760.71 348.22 758.31 349.16 756.13 350.57 C 759.04 354.25 761.67 358.15 764.43 361.95 C 762.85 361.86 761.18 361.95 759.63 361.62 C 757.12 358.30 755.09 354.62 752.78 351.16 C 751.14 351.15 749.51 351.15 747.88 351.16 C 747.89 354.73 747.89 358.30 747.91 361.87 C 746.64 361.88 745.37 361.88 744.10 361.89 C 744.20 353.04 744.00 344.17 744.22 335.33 Z M 747.92 348.45 C 750.18 348.31 752.68 348.50 754.85 347.82 C 758.01 346.75 759.15 342.55 757.22 339.90 C 755.13 337.69 750.75 338.24 747.99 338.41 C 747.75 341.74 747.91 345.11 747.92 348.45 Z" id="p20" />
<path d="M 772.59 335.28 C 777.90 335.08 783.25 335.27 788.57 335.21 C 788.56 336.26 788.56 337.30 788.55 338.35 C 784.47 338.32 780.38 338.32 776.30 338.34 C 776.32 341.12 776.32 343.91 776.31 346.69 C 779.96 346.64 783.61 346.61 787.27 346.57 L 787.25 349.60 C 783.61 349.58 779.97 349.59 776.33 349.57 C 776.34 352.64 776.33 355.71 776.29 358.78 C 780.38 358.77 784.48 358.78 788.57 358.76 C 788.58 359.80 788.60 360.84 788.61 361.88 C 783.23 361.87 777.85 361.87 772.47 361.88 C 772.61 353.02 772.31 344.13 772.59 335.28 Z" id="p21" />
<path d="M 817.61 336.51 C 817.15 337.45 816.69 338.39 816.23 339.33 C 811.94 337.87 807.88 336.99 804.03 340.04 C 799.14 344.36 799.33 354.50 805.11 358.01 C 809.15 360.23 812.84 358.99 816.90 357.73 C 816.85 358.87 816.81 360.00 816.76 361.13 C 811.80 362.44 807.15 363.29 802.49 360.50 C 794.42 355.49 794.63 341.65 802.73 336.75 C 807.50 333.97 812.66 334.58 817.61 336.51 Z" id="p22" />
<path d="M 826.23 335.31 C 827.53 335.23 828.83 335.19 830.13 335.19 C 829.70 344.14 830.00 353.13 829.87 362.10 C 828.64 362.11 827.40 362.11 826.17 362.12 C 826.15 353.19 826.02 344.23 826.23 335.31 Z" id="p23" />
<path d="M 855.92 336.11 C 855.70 337.19 855.48 338.27 855.26 339.34 C 852.17 338.46 849.39 337.26 846.14 338.34 C 843.53 339.13 842.41 342.54 844.71 344.36 C 847.95 346.85 853.52 347.59 856.03 351.09 C 857.87 354.35 856.94 358.82 853.59 360.74 C 848.99 363.49 844.39 362.23 839.58 360.95 C 839.58 359.74 839.58 358.52 839.58 357.31 C 843.06 358.61 847.19 360.22 850.84 358.62 C 852.27 358.11 852.91 356.09 853.69 354.91 C 850.92 349.85 846.07 350.27 841.98 347.01 C 838.75 344.31 839.12 338.95 842.57 336.59 C 846.93 333.79 851.27 334.91 855.92 336.11 Z" id="p24" />
<path d="M 866.39 335.31 C 867.62 335.21 868.86 335.14 870.10 335.11 C 870.05 344.03 870.12 352.94 870.08 361.86 C 868.80 361.88 867.52 361.90 866.23 361.92 C 866.42 353.06 866.08 344.16 866.39 335.31 Z" id="p25" />
<path d="M 887.52 335.69 C 892.76 333.85 899.05 334.87 902.52 339.47 C 906.54 344.86 906.26 353.65 901.54 358.54 C 896.76 363.69 887.30 363.70 882.81 358.15 C 877.35 351.49 878.81 338.96 887.52 335.69 Z M 890.16 338.12 C 883.22 339.84 882.36 349.49 885.06 354.88 C 887.71 360.24 895.56 360.78 899.03 356.01 C 901.74 352.11 901.91 345.58 899.41 341.54 C 897.49 338.42 893.63 337.28 890.16 338.12 Z" id="p26" />
<path d="M 914.68 335.21 C 916.04 335.22 917.41 335.23 918.77 335.24 C 923.48 342.33 928.54 349.24 932.81 356.60 C 932.54 349.46 932.62 342.33 932.69 335.18 C 933.89 335.19 935.10 335.19 936.30 335.19 C 936.31 344.09 936.32 352.98 936.27 361.88 C 934.95 361.85 933.62 361.81 932.30 361.78 C 927.56 354.35 922.36 347.25 917.81 339.70 C 918.47 347.03 918.06 354.47 918.22 361.84 C 917.00 361.86 915.79 361.87 914.57 361.89 C 914.64 353.00 914.61 344.10 914.68 335.21 Z" id="p27" />
<path d="M 970.02 335.06 C 972.81 335.65 974.98 338.19 974.31 341.14 C 973.47 344.42 970.97 345.61 968.41 347.40 C 970.71 349.76 972.97 352.16 975.22 354.58 C 976.07 352.45 976.87 350.30 977.63 348.14 C 978.72 348.17 979.82 348.19 980.92 348.22 C 980.02 351.22 978.87 353.85 977.25 356.54 C 979.06 358.31 980.87 360.09 982.68 361.87 C 981.11 361.83 979.52 361.84 977.96 361.66 C 976.86 360.99 975.92 360.02 974.96 359.18 C 972.42 360.78 970.18 362.32 967.03 362.30 C 962.72 362.41 957.92 359.87 958.06 355.01 C 957.85 350.87 960.72 349.17 963.63 346.99 C 962.07 344.76 960.69 342.88 961.10 340.00 C 961.34 335.82 966.57 334.18 970.02 335.06 Z M 966.90 345.96 C 968.51 344.23 971.24 342.78 970.89 340.03 C 970.92 336.78 966.28 336.76 964.95 339.09 C 963.44 341.56 965.71 343.92 966.90 345.96 Z M 973.35 357.09 C 970.60 354.50 968.08 351.71 965.54 348.91 C 962.62 350.85 960.30 353.85 962.65 357.29 C 965.83 360.86 969.86 359.05 973.35 357.09 Z" id="p28" />
<path d="M 997.41 335.31 C 998.65 335.21 999.90 335.14 1001.15 335.10 C 1001.14 344.00 1001.13 352.90 1001.14 361.80 C 999.86 361.84 998.58 361.88 997.30 361.92 C 997.42 353.05 997.20 344.17 997.41 335.31 Z" id="p29" />
<path d="M 1012.35 335.30 C 1013.70 335.21 1015.07 335.22 1016.43 335.22 C 1021.08 342.36 1026.07 349.32 1030.41 356.66 C 1030.17 349.51 1030.28 342.33 1030.24 335.17 C 1031.43 335.19 1032.62 335.21 1033.80 335.22 C 1033.81 344.10 1033.80 352.98 1033.82 361.86 C 1032.52 361.85 1031.22 361.84 1029.93 361.84 C 1025.09 354.52 1020.05 347.35 1015.53 339.82 C 1015.80 347.17 1015.71 354.51 1015.77 361.85 C 1014.59 361.86 1013.41 361.86 1012.23 361.87 C 1012.37 353.02 1012.15 344.14 1012.35 335.30 Z" id="p30" />
<path d="M 1041.40 335.18 C 1048.41 335.23 1055.42 335.20 1062.43 335.20 C 1062.43 336.25 1062.44 337.31 1062.44 338.36 C 1059.53 338.33 1056.62 338.33 1053.72 338.35 C 1053.76 346.19 1053.67 354.04 1053.77 361.89 C 1052.46 361.88 1051.14 361.87 1049.83 361.86 C 1049.83 354.01 1049.83 346.16 1049.82 338.32 C 1047.02 338.32 1044.21 338.33 1041.41 338.36 C 1041.41 337.30 1041.40 336.24 1041.40 335.18 Z" id="p31" />
<path d="M 1069.68 335.19 C 1075.00 335.21 1080.32 335.19 1085.64 335.17 C 1085.63 336.22 1085.62 337.27 1085.61 338.32 C 1081.57 338.30 1077.52 338.31 1073.48 338.27 C 1073.50 341.06 1073.50 343.85 1073.48 346.64 C 1077.13 346.62 1080.78 346.61 1084.43 346.56 L 1084.48 349.62 C 1080.80 349.61 1077.11 349.61 1073.43 349.59 C 1073.45 352.65 1073.46 355.70 1073.47 358.75 C 1077.53 358.76 1081.59 358.75 1085.65 358.71 C 1085.66 359.74 1085.67 360.77 1085.67 361.80 C 1080.33 361.82 1074.98 361.82 1069.63 361.86 C 1069.74 352.97 1069.71 344.08 1069.68 335.19 Z" id="p32" />
<path d="M 1114.85 336.39 L 1114.19 339.29 C 1110.28 338.25 1106.80 337.11 1102.84 338.81 C 1096.66 341.36 1095.66 350.77 1099.24 355.71 C 1102.55 359.80 1107.10 359.44 1111.84 358.73 C 1111.85 356.09 1111.85 353.44 1111.86 350.79 C 1109.77 350.78 1107.67 350.76 1105.58 350.72 L 1106.03 348.24 C 1109.09 347.68 1112.38 347.89 1115.47 347.89 C 1115.48 352.10 1115.47 356.32 1115.49 360.54 C 1109.93 362.60 1104.21 363.38 1098.88 360.16 C 1091.82 355.66 1091.43 343.93 1097.42 338.41 C 1101.84 334.10 1109.48 334.00 1114.85 336.39 Z" id="p33" />
<path d="M 1125.57 335.30 C 1129.89 335.22 1134.72 334.74 1138.89 335.97 C 1143.05 337.34 1144.38 342.05 1142.70 345.84 C 1141.70 348.15 1139.56 349.02 1137.57 350.32 C 1140.37 354.08 1142.96 357.98 1145.65 361.82 C 1144.12 361.80 1142.60 361.77 1141.07 361.75 C 1138.68 358.25 1136.62 354.39 1133.89 351.16 C 1132.38 350.94 1130.85 350.81 1129.31 350.75 C 1129.32 354.44 1129.38 358.13 1129.40 361.82 C 1128.07 361.83 1126.73 361.84 1125.40 361.85 C 1125.61 353.00 1125.36 344.14 1125.57 335.30 Z M 1129.28 348.39 C 1131.78 348.25 1134.94 348.52 1137.17 347.24 C 1140.07 345.56 1140.40 340.32 1137.13 338.82 C 1134.74 337.96 1131.89 338.17 1129.39 338.31 C 1129.16 341.66 1129.30 345.04 1129.28 348.39 Z" id="p34" />
<path d="M 1153.23 335.30 C 1154.42 335.20 1155.61 335.13 1156.81 335.08 C 1156.86 344.01 1156.80 352.93 1156.84 361.85 C 1155.61 361.85 1154.38 361.85 1153.15 361.84 C 1153.22 353.00 1153.03 344.14 1153.23 335.30 Z" id="p35" />
<path d="M 1163.87 335.23 C 1170.80 335.19 1177.73 335.24 1184.66 335.18 C 1184.64 336.24 1184.62 337.30 1184.59 338.35 C 1181.80 338.34 1179.00 338.35 1176.21 338.35 C 1176.22 346.17 1176.19 353.99 1176.24 361.82 C 1174.92 361.83 1173.60 361.84 1172.28 361.86 C 1172.36 354.01 1172.30 346.15 1172.36 338.30 C 1169.54 338.33 1166.72 338.34 1163.89 338.34 C 1163.89 337.30 1163.88 336.27 1163.87 335.23 Z" id="p36" />
<path d="M 1188.52 335.17 C 1189.95 335.20 1191.38 335.23 1192.82 335.25 C 1195.10 339.64 1197.55 343.92 1199.73 348.36 C 1201.89 343.88 1204.43 339.62 1206.66 335.17 C 1208.05 335.19 1209.44 335.20 1210.83 335.21 C 1208.20 339.78 1205.55 344.34 1202.90 348.90 C 1200.55 352.39 1201.82 357.80 1201.60 361.86 C 1200.28 361.86 1198.96 361.85 1197.65 361.85 C 1197.38 357.72 1198.82 352.16 1196.26 348.71 C 1193.60 344.24 1191.12 339.67 1188.52 335.17 Z" id="p37" />
<path d="M 747.99 338.41 C 750.75 338.24 755.13 337.69 757.22 339.90 C 759.15 342.55 758.01 346.75 754.85 347.82 C 752.68 348.50 750.18 348.31 747.92 348.45 C 747.91 345.11 747.75 341.74 747.99 338.41 Z" id="p38" />
<path d="M 890.16 338.12 C 893.63 337.28 897.49 338.42 899.41 341.54 C 901.91 345.58 901.74 352.11 899.03 356.01 C 895.56 360.78 887.71 360.24 885.06 354.88 C 882.36 349.49 883.22 339.84 890.16 338.12 Z" id="p39" />
<path d="M 970.89 340.03 C 971.24 342.78 968.51 344.23 966.90 345.96 C 965.71 343.92 963.44 341.56 964.95 339.09 C 966.28 336.76 970.92 336.78 970.89 340.03 Z" id="p40" />
<path d="M 1129.39 338.31 C 1131.89 338.17 1134.74 337.96 1137.13 338.82 C 1140.40 340.32 1140.07 345.56 1137.17 347.24 C 1134.94 348.52 1131.78 348.25 1129.28 348.39 C 1129.30 345.04 1129.16 341.66 1129.39 338.31 Z" id="p41" />
<path d="M 720.45 338.19 C 722.92 338.29 725.67 338.07 728.04 338.81 C 731.70 340.26 731.66 345.66 728.69 347.76 C 726.53 349.33 723.01 349.12 720.45 349.47 C 720.46 345.71 720.47 341.95 720.45 338.19 Z" id="p42" />
<path d="M 965.54 348.91 C 968.08 351.71 970.60 354.50 973.35 357.09 C 969.86 359.05 965.83 360.86 962.65 357.29 C 960.30 353.85 962.62 350.85 965.54 348.91 Z" id="p43" />
</defs>
<g stroke-width="10pt">
<use stroke="#010101" xlink:href="#p1" />
<use stroke="#010101" xlink:href="#p2" />
<use stroke="#ffffff" xlink:href="#p3" />
<use stroke="#010101" xlink:href="#p4" />
<use stroke="#010101" xlink:href="#p5" />
<use stroke="#010101" xlink:href="#p6" />
<use stroke="#010101" xlink:href="#p7" />
<use stroke="#010101" xlink:href="#p8" />
<use stroke="#010101" xlink:href="#p9" />
<use stroke="#010101" xlink:href="#p10" />
<use stroke="#010101" xlink:href="#p11" />
<use stroke="#010101" xlink:href="#p12" />
<use stroke="#010101" xlink:href="#p13" />
<use stroke="#010101" xlink:href="#p14" />
<use stroke="#ffffff" xlink:href="#p15" />
<use stroke="#ffffff" xlink:href="#p16" />
<use stroke="#010101" xlink:href="#p17" />
<use stroke="#010101" xlink:href="#p18" />
<use stroke="#010101" xlink:href="#p19" />
<use stroke="#010101" xlink:href="#p20" />
<use stroke="#010101" xlink:href="#p21" />
<use stroke="#010101" xlink:href="#p22" />
<use stroke="#010101" xlink:href="#p23" />
<use stroke="#010101" xlink:href="#p24" />
<use stroke="#010101" xlink:href="#p25" />
<use stroke="#010101" xlink:href="#p26" />
<use stroke="#010101" xlink:href="#p27" />
<use stroke="#010101" xlink:href="#p28" />
<use stroke="#010101" xlink:href="#p29" />
<use stroke="#010101" xlink:href="#p30" />
<use stroke="#010101" xlink:href="#p31" />
<use stroke="#010101" xlink:href="#p32" />
<use stroke="#010101" xlink:href="#p33" />
<use stroke="#010101" xlink:href="#p34" />
<use stroke="#010101" xlink:href="#p35" />
<use stroke="#010101" xlink:href="#p36" />
<use stroke="#010101" xlink:href="#p37" />
<use stroke="#ffffff" xlink:href="#p38" />
<use stroke="#ffffff" xlink:href="#p39" />
<use stroke="#ffffff" xlink:href="#p40" />
<use stroke="#ffffff" xlink:href="#p41" />
<use stroke="#ffffff" xlink:href="#p42" />
<use stroke="#ffffff" xlink:href="#p43" />
</g>
<g>
<use fill="#010101" xlink:href="#p1" />
<use fill="#010101" xlink:href="#p2" />
<use fill="#ffffff" xlink:href="#p3" />
<use fill="#010101" xlink:href="#p4" />
<use fill="#010101" xlink:href="#p5" />
<use fill="#010101" xlink:href="#p6" />
<use fill="#010101" xlink:href="#p7" />
<use fill="#010101" xlink:href="#p8" />
<use fill="#010101" xlink:href="#p9" />
<use fill="#010101" xlink:href="#p10" />
<use fill="#010101" xlink:href="#p11" />
<use fill="#010101" xlink:href="#p12" />
<use fill="#010101" xlink:href="#p13" />
<use fill="#010101" xlink:href="#p14" />
<use fill="#ffffff" xlink:href="#p15" />
<use fill="#ffffff" xlink:href="#p16" />
<use fill="#010101" xlink:href="#p17" />
<use fill="#010101" xlink:href="#p18" />
<use fill="#010101" xlink:href="#p19" />
<use fill="#010101" xlink:href="#p20" />
<use fill="#010101" xlink:href="#p21" />
<use fill="#010101" xlink:href="#p22" />
<use fill="#010101" xlink:href="#p23" />
<use fill="#010101" xlink:href="#p24" />
<use fill="#010101" xlink:href="#p25" />
<use fill="#010101" xlink:href="#p26" />
<use fill="#010101" xlink:href="#p27" />
<use fill="#010101" xlink:href="#p28" />
<use fill="#010101" xlink:href="#p29" />
<use fill="#010101" xlink:href="#p30" />
<use fill="#010101" xlink:href="#p31" />
<use fill="#010101" xlink:href="#p32" />
<use fill="#010101" xlink:href="#p33" />
<use fill="#010101" xlink:href="#p34" />
<use fill="#010101" xlink:href="#p35" />
<use fill="#010101" xlink:href="#p36" />
<use fill="#010101" xlink:href="#p37" />
<use fill="#ffffff" xlink:href="#p38" />
<use fill="#ffffff" xlink:href="#p39" />
<use fill="#ffffff" xlink:href="#p40" />
<use fill="#ffffff" xlink:href="#p41" />
<use fill="#ffffff" xlink:href="#p42" />
<use fill="#ffffff" xlink:href="#p43" />
</g>
</svg>