<svg xmlns="http://www.w3.org/2000/svg" xmlns:xlink="http://www.w3.org/1999/xlink" width="1672pt" height="836" viewBox="0 0 1672 627"><defs><path id="a" d="M0 0h1672v627H0zm209 78.37c-.01 156.76 0 313.51 0 470.26 418-.02 836 0 1254-.01-.03-67.11.05-134.23-.04-201.34-11.4-11.72-22.82-23.42-34.16-35.2 11.38-11.72 22.85-23.36 34.2-35.11V78.37c-418 .01-836 0-1254 0"/><path id="b" d="M209 78.37c418 0 836 .01 1254 0v198.6c-11.35 11.75-22.82 23.39-34.2 35.11 11.34 11.78 22.76 23.48 34.16 35.2.09 67.11.01 134.23.04 201.34-418 .01-836-.01-1254 .01 0-156.75-.01-313.5 0-470.26m226.42 152.06c.5.43 1.01.86 1.51 1.29-4.3 2.68-8.02 6.05-11.6 9.61-23.26 23.61-46.81 46.92-69.94 70.66 25.5 26.7 51.49 52.92 77.24 79.38 5.86 5.83 11.45 11.9 17.4 17.64-4.39-6.12-7.92-12.76-9.85-20.08-4.11-14.9-3.88-30.31-3.67-45.62-9.74-10.5-19.89-20.61-29.69-31.05 12.98-13.24 25.98-26.46 39.01-39.65-8.14-3.3-16.93-4.65-25.64-3.07-14.21 2.6-25.41 9.76-37.12 17.71 10.4-9.42 21.13-17.53 34.87-21.38 8.74-2.52 18.61-2.61 27.05 1.05 9.02 3.78 15.96 10.5 22.45 17.62 9.07 10.33 17.11 21.72 25.27 32.77 13.69 18.53 26.7 37.83 41.5 55.49 6.45 7.38 14.04 15.67 23.03 19.88 7.75 3.76 16.67 4.84 25.01 2.5 9.58-2.62 17.21-8.95 24.01-15.92 21.85-22.34 43.46-44.89 65.31-67.23-14.34-15.18-28.87-30.19-43.47-45.11-16.24-16.83-32.49-33.64-48.97-50.23 4.28 5.41 8.2 10.96 10.7 17.43 6.23 15.54 6.65 33.49 5.99 50.01 8.91 9.51 18.23 18.66 26.83 28.44-12.32 12.52-24.53 25.14-36.82 37.69 9.99 3.35 20.84 3.68 30.91.51 9.94-2.99 18.59-8.11 27.03-14.02-10.49 9.47-21.53 17.45-35.79 19.91-9.91 1.82-20.33-.19-28.56-6.08-10.67-7.39-19.36-18.54-27.23-28.75-12.93-17.14-25.17-34.82-37.94-52.08-6.79-9-13.91-18.14-21.78-26.22-7.31-7.44-16.22-13.93-26.53-16.33-9.76-2.42-20.29-.75-28.89 4.43.15-.77.28-1.59.55-2.32 4.97-3.71 11.22-5.83 17.35-6.5 11.12-.89 21.97 2.6 30.99 9.04l27.17-27.74c.78-.66 1.63-1.76 2.66-1.94 2.02 1.61 3.76 3.65 5.52 5.54 6.17 6.75 12.66 13.17 18.84 19.91 1.22-16.16-.17-32.2-6.55-47.23-2.64-6.54-6.26-12.52-10.08-18.44 11.58 12.39 19 28.28 21.34 45.04 1.66 11.27.99 22.68-3.5 33.25-4.93 11.86-13.34 20.79-22.05 29.94 6.39 8.26 12.44 16.79 18.48 25.31 8.26-13.31 20.52-23.9 28.85-36.86 5.82-9.14 8.47-19.92 6.24-30.65-2.61-13.81-12.15-24.69-20.6-35.37 9.26 8.51 19.27 18.62 23.12 30.88 3.43 10.08 2.57 21.18-2.18 30.69-6.05 12.49-16.39 21.47-22.84 33.21-3.23 6.04-5.21 12.75-5.08 19.64.01 1.3.71 2.26 1.33 3.34 2.48 3.87 5.33 7.5 7.92 11.3-.62-8.75-.55-17.78 3.43-25.81 6.31-12.85 18.53-22.35 24.87-35.64-.36 15.23.29 30.55-.48 45.78-.75 13.1-3.12 26.03-7.9 38.28 2.22 1.63 4.43 3.26 6.64 4.89 4.54-9.66 7.32-20.21 8.99-30.72 2.16-15.67 1.63-32.34 1.52-48.17-.09-12.49-1.19-24.69-5.45-36.52-3.73-10.97-10.33-20.32-18.28-28.63-17.48-18.52-35.04-36.99-52.86-55.17-22.65 22.69-44.95 45.76-67.53 68.52-4 3.98-7.81 8.26-12.06 11.95m79.6 244.8c24.87-25.54 49.28-51.53 74.04-77.17 2.79-2.82 5.49-5.71 8.15-8.65-5.55 4.4-10.68 8.51-17.72 10.24-11.52 3.07-23.15-.49-32.76-7.01-10.28 10.68-20.68 21.24-31.06 31.81-7.74-7.06-14.74-15.01-22.07-22.49-.36 8.09-1.29 15.96-.18 24.05 1.35 14.18 6.96 27.05 14.71 38.85-10.39-11.61-17.75-26.21-19.35-41.83-1.44-13.29 1.07-26.87 7.71-38.52 5.43-9.49 13.16-17.95 20.77-25.75-6.24-8.69-12.79-17.15-18.83-25.99-8.84 15.01-22.62 27.43-30.99 42.65-5.88 10.65-7.86 23.21-3.73 34.85 3.01 8.83 8.46 15.49 13.98 22.8-6.9-6.44-14.59-13.82-17.89-22.86-3.82-10.68-2.44-22.91 2.57-32.97 6.21-12.95 16.76-22.48 22.66-35.15 3.46-7.29 5.3-16.01 4.08-24.02-2.4-5.17-6.56-9.58-9.75-14.3.85 6.39 1.26 12.82.58 19.26-.92 8.26-4.81 15.7-9.49 22.42-6.76 9.62-14.46 17.88-19.74 28.56-.61-18.62-1.41-37.4-.38-56.01.7-13.38 3.16-26.61 8.3-39.03-2.29-1.86-4.54-3.86-7.03-5.45-10.35 22.61-10.68 46.1-10.72 70.48.36 14.17-.01 28.43 3.01 42.22 2.22 10.4 6.74 20.27 13.2 28.72 4.85 6.19 10.36 11.48 15.81 17.15 14.15 14.28 27.94 28.9 42.12 43.14m209.49-201.06c1.86 1.81 4.11 3.69 5.43 5.93 1.33 2.28 1.31 5.34 1.38 7.9.01 14.33-.06 28.67-.02 43-.03 3.46-.04 7.19-.9 10.55-.82 3.02-2.98 5.02-4.95 7.31 6.47.04 12.94-.06 19.41.05-3.47-3.36-5.92-6.81-5.71-11.88.05-15.33-.24-30.69.02-46.02 7.54 10.66 15.56 20.99 23.28 31.51 6.95 9.1 13.58 18.44 20.74 27.37 1.84.02 3.67.03 5.51.05.01-19.32.09-38.63.1-57.94.04-3.43.03-7.15.95-10.47.87-2.88 3.12-4.77 5.15-6.86-6.54-.09-13.09-.08-19.63-.04 1.77 1.79 4.11 3.72 5.01 6.12 1 2.85.96 6.26.99 9.25-.06 12.43-.07 24.86-.05 37.29-12.98-17.76-26.2-35.34-39.2-53.09-5.83-.04-11.67-.07-17.51-.03m83.84 1.01c1.68 2.03 3.91 4.15 4.43 6.81.76 3.55.57 7.39.6 11.01-.09 14 .01 28-.02 42-.05 2.76-.01 5.92-.97 8.54-.88 2.08-2.57 3.92-3.93 5.7 16.41-.01 32.83-.06 49.24.02.69-5.89 1.68-11.79 1.9-17.71-4.39 3.94-6.3 8.74-12.39 10.57-6.62 1.53-13.97.89-20.75 1.02-.09-9.81.03-19.62-.03-29.42 4.81.07 9.84-.45 14.58.41 3.93.63 6 4.8 9.02 7.27-.04-6.78.41-13.66-.36-20.4-3.01 2.5-5.71 6.11-9.85 6.49-4.42.48-8.95.22-13.4.27.06-8.79-.04-17.58-.01-26.37 5.2.03 10.4-.09 15.6.04 2.93.14 5.89.45 8.34 2.25 2.95 2.11 4.21 5.77 7.05 8.19.27-5.55 0-11.11.07-16.66-16.37.12-32.75.01-49.12-.03m60.79.67c2.82 2.6 5.6 5.09 7.6 8.41 6.01 9.67 11.8 19.46 17.87 29.09-4.9 7.48-9.94 14.88-14.93 22.31-3.32 5.09-7.01 9.38-11.45 13.52 6.57.11 13.13-.01 19.71.02-1.2-1.48-2.59-2.96-3.51-4.64-.86-1.61.57-3.41 1.31-4.81 4.27-6.76 8.74-13.41 13.09-20.13 4.02 6.82 8.13 13.58 12.2 20.37.71 1.25 1.5 2.6 1.8 4.01-.37 1.99-2.25 3.74-3.4 5.33 8.39-.08 16.78-.04 25.18-.06-3.04-2.66-5.94-5.34-8.08-8.81-6.34-9.99-12.57-20.05-18.82-30.09 5.49-8.38 10.97-16.77 16.54-25.1 2.36-3.7 5.56-6.49 8.85-9.34-6.85-.13-13.69-.05-20.54-.05 1.3 1.58 2.86 3.22 3.75 5.07.35 2.11-1.14 4.39-2.15 6.17-3.53 5.65-7.23 11.21-10.92 16.76-3.59-5.84-7.05-11.74-10.45-17.68-.91-1.64-1.89-3.4-2.24-5.26.86-1.83 2.16-3.47 3.35-5.1-8.25-.01-16.51-.11-24.76.01m159.35.91c-8.31 1.93-15.78 7.19-20.25 14.47-5.33 8.31-6.56 18.13-5.72 27.8.74 8.45 3.78 16.54 9.8 22.65 8.57 9.1 22.4 11.76 34.24 8.77 10.08-2.55 18.29-10.16 22.2-19.71 3.14-7.51 3.64-15.73 2.86-23.75-.99-9.31-5.23-18.12-12.53-24.11-8.19-6.78-20.47-8.43-30.6-6.12m-84.22-.01c1.48 1.85 3.47 3.85 4.05 6.2.69 2.93.72 6.06.79 9.04.02 14.01-.01 28.01 0 42.01-.02 2.92-.08 5.92-.6 8.81-.46 2.61-2.32 4.55-3.8 6.66 7.35-.1 14.71-.16 22.06-.01-1.45-1.77-3.45-3.71-4.16-5.92-.76-2.71-.75-5.74-.77-8.54.03-6.42.05-12.84.01-19.27 4.69.09 9.53-.34 14.18.32 4.18.67 6.23 4.58 8.74 7.53.77-6.87.24-13.89.33-20.8-3 2.59-5.92 6.51-10.12 6.76-4.34.45-8.77.18-13.12.21.03-8.96.01-17.93-.02-26.88 6.68.26 13.92-.66 20.43.89 5.67 1.72 6.22 6.59 10.17 10.04.36-5.66.09-11.37.19-17.05-16.12.07-32.24-.05-48.36 0m300.04 52.62c-.42 5.69-.46 11.32-.57 17.01 6.8 3.94 14.38 5.94 22.26 5.54 6.6-.05 13.05-2.47 17.55-7.39 6.77-7.27 6.94-19.85.07-27.12-6.78-7.59-19.02-9.76-25.96-16.08-4.36-3.69-4.47-11.02-.04-14.68 3.32-2.81 7.85-2.75 11.89-1.9 4.63 1.11 7.83 4.68 9.96 8.75 1.32 2.17 1.64 4.4 4.27 5.38.53-5.39.39-10.76.58-16.16-6.86-3.67-14.57-4.99-22.29-4.2-5.22.59-10.22 2.8-13.87 6.63-6.45 6.76-6.5 18.82.29 25.38 6.55 6.8 17.47 9.12 24.16 14.83 5.18 4.19 5.53 12.39.8 17.05-4.47 4.22-11.86 4.1-17.01 1.22-4.46-2.51-6.73-6.6-9.1-10.92-.76-1.51-1.62-2.39-2.99-3.34m-165.1-50.82c.68.78 1.36 1.57 2.03 2.36 2.47 2.99 2.59 6.37 2.67 10.08.09 12.67-.07 25.34.13 38.01-.08 4.39.1 8.87-.45 13.24-.4 3.17-2.26 5.18-4.11 7.6 7.14-.01 14.29-.14 21.43 0-1.99-2.43-3.92-4.46-4.1-7.8-.52-7.69-.09-15.46-.19-23.17 1.95-.01 3.91-.03 5.86-.05 4.2 6.84 7.85 14.01 11.86 20.96 2.4 4.06 4.95 8.53 9.84 9.83 4.8 1.13 10.12.49 15.03.46-3.06-2.76-6.17-5.27-8.6-8.64-5.67-7.93-10.34-16.62-15.88-24.65 3.57-1.76 6.9-3.41 9.61-6.42 6.59-6.95 6.63-19.57-.64-26.07-5.01-4.69-12.09-5.75-18.69-5.8-8.61.03-17.2.04-25.8.06m62.97-.03c.15 5.69-.38 11.37-.21 17.04l1.19.42c2.9-3.23 4.23-7.46 8.24-9.6 3.82-2.03 9.18-1.62 13.4-1.75.09 16.79.05 33.58.05 50.37-.02 3.05.06 6.03-.73 9.01-.64 2.35-2.38 4.23-3.81 6.15 7.46-.03 14.92-.06 22.39.01-1.4-1.75-3.17-3.61-4.01-5.7-.91-2.63-.97-5.71-.99-8.47.03-17.09-.03-34.17-.03-51.26 4.27.14 9.85-.4 13.57 2.01 4.1 2.54 4.76 6.87 8.43 9.81.37-5.99.06-12.03.13-18.03-19.21.09-38.41 0-57.62-.01m65.52.67c1.49 2.01 3.29 3.99 3.76 6.53.61 3.35.42 6.89.46 10.28-.11 14.65.09 29.32-.06 43.97.03 4.07-1.62 7.12-4.05 10.24 7.06-.11 14.12-.12 21.18-.01-1.25-1.72-2.8-3.59-3.48-5.62-.91-3.01-.91-6.45-.93-9.58.08-13.33-.01-26.67.01-40 .02-2.96-.14-6.09.43-9.01.52-2.63 2.34-4.74 3.88-6.86-7.07.11-14.13.07-21.2.06m-410.15 97.27c.06 7.28.01 14.55.01 21.83 1.2.01 2.39.02 3.59.02.01-2.44.02-4.89.05-7.33 3.16-.2 6.21.16 8.84-1.96 3.66-2.77 3.53-9.12-.56-11.45-3.37-1.82-8.2-.97-11.93-1.11m23.85 21.86 3.71-.06c0-2.83 0-5.66.02-8.49l3.17-.03c1.93 2.82 3.79 5.68 5.61 8.58h4.26c-2.07-2.93-4.09-5.88-6.12-8.83 1.37-1.3 3.42-2.61 3.84-4.55.94-3.35-.45-6.92-3.92-7.97-3.33-.88-7.04-.65-10.45-.44-.2 7.25-.02 14.53-.12 21.79m24.51-21.86c.01 7.28-.01 14.56-.02 21.84 4.58-.04 9.16-.05 13.74 0l.09-3.07c-3.37.02-6.75.04-10.12.04l-.03-6.68c2.78.01 5.57.02 8.35.04l-.03-2.93c-2.75.02-5.51.04-8.26.05v-6.25c3.29-.01 6.59-.01 9.89.01-.01-1.03-.02-2.06-.04-3.09-4.52-.01-9.04 0-13.57.04m39.11 20.39c-.28-1.01-.56-2.01-.84-3.01-2.83 1.08-5.2 2.34-8.33 1.4-6.26-1.94-6.31-13.25-.34-15.58 3.09-1.09 5.62-.01 8.49 1.02.4-.97.81-1.93 1.21-2.9-4.16-1.68-8.51-2.59-12.61-.16-5.02 3.1-6.31 9.81-4.19 15.04 1.64 3.71 5.53 6.12 9.58 5.99 2.58.01 4.66-.95 7.03-1.8m21.81-3.12c-.27 1.06-.53 2.13-.79 3.2 3.88 1.47 7.53 2.74 11.48.56 3.12-1.75 4.09-5.98 1.77-8.78-2.18-2.45-6.19-3.23-8.73-5.28-.86-1.02-.59-2.7.17-3.71 2.88-1.35 5.17-.11 7.92.79l1.23-2.94c-3.43-1.2-7.26-2.33-10.66-.37-2.98 1.77-3.78 6.29-1.23 8.78 2.35 2.11 5.93 2.76 8.27 4.82 1.29 1.59.68 3.68-1.15 4.55-3.16.94-5.46-.5-8.28-1.62m22.3 4.58 3.46.03c.03-7.35-.01-14.7.04-22.04-1.14.06-2.26.15-3.39.27-.29 7.23-.07 14.5-.11 21.74m19.34-21.71c-7.36 2.39-9.14 12.87-4.58 18.48 4.05 5 12.9 4.77 16.44-.71 2.97-4.46 2.8-11.67-1.2-15.48-2.85-2.79-6.93-3.27-10.66-2.29m22.41 21.67c1.15 0 2.3.01 3.45.01-.09-5.45-.09-10.9-.1-16.35 3.36 4.9 6.86 9.69 10.33 14.5 1.11 1.73 2.24 1.82 4.18 2.2.11-7.4.06-14.81.09-22.22l-3.26-.02c.02 5.29-.05 10.58-.03 15.87a460 460 0 0 0-11.5-15.84c-.93-.03-1.85-.02-2.76.04-.67 7.21-.21 14.56-.4 21.81m42.14-11.86c-1.85 1.73-3.84 2.82-4.15 5.57-.44 3.63 2.7 6.24 6.08 6.55 2.91.39 4.94-.99 7.33-2.34.61.7 1.23 1.39 1.84 2.08 1.43.01 2.85.02 4.28.02-1.32-1.47-2.65-2.94-3.98-4.41 1.07-2.27 1.88-4.57 2.55-6.99l-3.04.43c-.64 1.49-1.05 3.08-1.54 4.62-1.56-1.78-3.15-3.53-4.79-5.24 2.64-1.84 4.99-3.09 4.67-6.82-1.27-4.94-9.06-4.94-10.85-.46-.95 2.79.42 4.62 1.6 6.99m28.6-10.03c.02 7.29.08 14.59-.04 21.87 1.2-.01 2.4-.02 3.6-.04 0-7.27.05-14.54-.01-21.8zm13.27 21.86c1.12 0 2.24.01 3.35.02-.03-5.4-.03-10.81-.02-16.21 3.75 5.48 7.64 10.85 11.53 16.22.96.02 1.93.05 2.89.07-.01-7.31-.01-14.62.04-21.93l-3.36-.03c.06 5.38-.06 10.74.08 16.12-3.48-5.55-7.57-10.71-11.4-16.02-.94-.07-1.88-.09-2.83-.08-.62 7.23-.09 14.58-.28 21.84m24.52-18.69c2.17-.02 4.33-.04 6.5-.07-.03 6.25 0 12.51-.03 18.77h3.6c.01-6.25.08-12.5.05-18.74 2.12.03 4.24.05 6.36.08.02-1.07.03-2.14.05-3.2-5.38.14-10.79-.12-16.15.15-.15 1-.28 2-.38 3.01m23.86 18.7c4.5-.01 8.99-.01 13.49-.02.02-1 .04-1.99.07-2.99-3.36-.01-6.71 0-10.06.04.01-2.23.01-4.45.01-6.68 2.81.01 5.61.02 8.42.02l-.27-2.93c-2.71.02-5.41.05-8.12.06l-.06-6.3c3.27.02 6.54.03 9.8.03.02-1.02.03-2.04.04-3.06-4.4.06-8.83-.17-13.22.13-.28 7.22 0 14.48-.1 21.7m38.29-1.24-.09-8.93c-1.11.01-2.23.01-3.34.01v7.33c-3.36-.01-6.77.59-9-2.53-2.43-3.62-2.31-10.55 1.95-12.87 3.14-1.66 5.98-.47 9.07.53.47-.91.94-1.83 1.41-2.75-3.97-1.67-8.13-2.47-12.14-.43-7.03 3.7-7.47 15.75-.47 19.72 4.16 2.35 8.38 1.58 12.61-.08m8.67 1.23c1.16-.03 2.31-.05 3.46-.08.02-2.81.02-5.62.03-8.43 1.12-.02 2.23-.03 3.34-.05 1.83 2.87 3.7 5.73 5.61 8.55 1.36 0 2.71-.01 4.06-.01-2.01-2.94-4.01-5.89-6.09-8.78 1.7-1.71 3.72-2.89 4-5.47.46-3.07-.75-5.77-3.73-6.9-3.28-1.05-7.13-.71-10.54-.53-.33 7.21-.01 14.48-.14 21.7m23.09 0h3.49c-.05-7.32-.01-14.65-.04-21.97-1.11.06-2.22.16-3.32.28-.26 7.22-.05 14.47-.13 21.69m9.88-18.65c2.1-.03 4.2-.08 6.31-.12-.01 6.27.02 12.54.01 18.81 1.2-.01 2.41-.03 3.61-.04-.02-6.25.05-12.49.01-18.74 2.08.01 4.17.01 6.25.02l.09-3.1c-5.3.09-10.62-.13-15.91.11-.15 1.01-.27 2.03-.37 3.06m20.47-3.17c1.94 3.67 3.98 7.29 6.03 10.9 2.1 3.17 1.25 7.3 1.36 10.96l3.45-.06c.16-3.33-.75-7.67 1.14-10.55 2.05-3.77 4.19-7.48 6.19-11.28l-3.65.09c-1.77 3.49-3.59 6.95-5.31 10.46-1.71-3.54-3.53-7.04-5.34-10.53-1.29 0-2.58 0-3.87.01m-310.14.01c-.09 7.29.04 14.59-.01 21.88 1.2-.01 2.4-.02 3.6-.02-.01-7.28.05-14.55 0-21.83z"/><path id="c" d="M515.01 149.96c17.82 18.18 35.38 36.65 52.86 55.17 7.95 8.31 14.55 17.66 18.28 28.63 4.26 11.83 5.36 24.03 5.45 36.52.11 15.83.64 32.5-1.52 48.17-1.67 10.51-4.45 21.06-8.99 30.72-2.21-1.63-4.42-3.26-6.64-4.89 4.78-12.25 7.15-25.18 7.9-38.28.77-15.23.12-30.55.48-45.78-6.34 13.29-18.56 22.79-24.87 35.64-3.98 8.03-4.05 17.06-3.43 25.81-2.59-3.8-5.44-7.43-7.92-11.3-.62-1.08-1.32-2.04-1.33-3.34-.13-6.89 1.85-13.6 5.08-19.64 6.45-11.74 16.79-20.72 22.84-33.21 4.75-9.51 5.61-20.61 2.18-30.69-3.85-12.26-13.86-22.37-23.12-30.88 8.45 10.68 17.99 21.56 20.6 35.37 2.23 10.73-.42 21.51-6.24 30.65-8.33 12.96-20.59 23.55-28.85 36.86-6.04-8.52-12.09-17.05-18.48-25.31 8.71-9.15 17.12-18.08 22.05-29.94 4.49-10.57 5.16-21.98 3.5-33.25-2.34-16.76-9.76-32.65-21.34-45.04 3.82 5.92 7.44 11.9 10.08 18.44 6.38 15.03 7.77 31.07 6.55 47.23-6.18-6.74-12.67-13.16-18.84-19.91-1.76-1.89-3.5-3.93-5.52-5.54-1.03.18-1.88 1.28-2.66 1.94l-27.17 27.74c-9.02-6.44-19.87-9.93-30.99-9.04-6.13.67-12.38 2.79-17.35 6.5-.27.73-.4 1.55-.55 2.32 8.6-5.18 19.13-6.85 28.89-4.43 10.31 2.4 19.22 8.89 26.53 16.33 7.87 8.08 14.99 17.22 21.78 26.22 12.77 17.26 25.01 34.94 37.94 52.08 7.87 10.21 16.56 21.36 27.23 28.75 8.23 5.89 18.65 7.9 28.56 6.08 14.26-2.46 25.3-10.44 35.79-19.91-8.44 5.91-17.09 11.03-27.03 14.02-10.07 3.17-20.92 2.84-30.91-.51 12.29-12.55 24.5-25.17 36.82-37.69-8.6-9.78-17.92-18.93-26.83-28.44.66-16.52.24-34.47-5.99-50.01-2.5-6.47-6.42-12.02-10.7-17.43 16.48 16.59 32.73 33.4 48.97 50.23 14.6 14.92 29.13 29.93 43.47 45.11-21.85 22.34-43.46 44.89-65.31 67.23-6.8 6.97-14.43 13.3-24.01 15.92-8.34 2.34-17.26 1.26-25.01-2.5-8.99-4.21-16.58-12.5-23.03-19.88-14.8-17.66-27.81-36.96-41.5-55.49-8.16-11.05-16.2-22.44-25.27-32.77-6.49-7.12-13.43-13.84-22.45-17.62-8.44-3.66-18.31-3.57-27.05-1.05-13.74 3.85-24.47 11.96-34.87 21.38 11.71-7.95 22.91-15.11 37.12-17.71 8.71-1.58 17.5-.23 25.64 3.07-13.03 13.19-26.03 26.41-39.01 39.65 9.8 10.44 19.95 20.55 29.69 31.05-.21 15.31-.44 30.72 3.67 45.62 1.93 7.32 5.46 13.96 9.85 20.08-5.95-5.74-11.54-11.81-17.4-17.64-25.75-26.46-51.74-52.68-77.24-79.38 23.13-23.74 46.68-47.05 69.94-70.66 3.58-3.56 7.3-6.93 11.6-9.61-.5-.43-1.01-.86-1.51-1.29 4.25-3.69 8.06-7.97 12.06-11.95 22.58-22.76 44.88-45.83 67.53-68.52m-106.5 112.65c8.67-5.26 19.37-8.34 29.52-6.8 7.73 1.1 14.71 4.63 20.86 9.34 6.86 5.32 12.85 11.88 18.42 18.51 13.13 16 24.82 33.25 37.1 49.91 9.1 12.64 18.25 25.79 28.62 37.4 6.44 6.95 13.98 13.92 23.15 16.94 9.16 3.03 19.14 1.57 27.37-3.35 11.19-6.53 20.72-17.57 29.73-26.78-7.46 5.24-16.07 8.45-25.28 8.08-9.76-.27-18.74-4.54-26.19-10.66-8.48-6.96-15.94-15.67-22.66-24.31-13.98-18.44-27.14-37.5-40.97-56.05-7.89-10.36-16.05-21.53-25.86-30.15-6.94-6.04-14.98-10.87-24.3-11.83-8.74-1.03-17.38 1.59-24.53 6.6-9.18 6.34-16.95 15.41-24.98 23.15"/><path id="d" d="M458.02 232.86c9.32.96 17.36 5.79 24.3 11.83 9.81 8.62 17.97 19.79 25.86 30.15 13.83 18.55 26.99 37.61 40.97 56.05 6.72 8.64 14.18 17.35 22.66 24.31 7.45 6.12 16.43 10.39 26.19 10.66 9.21.37 17.82-2.84 25.28-8.08-9.01 9.21-18.54 20.25-29.73 26.78-8.23 4.92-18.21 6.38-27.37 3.35-9.17-3.02-16.71-9.99-23.15-16.94-10.37-11.61-19.52-24.76-28.62-37.4-12.28-16.66-23.97-33.91-37.1-49.91-5.57-6.63-11.56-13.19-18.42-18.51-6.15-4.71-13.13-8.24-20.86-9.34-10.15-1.54-20.85 1.54-29.52 6.8 8.03-7.74 15.8-16.81 24.98-23.15 7.15-5.01 15.79-7.63 24.53-6.6"/><path id="e" d="M451.6 273.52c2.49 1.59 4.74 3.59 7.03 5.45-5.14 12.42-7.6 25.65-8.3 39.03-1.03 18.61-.23 37.39.38 56.01 5.28-10.68 12.98-18.94 19.74-28.56 4.68-6.72 8.57-14.16 9.49-22.42.68-6.44.27-12.87-.58-19.26 3.19 4.72 7.35 9.13 9.75 14.3 1.22 8.01-.62 16.73-4.08 24.02-5.9 12.67-16.45 22.2-22.66 35.15-5.01 10.06-6.39 22.29-2.57 32.97 3.3 9.04 10.99 16.42 17.89 22.86-5.52-7.31-10.97-13.97-13.98-22.8-4.13-11.64-2.15-24.2 3.73-34.85 8.37-15.22 22.15-27.64 30.99-42.65 6.04 8.84 12.59 17.3 18.83 25.99-7.61 7.8-15.34 16.26-20.77 25.75-6.64 11.65-9.15 25.23-7.71 38.52 1.6 15.62 8.96 30.22 19.35 41.83-7.75-11.8-13.36-24.67-14.71-38.85-1.11-8.09-.18-15.96.18-24.05 7.33 7.48 14.33 15.43 22.07 22.49 10.38-10.57 20.78-21.13 31.06-31.81 9.61 6.52 21.24 10.08 32.76 7.01 7.04-1.73 12.17-5.84 17.72-10.24-2.66 2.94-5.36 5.83-8.15 8.65-24.76 25.64-49.17 51.63-74.04 77.17-14.18-14.24-27.97-28.86-42.12-43.14-5.45-5.67-10.96-10.96-15.81-17.15-6.46-8.45-10.98-18.32-13.2-28.72-3.02-13.79-2.65-28.05-3.01-42.22.04-24.38.37-47.87 10.72-70.48"/><path id="f" d="M724.51 274.17c5.84-.04 11.68-.01 17.51.03 13 17.75 26.22 35.33 39.2 53.09-.02-12.43-.01-24.86.05-37.29-.03-2.99.01-6.4-.99-9.25-.9-2.4-3.24-4.33-5.01-6.12 6.54-.04 13.09-.05 19.63.04-2.03 2.09-4.28 3.98-5.15 6.86-.92 3.32-.91 7.04-.95 10.47-.01 19.31-.09 38.62-.1 57.94-1.84-.02-3.67-.03-5.51-.05-7.16-8.93-13.79-18.27-20.74-27.37-7.72-10.52-15.74-20.85-23.28-31.51-.26 15.33.03 30.69-.02 46.02-.21 5.07 2.24 8.52 5.71 11.88-6.47-.11-12.94-.01-19.41-.05 1.97-2.29 4.13-4.29 4.95-7.31.86-3.36.87-7.09.9-10.55-.04-14.33.03-28.67.02-43-.07-2.56-.05-5.62-1.38-7.9-1.32-2.24-3.57-4.12-5.43-5.93"/><path id="g" d="M808.35 275.18c16.37.04 32.75.15 49.12.03-.07 5.55.2 11.11-.07 16.66-2.84-2.42-4.1-6.08-7.05-8.19-2.45-1.8-5.41-2.11-8.34-2.25-5.2-.13-10.4-.01-15.6-.04-.03 8.79.07 17.58.01 26.37 4.45-.05 8.98.21 13.4-.27 4.14-.38 6.84-3.99 9.85-6.49.77 6.74.32 13.62.36 20.4-3.02-2.47-5.09-6.64-9.02-7.27-4.74-.86-9.77-.34-14.58-.41.06 9.8-.06 19.61.03 29.42 6.78-.13 14.13.51 20.75-1.02 6.09-1.83 8-6.63 12.39-10.57-.22 5.92-1.21 11.82-1.9 17.71-16.41-.08-32.83-.03-49.24-.02 1.36-1.78 3.05-3.62 3.93-5.7.96-2.62.92-5.78.97-8.54.03-14-.07-28 .02-42-.03-3.62.16-7.46-.6-11.01-.52-2.66-2.75-4.78-4.43-6.81"/><path id="h" d="M869.14 275.85c8.25-.12 16.51-.02 24.76-.01-1.19 1.63-2.49 3.27-3.35 5.1.35 1.86 1.33 3.62 2.24 5.26 3.4 5.94 6.86 11.84 10.45 17.68 3.69-5.55 7.39-11.11 10.92-16.76 1.01-1.78 2.5-4.06 2.15-6.17-.89-1.85-2.45-3.49-3.75-5.07 6.85 0 13.69-.08 20.54.05-3.29 2.85-6.49 5.64-8.85 9.34-5.57 8.33-11.05 16.72-16.54 25.1 6.25 10.04 12.48 20.1 18.82 30.09 2.14 3.47 5.04 6.15 8.08 8.81-8.4.02-16.79-.02-25.18.06 1.15-1.59 3.03-3.34 3.4-5.33-.3-1.41-1.09-2.76-1.8-4.01-4.07-6.79-8.18-13.55-12.2-20.37-4.35 6.72-8.82 13.37-13.09 20.13-.74 1.4-2.17 3.2-1.31 4.81.92 1.68 2.31 3.16 3.51 4.64-6.58-.03-13.14.09-19.71-.02 4.44-4.14 8.13-8.43 11.45-13.52 4.99-7.43 10.03-14.83 14.93-22.31-6.07-9.63-11.86-19.42-17.87-29.09-2-3.32-4.78-5.81-7.6-8.41"/><path id="i" d="M1028.49 276.76c10.13-2.31 22.41-.66 30.6 6.12 7.3 5.99 11.54 14.8 12.53 24.11.78 8.02.28 16.24-2.86 23.75-3.91 9.55-12.12 17.16-22.2 19.71-11.84 2.99-25.67.33-34.24-8.77-6.02-6.11-9.06-14.2-9.8-22.65-.84-9.67.39-19.49 5.72-27.8 4.47-7.28 11.94-12.54 20.25-14.47m2.94 5.8c-5.27 1.62-9.44 6.3-11.62 11.24-3.59 7.98-3.82 17.62-3.21 26.22.76 7.47 2.89 15.52 8.59 20.79 6.75 6.39 18.56 6.16 24.86-.76 6.44-6.96 7.76-16.92 8.03-26.02 0-8.9-1.46-18.76-7.23-25.9-4.63-5.76-12.46-7.59-19.42-5.57"/><path id="j" d="M944.27 276.75c16.12-.05 32.24.07 48.36 0-.1 5.68.17 11.39-.19 17.05-3.95-3.45-4.5-8.32-10.17-10.04-6.51-1.55-13.75-.63-20.43-.89.03 8.95.05 17.92.02 26.88 4.35-.03 8.78.24 13.12-.21 4.2-.25 7.12-4.17 10.12-6.76-.09 6.91.44 13.93-.33 20.8-2.51-2.95-4.56-6.86-8.74-7.53-4.65-.66-9.49-.23-14.18-.32.04 6.43.02 12.85-.01 19.27.02 2.8.01 5.83.77 8.54.71 2.21 2.71 4.15 4.16 5.92-7.35-.15-14.71-.09-22.06.01 1.48-2.11 3.34-4.05 3.8-6.66.52-2.89.58-5.89.6-8.81-.01-14 .02-28 0-42.01-.07-2.98-.1-6.11-.79-9.04-.58-2.35-2.57-4.35-4.05-6.2"/><path id="k" d="M1262.03 278.52c7.72-.79 15.43.53 22.29 4.2-.19 5.4-.05 10.77-.58 16.16-2.63-.98-2.95-3.21-4.27-5.38-2.13-4.07-5.33-7.64-9.96-8.75-4.04-.85-8.57-.91-11.89 1.9-4.43 3.66-4.32 10.99.04 14.68 6.94 6.32 19.18 8.49 25.96 16.08 6.87 7.27 6.7 19.85-.07 27.12-4.5 4.92-10.95 7.34-17.55 7.39-7.88.4-15.46-1.6-22.26-5.54.11-5.69.15-11.32.57-17.01 1.37.95 2.23 1.83 2.99 3.34 2.37 4.32 4.64 8.41 9.1 10.92 5.15 2.88 12.54 3 17.01-1.22 4.73-4.66 4.38-12.86-.8-17.05-6.69-5.71-17.61-8.03-24.16-14.83-6.79-6.56-6.74-18.62-.29-25.38 3.65-3.83 8.65-6.04 13.87-6.63"/><path id="l" d="M1079.21 278.55c8.6-.02 17.19-.03 25.8-.06 6.6.05 13.68 1.11 18.69 5.8 7.27 6.5 7.23 19.12.64 26.07-2.71 3.01-6.04 4.66-9.61 6.42 5.54 8.03 10.21 16.72 15.88 24.65 2.43 3.37 5.54 5.88 8.6 8.64-4.91.03-10.23.67-15.03-.46-4.89-1.3-7.44-5.77-9.84-9.83-4.01-6.95-7.66-14.12-11.86-20.96-1.95.02-3.91.04-5.86.05.1 7.71-.33 15.48.19 23.17.18 3.34 2.11 5.37 4.1 7.8-7.14-.14-14.29-.01-21.43 0 1.85-2.42 3.71-4.43 4.11-7.6.55-4.37.37-8.85.45-13.24-.2-12.67-.04-25.34-.13-38.01-.08-3.71-.2-7.09-2.67-10.08-.67-.79-1.35-1.58-2.03-2.36m17.36 5.79c-.04 9.7.03 19.39.04 29.08 5.18-.12 10.2.2 14.41-3.38 4.62-4.02 5.4-10.09 4.45-15.86-.74-3.94-3.06-7.44-6.91-8.89-3.67-1.33-8.13-.84-11.99-.95"/><path id="m" d="M1142.18 278.52c19.21.01 38.41.1 57.62.01-.07 6 .24 12.04-.13 18.03-3.67-2.94-4.33-7.27-8.43-9.81-3.72-2.41-9.3-1.87-13.57-2.01 0 17.09.06 34.17.03 51.26.02 2.76.08 5.84.99 8.47.84 2.09 2.61 3.95 4.01 5.7-7.47-.07-14.93-.04-22.39-.01 1.43-1.92 3.17-3.8 3.81-6.15.79-2.98.71-5.96.73-9.01 0-16.79.04-33.58-.05-50.37-4.22.13-9.58-.28-13.4 1.75-4.01 2.14-5.34 6.37-8.24 9.6l-1.19-.42c-.17-5.67.36-11.35.21-17.04"/><path id="n" d="M1207.7 279.19c7.07.01 14.13.05 21.2-.06-1.54 2.12-3.36 4.23-3.88 6.86-.57 2.92-.41 6.05-.43 9.01-.02 13.33.07 26.67-.01 40 .02 3.13.02 6.57.93 9.58.68 2.03 2.23 3.9 3.48 5.62-7.06-.11-14.12-.1-21.18.01 2.43-3.12 4.08-6.17 4.05-10.24.15-14.65-.05-29.32.06-43.97-.04-3.39.15-6.93-.46-10.28-.47-2.54-2.27-4.52-3.76-6.53"/><path id="o" d="M1031.43 282.56c6.96-2.02 14.79-.19 19.42 5.57 5.77 7.14 7.23 17 7.23 25.9-.27 9.1-1.59 19.06-8.03 26.02-6.3 6.92-18.11 7.15-24.86.76-5.7-5.27-7.83-13.32-8.59-20.79-.61-8.6-.38-18.24 3.21-26.22 2.18-4.94 6.35-9.62 11.62-11.24"/><path id="p" d="M1108.56 285.29c3.85 1.45 6.17 4.95 6.91 8.89.95 5.77.17 11.84-4.45 15.86-4.21 3.58-9.23 3.26-14.41 3.38-.01-9.69-.08-19.38-.04-29.08 3.86.11 8.32-.38 11.99.95"/><path id="q" d="M809.48 377.57c4.09 2.33 4.22 8.68.56 11.45-2.63 2.12-5.68 1.76-8.84 1.96-.03 2.44-.04 4.89-.05 7.33-1.2 0-2.39-.01-3.59-.02 0-7.28.05-14.55-.01-21.83 3.73.14 8.56-.71 11.93 1.11m-8.32 1.74c0 2.99.03 5.99.09 8.98 2.42-.47 6.24.02 7.4-2.67.58-1.91.57-4.73-1.58-5.65-1.8-.7-4-.5-5.91-.66"/><path id="r" d="M821.52 376.53c3.41-.21 7.12-.44 10.45.44 3.47 1.05 4.86 4.62 3.92 7.97-.42 1.94-2.47 3.25-3.84 4.55 2.03 2.95 4.05 5.9 6.12 8.83h-4.26c-1.82-2.9-3.68-5.76-5.61-8.58l-3.17.03c-.02 2.83-.02 5.66-.02 8.49l-3.71.06c.1-7.26-.08-14.54.12-21.79m3.65 10.85c1.61-.12 3.29-.1 4.86-.49 2.93-.77 3.56-5.45.87-6.86-1.63-.85-3.89-.69-5.69-.68-.2 2.66-.08 5.36-.04 8.03"/><path id="s" d="M845.91 376.46c4.53-.04 9.05-.05 13.57-.04.02 1.03.03 2.06.04 3.09-3.3-.02-6.6-.02-9.89-.01v6.25c2.75-.01 5.51-.03 8.26-.05l.03 2.93c-2.78-.02-5.57-.03-8.35-.04l.03 6.68c3.37 0 6.75-.02 10.12-.04l-.09 3.07c-4.58-.05-9.16-.04-13.74 0 .01-7.28.03-14.56.02-21.84"/><path id="t" d="M885.21 377.78c-.4.97-.81 1.93-1.21 2.9-2.87-1.03-5.4-2.11-8.49-1.02-5.97 2.33-5.92 13.64.34 15.58 3.13.94 5.5-.32 8.33-1.4.28 1 .56 2 .84 3.01-2.37.85-4.45 1.81-7.03 1.8-4.05.13-7.94-2.28-9.58-5.99-2.12-5.23-.83-11.94 4.19-15.04 4.1-2.43 8.45-1.52 12.61.16"/><path id="u" d="m919.88 377.57-1.23 2.94c-2.75-.9-5.04-2.14-7.92-.79-.76 1.01-1.03 2.69-.17 3.71 2.54 2.05 6.55 2.83 8.73 5.28 2.32 2.8 1.35 7.03-1.77 8.78-3.95 2.18-7.6.91-11.48-.56.26-1.07.52-2.14.79-3.2 2.82 1.12 5.12 2.56 8.28 1.62 1.83-.87 2.44-2.96 1.15-4.55-2.34-2.06-5.92-2.71-8.27-4.82-2.55-2.49-1.75-7.01 1.23-8.78 3.4-1.96 7.23-.83 10.66.37"/><path id="v" d="M929.24 376.57c1.13-.12 2.25-.21 3.39-.27-.05 7.34-.01 14.69-.04 22.04l-3.46-.03c.04-7.24-.18-14.51.11-21.74"/><path id="w" d="M948.47 376.6c3.73-.98 7.81-.5 10.66 2.29 4 3.81 4.17 11.02 1.2 15.48-3.54 5.48-12.39 5.71-16.44.71-4.56-5.61-2.78-16.09 4.58-18.48m.99 2.93c-4.69 1.54-4.94 7.99-3.68 11.91 1.39 4.04 6.27 5.45 9.76 3.17 3.58-2.29 3.66-7.96 2.38-11.52-1.33-3.52-5.06-4.64-8.46-3.56"/><path id="x" d="M971.28 376.46c.91-.06 1.83-.07 2.76-.04a460 460 0 0 1 11.5 15.84c-.02-5.29.05-10.58.03-15.87l3.26.02c-.03 7.41.02 14.82-.09 22.22-1.94-.38-3.07-.47-4.18-2.2-3.47-4.81-6.97-9.6-10.33-14.5.01 5.45.01 10.9.1 16.35-1.15 0-2.3-.01-3.45-.01.19-7.25-.27-14.6.4-21.81"/><path id="y" d="M1022.27 379.88c.32 3.73-2.03 4.98-4.67 6.82 1.64 1.71 3.23 3.46 4.79 5.24.49-1.54.9-3.13 1.54-4.62l3.04-.43c-.67 2.42-1.48 4.72-2.55 6.99 1.33 1.47 2.66 2.94 3.98 4.41-1.43 0-2.85-.01-4.28-.02-.61-.69-1.23-1.38-1.84-2.08-2.39 1.35-4.42 2.73-7.33 2.34-3.38-.31-6.52-2.92-6.08-6.55.31-2.75 2.3-3.84 4.15-5.57-1.18-2.37-2.55-4.2-1.6-6.99 1.79-4.48 9.58-4.48 10.85.46m-6.05 5.66c1.38-1.74 3.6-2.95 2.9-5.48-1.14-2.01-3.23-1.63-4.65-.15-.4 2.27.87 3.68 1.75 5.63m4.42 8.93c-2-2.18-3.97-4.38-6.03-6.51-1.63 1.97-3.56 4.34-1.24 6.67 2.28 2.23 4.8.78 7.27-.16"/><path id="z" d="M1045.17 376.41c.06 7.26.01 14.53.01 21.8-1.2.02-2.4.03-3.6.04.12-7.28.06-14.58.04-21.87z"/><path id="A" d="M1055.17 376.4c.95-.01 1.89.01 2.83.08 3.83 5.31 7.92 10.47 11.4 16.02-.14-5.38-.02-10.74-.08-16.12l3.36.03c-.05 7.31-.05 14.62-.04 21.93-.96-.02-1.93-.05-2.89-.07-3.89-5.37-7.78-10.74-11.53-16.22-.01 5.4-.01 10.81.02 16.21-1.11-.01-2.23-.02-3.35-.02.19-7.26-.34-14.61.28-21.84"/><path id="B" d="M1079.79 376.54c5.36-.27 10.77-.01 16.15-.15-.02 1.06-.03 2.13-.05 3.2-2.12-.03-4.24-.05-6.36-.08.03 6.24-.04 12.49-.05 18.74h-3.6c.03-6.26 0-12.52.03-18.77-2.17.03-4.33.05-6.5.07.1-1.01.23-2.01.38-3.01"/><path id="C" d="M1103.37 376.55c4.39-.3 8.82-.07 13.22-.13-.01 1.02-.02 2.04-.04 3.06-3.26 0-6.53-.01-9.8-.03l.06 6.3c2.71-.01 5.41-.04 8.12-.06l.27 2.93c-2.81 0-5.61-.01-8.42-.02 0 2.23 0 4.45-.01 6.68 3.35-.04 6.7-.05 10.06-.04-.03 1-.05 1.99-.07 2.99-4.5.01-8.99.01-13.49.02.1-7.22-.18-14.48.1-21.7"/><path id="D" d="M1141.56 377.8c-.47.92-.94 1.84-1.41 2.75-3.09-1-5.93-2.19-9.07-.53-4.26 2.32-4.38 9.25-1.95 12.87 2.23 3.12 5.64 2.52 9 2.53v-7.33c1.11 0 2.23 0 3.34-.01l.09 8.93c-4.23 1.66-8.45 2.43-12.61.08-7-3.97-6.56-16.02.47-19.72 4.01-2.04 8.17-1.24 12.14.43"/><path id="E" d="M1150.37 376.54c3.41-.18 7.26-.52 10.54.53 2.98 1.13 4.19 3.83 3.73 6.9-.28 2.58-2.3 3.76-4 5.47 2.08 2.89 4.08 5.84 6.09 8.78-1.35 0-2.7.01-4.06.01-1.91-2.82-3.78-5.68-5.61-8.55-1.11.02-2.22.03-3.34.05-.01 2.81-.01 5.62-.03 8.43-1.15.03-2.3.05-3.46.08.13-7.22-.19-14.49.14-21.7m3.38 2.68q-.015 4.095 0 8.19c2.23-.25 4.44-.57 6.65-.97.33-2 1.52-4.02-.01-5.8-1.54-1.57-4.6-1.12-6.64-1.42"/><path id="F" d="M1173.45 376.55c1.1-.12 2.21-.22 3.32-.28.03 7.32-.01 14.65.04 21.97h-3.49c.08-7.22-.13-14.47.13-21.69"/><path id="G" d="M1183.57 376.53c5.29-.24 10.61-.02 15.91-.11l-.09 3.1c-2.08-.01-4.17-.01-6.25-.02.04 6.25-.03 12.49-.01 18.74-1.2.01-2.41.03-3.61.04.01-6.27-.02-12.54-.01-18.81-2.11.04-4.21.09-6.31.12.1-1.03.22-2.05.37-3.06"/><path id="H" d="M1203.67 376.42c1.29-.01 2.58-.01 3.87-.01 1.81 3.49 3.63 6.99 5.34 10.53 1.72-3.51 3.54-6.97 5.31-10.46l3.65-.09c-2 3.8-4.14 7.51-6.19 11.28-1.89 2.88-.98 7.22-1.14 10.55l-3.45.06c-.11-3.66.74-7.79-1.36-10.96-2.05-3.61-4.09-7.23-6.03-10.9"/><path id="I" d="m893.53 376.43 3.59.03c.05 7.28-.01 14.55 0 21.83-1.2 0-2.4.01-3.6.02.05-7.29-.08-14.59.01-21.88"/><path id="J" d="M1019.12 380.06c.7 2.53-1.52 3.74-2.9 5.48-.88-1.95-2.15-3.36-1.75-5.63 1.42-1.48 3.51-1.86 4.65.15"/><path id="K" d="M801.16 379.31c1.91.16 4.11-.04 5.91.66 2.15.92 2.16 3.74 1.58 5.65-1.16 2.69-4.98 2.2-7.4 2.67-.06-2.99-.09-5.99-.09-8.98"/><path id="L" d="M825.21 379.35c1.8-.01 4.06-.17 5.69.68 2.69 1.41 2.06 6.09-.87 6.86-1.57.39-3.25.37-4.86.49-.04-2.67-.16-5.37.04-8.03"/><path id="M" d="M949.46 379.53c3.4-1.08 7.13.04 8.46 3.56 1.28 3.56 1.2 9.23-2.38 11.52-3.49 2.28-8.37.87-9.76-3.17-1.26-3.92-1.01-10.37 3.68-11.91"/><path id="N" d="M1153.75 379.22c2.04.3 5.1-.15 6.64 1.42 1.53 1.78.34 3.8.01 5.8-2.21.4-4.42.72-6.65.97q-.015-4.095 0-8.19"/><path id="O" d="M1014.61 387.96c2.06 2.13 4.03 4.33 6.03 6.51-2.47.94-4.99 2.39-7.27.16-2.32-2.33-.39-4.7 1.24-6.67"/></defs><g stroke-width="10pt"><use xlink:href="#a" stroke="#fff"/><use xlink:href="#b" stroke="#001d3f"/><use xlink:href="#c" stroke="#fff"/><use xlink:href="#d" stroke="#001d3f"/><use xlink:href="#e" stroke="#fff"/><use xlink:href="#f" stroke="#fff"/><use xlink:href="#g" stroke="#fff"/><use xlink:href="#h" stroke="#fff"/><use xlink:href="#i" stroke="#fff"/><use xlink:href="#j" stroke="#fff"/><use xlink:href="#k" stroke="#fff"/><use xlink:href="#l" stroke="#fff"/><use xlink:href="#m" stroke="#fff"/><use xlink:href="#n" stroke="#fff"/><use xlink:href="#o" stroke="#001d3f"/><use xlink:href="#p" stroke="#001d3f"/><use xlink:href="#q" stroke="#fff"/><use xlink:href="#r" stroke="#fff"/><use xlink:href="#s" stroke="#fff"/><use xlink:href="#t" stroke="#fff"/><use xlink:href="#u" stroke="#fff"/><use xlink:href="#v" stroke="#fff"/><use xlink:href="#w" stroke="#fff"/><use xlink:href="#x" stroke="#fff"/><use xlink:href="#y" stroke="#fff"/><use xlink:href="#z" stroke="#fff"/><use xlink:href="#A" stroke="#fff"/><use xlink:href="#B" stroke="#fff"/><use xlink:href="#C" stroke="#fff"/><use xlink:href="#D" stroke="#fff"/><use xlink:href="#E" stroke="#fff"/><use xlink:href="#F" stroke="#fff"/><use xlink:href="#G" stroke="#fff"/><use xlink:href="#H" stroke="#fff"/><use xlink:href="#I" stroke="#fff"/><use xlink:href="#J" stroke="#001d3f"/><use xlink:href="#K" stroke="#001d3f"/><use xlink:href="#L" stroke="#001d3f"/><use xlink:href="#M" stroke="#001d3f"/><use xlink:href="#N" stroke="#001d3f"/><use xlink:href="#O" stroke="#001d3f"/></g><use xlink:href="#a" fill="#fff"/><use xlink:href="#b" fill="#001d3f"/><use xlink:href="#c" fill="#fff"/><use xlink:href="#d" fill="#001d3f"/><use xlink:href="#e" fill="#fff"/><use xlink:href="#f" fill="#fff"/><use xlink:href="#g" fill="#fff"/><use xlink:href="#h" fill="#fff"/><use xlink:href="#i" fill="#fff"/><use xlink:href="#j" fill="#fff"/><use xlink:href="#k" fill="#fff"/><use xlink:href="#l" fill="#fff"/><use xlink:href="#m" fill="#fff"/><use xlink:href="#n" fill="#fff"/><use xlink:href="#o" fill="#001d3f"/><use xlink:href="#p" fill="#001d3f"/><use xlink:href="#q" fill="#fff"/><use xlink:href="#r" fill="#fff"/><use xlink:href="#s" fill="#fff"/><use xlink:href="#t" fill="#fff"/><use xlink:href="#u" fill="#fff"/><use xlink:href="#v" fill="#fff"/><use xlink:href="#w" fill="#fff"/><use xlink:href="#x" fill="#fff"/><use xlink:href="#y" fill="#fff"/><use xlink:href="#z" fill="#fff"/><use xlink:href="#A" fill="#fff"/><use xlink:href="#B" fill="#fff"/><use xlink:href="#C" fill="#fff"/><use xlink:href="#D" fill="#fff"/><use xlink:href="#E" fill="#fff"/><use xlink:href="#F" fill="#fff"/><use xlink:href="#G" fill="#fff"/><use xlink:href="#H" fill="#fff"/><use xlink:href="#I" fill="#fff"/><use xlink:href="#J" fill="#001d3f"/><use xlink:href="#K" fill="#001d3f"/><use xlink:href="#L" fill="#001d3f"/><use xlink:href="#M" fill="#001d3f"/><use xlink:href="#N" fill="#001d3f"/><use xlink:href="#O" fill="#001d3f"/></svg>