<svg xmlns="http://www.w3.org/2000/svg" xmlns:xlink="http://www.w3.org/1999/xlink" width="1672pt" height="836" viewBox="0 0 1672 627"><defs><path id="a" d="M0 0h1672v627H0zm382.96 216.55c.41.06.82.12 1.22.19 3.9-2.73 8.06-4.88 12.78-5.73 11.49-2.2 22.66 1.44 32.03 8.06 9.08-9.18 18.34-18.2 27.33-27.46 7.88 8.08 15.76 16.17 23.69 24.21 1.49-10.2 1.37-20.3-1.24-30.31-2.72-11.31-8.05-21.44-14.47-31.05 8.69 9.84 14.95 21.48 17.65 34.37 2.76 12.3 2.06 25.18-3.28 36.7-4.79 10.74-12.34 18.44-20.42 26.69 6.05 8.04 11.97 16.19 17.79 24.4 6.98-14.17 20.98-24.93 28.84-38.72 3.72-6.33 5.68-13.56 5.31-20.92-.39-7.76-3.52-14.85-8.13-21.01-4.77-6.23-9.82-12.26-14.78-18.33 5.26 4.75 10.12 9.97 14.72 15.37 4.6 5.46 8.55 11.87 9.99 18.95 1.97 9.58-.21 19.5-5.2 27.83-5.3 9.18-13.21 16.45-18.59 25.42-3.81 6.28-5.61 13.48-5.7 20.79 2.72 3.71 5.51 7.38 8.11 11.19-.71-9.09.84-18.12 5.6-25.97 6.29-10.35 15.52-17.84 20.92-29.09 2.82-5.21 3.8-10.76 4.54-16.56-.13 3.8-.31 7.53-1.23 11.24-.93 3.94-2.86 7.01-2.67 11.19-.24 24.52 1.85 47.67-7.13 71.08 2 1.53 4.03 3.02 6.08 4.49 6.1-14.1 8.69-29.26 8.95-44.56.11-9 .02-18.01-.01-27.01-.09-10.48-.45-20.87-3.59-30.94-1.98-6.79-5.22-13.07-9.25-18.85-4.38-5.99-10.22-11.29-15.42-16.63-13.88-13.84-27.61-27.75-41.44-41.63-18.5 18.16-36.7 36.65-55.05 54.96-5.99 5.86-11.71 12.03-17.95 17.64m133.86-11.54c12.42 17.68 11.37 38.44 11.38 58.99 8.5 8.73 17.12 17.37 25.73 26-11.47 11.67-23.12 23.15-34.46 34.93 9.04 3.81 19.02 3.88 28.3.86 12.59-3.92 24.29-12.74 34.42-20.99-10.33 10.54-23.68 21.36-38.39 24.58-9.77 2.39-20.2 1.18-28.7-4.36-8.14-5.4-15.13-13.35-21.28-20.87-11.39-14.36-21.84-29.46-32.76-44.19-8.61-11.66-17.39-24.11-27.97-34.07-8.85-8.15-19.78-13.75-32.1-13.14-7.67.38-14.13 3.53-20.69 7.24-1.58 1.12-2.97 2.59-4.36 3.94-22.05 21.95-44.01 44-66.01 65.99 28.12 28.59 56.62 56.81 84.64 85.49 1.38 1.54 2.99 2.3 4.74 3.27 2.97 3.73 5.99 7.27 9.39 10.62 15.64 15.83 31.43 31.52 47.08 47.34 25.21-25.4 50.44-50.8 75.6-76.24-5.52 4.2-11.35 7.56-18.37 8.26-10.14 1.13-19.7-2.26-27.88-8.08-9.62 9.84-19.42 19.51-29.11 29.27-6.96-7.11-13.91-14.23-21.02-21.18-1.54 9.89-1.59 19.78.96 29.52 2.65 10.91 8.02 20.82 14.29 30.03-9.75-10.7-16.92-24.68-18.39-39.2-1.57-12.7 1.42-26 8.39-36.76 4.95-7.9 11.92-14.79 18.36-21.51-6-8.08-12.06-16.13-17.88-24.35-3.52 8.02-10 15.09-15.34 22.02-6.57 8.51-14.87 17.42-18.14 27.78-2.92 8.9-2.13 18.64 2.75 26.69 5.19 8.52 12.38 15.83 18.32 23.85-7.63-7.81-16.46-15.83-21.65-25.52-5.14-9.56-4.48-20.77-.02-30.46 4.57-10.32 13.11-18.33 19.05-27.97 4.99-7.95 7.53-17.45 7.16-26.83-.01-1.24-.9-2.28-1.53-3.3-2.47-3.6-5.12-7.05-7.8-10.49 2.48 10.97.79 22.78-4.82 32.54-5.99 10.52-15.98 20.05-20.9 31.12-1.99 4.21-2.73 8.66-3.42 13.22-.29-5.22 1.27-9.93 1.9-15.01-.66-14.98-.62-30.05-.41-45.05.31-13.38 2.31-26.51 7.73-38.85a370 370 0 0 0-6.24-4.84c-9 18.81-9.97 38.22-9.61 58.7.34 17.39-1.06 38.09 6.1 54.19 1.17 3.25 3.67 5.37 2.73 8.9-3.76-5.56-6.74-11.58-8.37-18.12-3.51-13.75-2.85-27.05-2.86-41.12-8.94-9.27-18.06-18.36-27.1-27.54 12.28-12.06 24.25-24.43 36.48-36.54-8.24-3.88-16.84-4.86-25.72-2.62-14.41 3.51-27.7 13.32-39.22 22.3 10.29-9.81 22.61-19.92 36.43-24.02 9.96-3.09 20.73-2.76 29.89 2.5 9.64 5.48 17.56 14.97 24.49 23.49 11.24 14.47 21.83 29.45 32.77 44.16 8.96 11.95 17.94 25 29 35.05 6.45 5.95 14.75 10.59 23.57 11.52 11.6 1.29 23.8-4.08 31.62-12.56 21.18-21.15 42.13-42.54 63.25-63.75-27.95-28.33-56.33-56.23-84-84.83m468.67 18.75c-13.93 1.92-26.23 11-31.73 24-3.84 9.09-4.46 19.6-2.4 29.21 2.37 11.32 9.76 21.36 20.02 26.78 14.59 7.48 34.3 6.39 47.29-3.96 12.16-9.69 17.06-25.71 15.05-40.82-1.17-10.05-5.82-19.54-13.54-26.16-9.29-8.2-22.68-10.75-34.69-9.05m-352.1.67c3.25 3.78 7.39 5.96 7.71 11.49.32 17.33.02 34.74.14 52.08-.03 3.12.18 6.52-.61 9.55-.91 3.43-4.42 5.73-6.54 8.6 8.07.04 16.16.1 24.22-.02-2.77-3.73-6.77-5.2-6.98-10.36-.29-16.79-.06-33.66-.16-50.47 15.61 20.53 31.49 40.88 47.57 61.04 2.82-.03 5.64-.03 8.47-.02 0-22.79-.01-45.57.03-68.36.06-2.77.19-5.5 1.85-7.85 1.46-2.02 3.44-3.71 5.15-5.53-7.81-.42-15.77-.35-23.59-.1 1.94 2.22 4.58 4.29 5.9 6.93 1.24 3.19.77 7.21.86 10.59.08 12.38-.12 24.76.07 37.14-13.9-18.38-28.07-36.56-42.12-54.83-7.32.08-14.65-.12-21.97.12m93.53 81.74c19.81.12 39.63-.02 59.44.05.71-6.83 1.36-13.67 1.84-20.53-2.97.93-4.09 3.28-6.16 5.35-3.41 3.71-7.94 6.23-13.01 6.6-6.25.41-12.54.02-18.8.2.13-10.06.04-20.13.01-30.2 5.52.26 11.33-.53 16.75.52 4.65 1.07 5.71 5.18 9.67 7.08.23-7.52.17-15.1 0-22.62-4.14 2.48-6.28 6.28-11.21 6.9-5.04.45-10.16.1-15.23.26.06-9.04.09-18.08-.01-27.12 5.94.07 11.89-.07 17.83.14 4.53.14 8.85 1.82 11.72 5.42 2.24 2.28 2.72 5.32 6.47 5.21-.45-6.33-.64-12.67-.76-19.01-19.48.19-39.05-.22-58.51.15 1.46 2.38 3.81 4.02 5.13 6.43 1.03 2.04.99 4.76 1.05 7-.02 18.33 0 36.67.01 55-.07 2.23-.1 4.87-1.13 6.9-1.45 2.25-3.46 4.14-5.1 6.27m71.4-81.54c2.27 3.09 5.16 5.57 7.24 8.82 7.1 10.86 14 21.86 21.08 32.73-6.36 9.4-13.04 18.59-19.57 27.87-2.74 3.97-5.99 7.44-9.58 10.66-.06.51-.11 1.03-.16 1.55 7.96-.14 15.92.03 23.88-.12-1.59-2.17-4.6-4.35-5.17-7.05 4.87-8.41 11.11-16.15 16.31-24.39 4.39 6.62 8.43 13.47 12.75 20.14 1.01 1.62 2.18 3.34 2.78 5.16-.73 2.33-3.09 4.22-4.53 6.17 10.18.02 20.38.09 30.56-.04-2.4-3.31-5.73-5.65-7.98-9.1-6.96-10.12-13.35-20.65-20.12-30.9-.99-1.87-2.67-3.24-.96-5.31 5.95-8.68 12.04-17.26 17.98-25.95 2.58-3.89 6.03-6.76 9.14-10.18-8.02-.27-16.09-.23-24.11-.01 1.6 2.08 3.2 4.15 4.72 6.29-4.04 8.18-9.96 15.46-14.86 23.15-4.82-7.73-9.83-15.38-14.13-23.41 1.42-2.12 2.99-4.12 4.57-6.11-9.93-.13-19.91-.15-29.84.03m84.17.71c1.59 1.77 3.47 3.44 4.81 5.41 1.29 1.91 1.25 4.01 1.31 6.21.01 17.35.01 34.69.03 52.04-.06 3.24.34 6.82-.54 9.96-1.06 2.73-3.75 4.79-5.4 7.21 9.99.1 20 .18 29.99-.06-1.71-1.9-3.66-3.58-5.29-5.54-1.32-1.53-1.19-3.67-1.29-5.56.02-8.46.04-16.92-.01-25.38 5.48.17 11.34-.57 16.71.57 4.73 1.31 5.7 5.89 9.94 7.59-.03-7.96.4-16.01-.25-23.95-3.68 2.82-6.18 6.66-10.95 7.54-5.07.68-10.32.21-15.44.39.03-9.48.04-18.95.01-28.43 6.54.15 13.19-.33 19.7.33 6 .9 9.33 5.02 12.43 9.81l2.68-.12c-.03-6.16-.22-12.33-.26-18.49-15.56.04-31.11 0-46.67.01-3.85-.07-7.68-.01-11.51.46m356.08 57.32c-1.15.24-2.3.47-3.45.7.04 6.25.03 12.5.04 18.75 10.98 5.94 24.69 8.25 36.83 4.93 6.5-1.79 12.39-5.24 16.06-11.04 5.31-8.35 4.08-20.06-2.93-27.08-8.02-8.55-21.55-10.94-30.55-17.54-3.1-2.2-5.11-5.59-4.72-9.48.38-3.91 3.27-7.06 6.92-8.28 5.12-1.71 11.12-.97 15.61 2.05 4.47 3.2 6.99 7.8 9.47 12.56 1.34-.27 2.68-.53 4.03-.8-.05-5.84-.03-11.68-.04-17.52-9.77-4.34-20.47-6.14-31.05-4.06-5.96 1.21-11.47 3.81-15.43 8.54-4.88 5.63-6.11 13.84-3.49 20.75 1.86 4.54 5.21 7.99 9.22 10.72 7.19 4.99 15.74 7.43 22.87 12.19 2.41 1.71 4.97 4.05 5.94 6.92 1.85 5.35-.6 11.62-5.77 14.06-6.85 3.27-15.85 1.36-21.2-3.95-3.91-3.52-5.94-7.87-8.36-12.42m-198.72-56.15c1.65 1.83 3.68 3.58 4.97 5.69 1.01 1.66.97 3.91 1.05 5.79.01 18.67-.01 37.35.01 56.01-.06 1.91.04 4.19-.75 5.96-1.28 2.38-3.52 4.36-5.28 6.4 9.73.16 19.57.13 29.3-.06-1.73-2.05-3.91-3.83-5.4-6.07-.81-1.88-.83-4.21-.88-6.23.02-7.27.06-14.54 0-21.82 2.03-.01 4.07-.02 6.1-.02 3.71 6.27 7.41 12.54 11.07 18.84 2.44 3.99 4.9 8.47 8.23 11.78 2.62 2.63 6.1 3.67 9.73 3.84 5.02.16 10.17.1 15.18-.25-1.39-1.49-2.92-2.8-4.52-4.04-4.06-3.08-7.18-7.76-10.06-11.91-4.57-6.98-9.22-13.91-13.76-20.91 5.73-2.21 10.86-5.14 14.17-10.49 5.59-8.94 3.73-21.76-5.2-27.82-8.84-5.92-19.7-5-29.81-5.06-8.03.23-16.15-.39-24.15.37m74.33 20.13 3.2-.51c2.92-3.17 4.44-6.93 8.24-9.44 4.57-3.08 10-2.45 15.22-2.59.03 18.63-.02 37.27.02 55.9-.05 3.07.31 6.49-.57 9.45-1.19 2.61-3.74 4.71-5.56 6.88 10.01.19 20.15.26 30.17 0-1.73-1.98-3.81-3.71-5.35-5.83-1.6-2.62-1.09-6.55-1.18-9.5-.07-18.95.07-37.9-.07-56.85 4.64.13 10.45-.51 14.53 2.01 4.03 2.31 6.41 6.48 8.94 10.22l3.17-.03a853 853 0 0 0-.67-20.22c-22.91.17-46.01-.1-68.88.14-.77 6.74-.69 13.59-1.21 20.37m83.52-20.37c4.28 3.37 8.36 6.96 12.38 10.63 3.33 3.05 6.97 5.92 9.78 9.36-.04-3.87-.26-8.5 1.27-12.12 1.3-3.2 3.66-5.41 5.98-7.87-9.8 0-19.61.05-29.41 0m-1.21 1.29c.07 22.14-.02 44.29-.01 66.44-.08 2.42 0 4.93-1.48 6.98-1.39 1.91-3.12 3.59-4.67 5.36 9.92.19 19.98.23 29.9-.04-1.8-1.99-4-3.85-5.42-6.13-1.15-2.04-1.03-4.89-1.07-7.17.09-15.34-.01-30.67.04-46.01-.18-2.08.45-3.88-1.38-5.35-5.22-4.77-10.57-9.45-15.91-14.08m-687.72 89.76c8.09-22.32 6.24-44.2 6.46-67.44-5.2 8.18-12.46 14.82-17.33 23.1-3.98 6.82-4.83 14.27-5.03 22.04.1 2.36.04 4.54 1.66 6.44 4.37 5.59 9.05 11.01 14.24 15.86m-110.36 22.84c6.03-11.46 16.25-20.27 20.79-31.94 2.99-7.6 2.94-15.18 2.51-23.21-.23-2.54-.13-4.81-1.86-6.86-4.36-5.67-9.09-11.32-14.43-16.1-5.05 11.87-6.58 24.17-6.96 36.96-.35 13.71-.05 27.44-.05 41.15m318.19-4.94c-.02 8.88.05 17.76-.01 26.64 1.3.02 2.59.03 3.89.05-.03-3.32-.03-6.64-.02-9.96 3.97-.13 7.84.31 11.2-2.23 4.45-3.15 4.2-11.23-1.08-13.41-4.14-1.78-9.54-.86-13.98-1.09m27.5 26.67c1.27-.01 2.54-.01 3.81-.02-.02-3.57-.02-7.14-.03-10.71 1.63-.01 3.26-.01 4.9 0 2.31 3.46 4.34 7.14 6.85 10.46 1.55.33 3.22.24 4.8.33-2.76-3.8-5.39-7.7-8.3-11.38 2.18-1.41 4.58-2.35 5.48-5 1.4-3.92-.11-8.3-4.26-9.62-4.17-1.11-8.85-.74-13.13-.62-.22 8.84-.02 17.71-.12 26.56m28.37-.01q8.07-.015 16.14 0c-.01-1.04-.03-2.08-.04-3.12-4.09.02-8.19.01-12.28.02.04-3.07.05-6.14.04-9.21 3.64.02 7.28.01 10.92.03l.02-3.03c-3.66.04-7.31.07-10.96.12.01-2.78.01-5.57-.01-8.35 4.08-.02 8.17-.02 12.25.01.01-1.05.01-2.09.02-3.14-5.32.06-10.67-.13-15.98.07-.28 8.85.02 17.74-.12 26.6m44.29-.75c.05-1.13.09-2.26.14-3.4-4.06 1.26-7.75 2.5-11.79.28-5.78-3.51-5.97-13.65-1.08-17.97 3.85-3.05 7.91-2.17 12.2-.71l1.38-2.82c-4.95-1.93-10.11-2.54-14.88.24-8.1 4.9-8.31 18.74-.24 23.75 4.66 2.79 9.31 1.94 14.27.63m9.41.99c1.23-.01 2.47-.01 3.7-.02.13-8.97-.17-17.96.26-26.91q-1.95 0-3.9.12c-.21 8.92-.08 17.88-.06 26.81m27.52-7.21c-.78 1.18-1.42 3.2-2.85 3.71-3.65 1.6-7.78-.01-11.26-1.31v3.64c4.81 1.28 9.41 2.54 14.01-.21 3.35-1.92 4.28-6.39 2.44-9.65-2.51-3.5-8.08-4.24-11.32-6.73-2.3-1.82-1.18-5.23 1.43-6.02 3.25-1.08 6.03.12 9.12 1 .22-1.07.44-2.15.66-3.23-4.65-1.2-8.99-2.32-13.35.48-3.45 2.36-3.82 7.72-.59 10.42 4.09 3.26 8.94 2.84 11.71 7.9m12.54 7.01 3.85-.06c.04-8.92-.03-17.83.02-26.75-1.24.03-2.48.1-3.71.2-.31 8.85.03 17.75-.16 26.61m21.29-26.23c-8.71 3.27-10.17 15.8-4.71 22.46 4.49 5.55 13.95 5.54 18.73.39 4.72-4.89 5-13.68.98-19.07-3.47-4.6-9.76-5.62-15-3.78m27.16-.48c-.07 8.89-.04 17.79-.11 26.68 1.22-.02 2.43-.03 3.65-.05-.16-7.37.25-14.81-.41-22.14 4.55 7.55 9.75 14.65 14.49 22.08 1.32.03 2.65.07 3.97.1.05-8.9.04-17.79.03-26.69-1.2 0-2.41 0-3.61-.01-.07 7.15-.15 14.28.12 21.42-4.27-7.36-9.33-14.27-14.04-21.36zm48.95 11.78c-2.91 2.18-5.78 3.88-5.57 8.02-.14 4.86 4.66 7.4 8.97 7.29 3.15.02 5.39-1.52 7.93-3.12.96.84 1.9 1.81 3 2.48 1.56.18 3.15.17 4.72.21-1.81-1.78-3.62-3.56-5.43-5.33 1.62-2.69 2.77-5.32 3.67-8.32-1.1-.03-2.2-.05-3.29-.08-.76 2.16-1.56 4.31-2.41 6.44-2.25-2.42-4.51-4.82-6.81-7.18 2.56-1.79 5.06-2.98 5.9-6.26.67-2.95-1.5-5.49-4.29-6.08-3.45-.88-8.68.76-8.92 4.94-.41 2.88.97 4.76 2.53 6.99m33.67 14.93 3.84-.12c-.01-8.9 0-17.8.01-26.7-1.25.04-2.5.11-3.74.21-.21 8.86.01 17.74-.11 26.61m14.93-.05c1.18-.01 2.36-.01 3.54-.02-.06-7.34.03-14.68-.24-22.03 4.52 7.53 9.56 14.7 14.4 22.02 1.29 0 2.59.01 3.89.02-.02-8.88-.01-17.76-.02-26.64-1.18-.01-2.37-.03-3.56-.05.04 7.16-.07 14.34.17 21.49-4.34-7.34-9.33-14.3-13.98-21.44-1.36 0-2.73-.01-4.08.08-.2 8.84.02 17.72-.12 26.57m29.17-26.69c0 1.06.01 2.12.01 3.18 2.8-.03 5.61-.04 8.41-.04.01 7.84.01 15.69.01 23.54l3.94.03c-.1-7.85-.01-15.7-.05-23.54 2.9-.02 5.81-.02 8.72.01 0-1.05-.01-2.11-.01-3.16-7.01 0-14.02.03-21.03-.02m28.28.01c.03 8.89.06 17.78-.05 26.67 5.35-.04 10.7-.04 16.04-.06 0-1.03-.01-2.06-.02-3.09-4.06.04-8.12.05-12.18.04-.01-3.05-.02-6.1-.04-9.16 3.68.02 7.37.02 11.05.03l-.05-3.06c-3.65.05-7.3.06-10.95.08q.03-4.185 0-8.37c4.04.04 8.09.03 12.13.05l.03-3.15c-5.32.02-10.64.04-15.96.02m45.81 25.35c-.02-4.22-.01-8.44-.02-12.65-3.09 0-6.38-.21-9.44.35l-.45 2.48c2.09.04 4.19.06 6.28.07-.01 2.65-.01 5.3-.02 7.94-4.74.71-9.29 1.07-12.6-3.02-3.58-4.94-2.58-14.35 3.6-16.9 3.96-1.7 7.44-.56 11.35.48l.66-2.9c-5.37-2.39-13.01-2.29-17.43 2.02-5.99 5.52-5.6 17.25 1.46 21.75 5.33 3.22 11.05 2.44 16.61.38m9.91 1.31 4-.03c-.02-3.69-.08-7.38-.09-11.07 1.54.06 3.07.19 4.58.41 2.73 3.23 4.79 7.09 7.18 10.59 1.53.02 3.05.05 4.58.07-2.69-3.84-5.28-7.74-8.08-11.5 1.99-1.3 4.13-2.17 5.13-4.48 1.68-3.79.35-8.5-3.81-9.87-4.17-1.23-9-.75-13.32-.67-.21 8.84.04 17.7-.17 26.55m27.75-.01c1.23.01 2.46.01 3.69.01-.04-8.92.02-17.84-.03-26.77-1.2.05-2.39.12-3.58.22-.2 8.84-.01 17.7-.08 26.54m10.72-26.61c.01 1.04.02 2.07.02 3.11 2.83 0 5.65-.01 8.47-.04-.06 7.85 0 15.71-.08 23.56 1.32-.02 2.64-.03 3.96-.04-.05-7.83-.02-15.65-.03-23.47 2.79 0 5.59-.01 8.38 0 .03-1.05.05-2.11.07-3.17-6.93.06-13.86.01-20.79.05m24.65-.06c2.6 4.5 5.08 9.07 7.74 13.54 2.56 3.45 1.12 9.01 1.39 13.14 1.31 0 2.63.01 3.95.01.22-4.06-1.05-9.47 1.3-12.96 2.65-4.56 5.3-9.12 7.93-13.69-1.39-.01-2.78-.02-4.17-.04-2.23 4.45-4.77 8.71-6.93 13.19-2.18-4.44-4.63-8.72-6.91-13.11-1.44-.02-2.87-.05-4.3-.08"/><path id="b" d="M455.96 143.95c13.83 13.88 27.56 27.79 41.44 41.63 5.2 5.34 11.04 10.64 15.42 16.63 4.03 5.78 7.27 12.06 9.25 18.85 3.14 10.07 3.5 20.46 3.59 30.94.03 9 .12 18.01.01 27.01-.26 15.3-2.85 30.46-8.95 44.56-2.05-1.47-4.08-2.96-6.08-4.49 8.98-23.41 6.89-46.56 7.13-71.08-.19-4.18 1.74-7.25 2.67-11.19.92-3.71 1.1-7.44 1.23-11.24-.74 5.8-1.72 11.35-4.54 16.56-5.4 11.25-14.63 18.74-20.92 29.09-4.76 7.85-6.31 16.88-5.6 25.97-2.6-3.81-5.39-7.48-8.11-11.19.09-7.31 1.89-14.51 5.7-20.79 5.38-8.97 13.29-16.24 18.59-25.42 4.99-8.33 7.17-18.25 5.2-27.83-1.44-7.08-5.39-13.49-9.99-18.95-4.6-5.4-9.46-10.62-14.72-15.37 4.96 6.07 10.01 12.1 14.78 18.33 4.61 6.16 7.74 13.25 8.13 21.01.37 7.36-1.59 14.59-5.31 20.92-7.86 13.79-21.86 24.55-28.84 38.72-5.82-8.21-11.74-16.36-17.79-24.4 8.08-8.25 15.63-15.95 20.42-26.69 5.34-11.52 6.04-24.4 3.28-36.7-2.7-12.89-8.96-24.53-17.65-34.37 6.42 9.61 11.75 19.74 14.47 31.05 2.61 10.01 2.73 20.11 1.24 30.31-7.93-8.04-15.81-16.13-23.69-24.21-8.99 9.26-18.25 18.28-27.33 27.46-9.37-6.62-20.54-10.26-32.03-8.06-4.72.85-8.88 3-12.78 5.73-.4-.07-.81-.13-1.22-.19 6.24-5.61 11.96-11.78 17.95-17.64 18.35-18.31 36.55-36.8 55.05-54.96"/><path id="c" d="M516.82 205.01c27.67 28.6 56.05 56.5 84 84.83-21.12 21.21-42.07 42.6-63.25 63.75-7.82 8.48-20.02 13.85-31.62 12.56-8.82-.93-17.12-5.57-23.57-11.52-11.06-10.05-20.04-23.1-29-35.05-10.94-14.71-21.53-29.69-32.77-44.16-6.93-8.52-14.85-18.01-24.49-23.49-9.16-5.26-19.93-5.59-29.89-2.5-13.82 4.1-26.14 14.21-36.43 24.02 11.52-8.98 24.81-18.79 39.22-22.3 8.88-2.24 17.48-1.26 25.72 2.62-12.23 12.11-24.2 24.48-36.48 36.54 9.04 9.18 18.16 18.27 27.1 27.54.01 14.07-.65 27.37 2.86 41.12 1.63 6.54 4.61 12.56 8.37 18.12.94-3.53-1.56-5.65-2.73-8.9-7.16-16.1-5.76-36.8-6.1-54.19-.36-20.48.61-39.89 9.61-58.7 2.1 1.59 4.18 3.21 6.24 4.84-5.42 12.34-7.42 25.47-7.73 38.85-.21 15-.25 30.07.41 45.05-.63 5.08-2.19 9.79-1.9 15.01.69-4.56 1.43-9.01 3.42-13.22 4.92-11.07 14.91-20.6 20.9-31.12 5.61-9.76 7.3-21.57 4.82-32.54 2.68 3.44 5.33 6.89 7.8 10.49.63 1.02 1.52 2.06 1.53 3.3.37 9.38-2.17 18.88-7.16 26.83-5.94 9.64-14.48 17.65-19.05 27.97-4.46 9.69-5.12 20.9.02 30.46 5.19 9.69 14.02 17.71 21.65 25.52-5.94-8.02-13.13-15.33-18.32-23.85-4.88-8.05-5.67-17.79-2.75-26.69 3.27-10.36 11.57-19.27 18.14-27.78 5.34-6.93 11.82-14 15.34-22.02 5.82 8.22 11.88 16.27 17.88 24.35-6.44 6.72-13.41 13.61-18.36 21.51-6.97 10.76-9.96 24.06-8.39 36.76 1.47 14.52 8.64 28.5 18.39 39.2-6.27-9.21-11.64-19.12-14.29-30.03-2.55-9.74-2.5-19.63-.96-29.52 7.11 6.95 14.06 14.07 21.02 21.18 9.69-9.76 19.49-19.43 29.11-29.27 8.18 5.82 17.74 9.21 27.88 8.08 7.02-.7 12.85-4.06 18.37-8.26-25.16 25.44-50.39 50.84-75.6 76.24-15.65-15.82-31.44-31.51-47.08-47.34-3.4-3.35-6.42-6.89-9.39-10.62-1.75-.97-3.36-1.73-4.74-3.27-28.02-28.68-56.52-56.9-84.64-85.49 22-21.99 43.96-44.04 66.01-65.99 1.39-1.35 2.78-2.82 4.36-3.94 6.56-3.71 13.02-6.86 20.69-7.24 12.32-.61 23.25 4.99 32.1 13.14 10.58 9.96 19.36 22.41 27.97 34.07 10.92 14.73 21.37 29.83 32.76 44.19 6.15 7.52 13.14 15.47 21.28 20.87 8.5 5.54 18.93 6.75 28.7 4.36 14.71-3.22 28.06-14.04 38.39-24.58-10.13 8.25-21.83 17.07-34.42 20.99-9.28 3.02-19.26 2.95-28.3-.86 11.34-11.78 22.99-23.26 34.46-34.93-8.61-8.63-17.23-17.27-25.73-26-.01-20.55 1.04-41.31-11.38-58.99m-159.86 42.9c9.91-7.05 22.82-9.51 34.57-6.24 8.73 2.38 15.48 7.76 21.83 13.97 9.4 9.53 17.45 20.8 25.46 31.51 8.59 11.76 17.14 23.56 25.79 35.27 5.3 7.27 10.89 14.38 16.97 21.01 6.83 7.19 14.28 13.55 24.26 15.64 9.28 2.11 18.5-.69 26.01-6.25 8.95-6.65 16.46-15.41 24.78-22.89-5.33 3.8-11.09 6.68-17.61 7.67-10.41 1.81-21-1.02-29.59-7.03-11.79-8.04-21.11-21.04-29.68-32.33-11.81-16.15-23.36-32.57-35.48-48.52-7.06-9.09-15-18.98-24.86-25.12-6.89-4.45-15.23-6.75-23.41-5.49-6.93.87-13.34 4.83-18.59 9.27-7.21 6.05-13.56 13.08-20.45 19.53"/><path id="d" d="M396 219.11c8.18-1.26 16.52 1.04 23.41 5.49 9.86 6.14 17.8 16.03 24.86 25.12 12.12 15.95 23.67 32.37 35.48 48.52 8.57 11.29 17.89 24.29 29.68 32.33 8.59 6.01 19.18 8.84 29.59 7.03 6.52-.99 12.28-3.87 17.61-7.67-8.32 7.48-15.83 16.24-24.78 22.89-7.51 5.56-16.73 8.36-26.01 6.25-9.98-2.09-17.43-8.45-24.26-15.64-6.08-6.63-11.67-13.74-16.97-21.01-8.65-11.71-17.2-23.51-25.79-35.27-8.01-10.71-16.06-21.98-25.46-31.51-6.35-6.21-13.1-11.59-21.83-13.97-11.75-3.27-24.66-.81-34.57 6.24 6.89-6.45 13.24-13.48 20.45-19.53 5.25-4.44 11.66-8.4 18.59-9.27m-29.82 22.02c7.7-2.84 15.44-4.37 23.61-2.49 13.75 2.84 23.66 12.83 32.52 23.03 11.67 13.79 21.94 28.83 32.68 43.34 8.5 11.69 16.82 23.72 26.4 34.57 6.42 7.2 13.98 14.18 23.55 16.67 7.78 2.26 16.06.74 22.91-3.41 6.85-4.16 12.87-10.16 18.85-15.46-7.82 3.56-16.51 4.24-24.77 1.9-7.33-1.95-13.74-5.87-19.41-10.83-10.76-9.29-19.53-21.6-27.94-33-11.84-16.15-23.25-32.67-35.54-48.48-6.73-8.4-14.68-17.62-24.54-22.35-8.51-4.23-18.75-4.65-27.31-.33-8.17 4.08-14.21 10.81-21.01 16.84"/><path id="e" d="M414.5 224.62c9.86 4.73 17.81 13.95 24.54 22.35 12.29 15.81 23.7 32.33 35.54 48.48 8.41 11.4 17.18 23.71 27.94 33 5.67 4.96 12.08 8.88 19.41 10.83 8.26 2.34 16.95 1.66 24.77-1.9-5.98 5.3-12 11.3-18.85 15.46-6.85 4.15-15.13 5.67-22.91 3.41-9.57-2.49-17.13-9.47-23.55-16.67-9.58-10.85-17.9-22.88-26.4-34.57-10.74-14.51-21.01-29.55-32.68-43.34-8.86-10.2-18.77-20.19-32.52-23.03-8.17-1.88-15.91-.35-23.61 2.49 6.8-6.03 12.84-12.76 21.01-16.84 8.56-4.32 18.8-3.9 27.31.33"/><path id="f" d="M985.49 223.76c12.01-1.7 25.4.85 34.69 9.05 7.72 6.62 12.37 16.11 13.54 26.16 2.01 15.11-2.89 31.13-15.05 40.82-12.99 10.35-32.7 11.44-47.29 3.96-10.26-5.42-17.65-15.46-20.02-26.78-2.06-9.61-1.44-20.12 2.4-29.21 5.5-13 17.8-22.08 31.73-24m-.02 8.84c-5.71 2.21-9.89 7.09-12.26 12.62-3.6 8.21-4.1 17.96-3.51 26.79.71 8.48 3.27 17.59 9.8 23.47 6.78 6.09 17.56 6.41 24.66.69 6.67-5.37 9.34-13.99 10.34-22.18.75-8.59.6-18.03-2.31-26.23-1.74-5.06-4.69-9.76-9.08-12.91-4.94-3.62-11.94-4.27-17.64-2.25"/><path id="g" d="M633.39 224.43c7.32-.24 14.65-.04 21.97-.12 14.05 18.27 28.22 36.45 42.12 54.83-.19-12.38.01-24.76-.07-37.14-.09-3.38.38-7.4-.86-10.59-1.32-2.64-3.96-4.71-5.9-6.93 7.82-.25 15.78-.32 23.59.1-1.71 1.82-3.69 3.51-5.15 5.53-1.66 2.35-1.79 5.08-1.85 7.85-.04 22.79-.03 45.57-.03 68.36a598 598 0 0 0-8.47.02 3338 3338 0 0 1-47.57-61.04c.1 16.81-.13 33.68.16 50.47.21 5.16 4.21 6.63 6.98 10.36-8.06.12-16.15.06-24.22.02 2.12-2.87 5.63-5.17 6.54-8.6.79-3.03.58-6.43.61-9.55-.12-17.34.18-34.75-.14-52.08-.32-5.53-4.46-7.71-7.71-11.49"/><path id="h" d="M726.96 224.57c19.46-.37 39.03.04 58.51-.15.12 6.34.31 12.68.76 19.01-3.75.11-4.23-2.93-6.47-5.21-2.87-3.6-7.19-5.28-11.72-5.42-5.94-.21-11.89-.07-17.83-.14.1 9.04.07 18.08.01 27.12 5.07-.16 10.19.19 15.23-.26 4.93-.62 7.07-4.42 11.21-6.9.17 7.52.23 15.1 0 22.62-3.96-1.9-5.02-6.01-9.67-7.08-5.42-1.05-11.23-.26-16.75-.52.03 10.07.12 20.14-.01 30.2 6.26-.18 12.55.21 18.8-.2 5.07-.37 9.6-2.89 13.01-6.6 2.07-2.07 3.19-4.42 6.16-5.35-.48 6.86-1.13 13.7-1.84 20.53-19.81-.07-39.63.07-59.44-.05 1.64-2.13 3.65-4.02 5.1-6.27 1.03-2.03 1.06-4.67 1.13-6.9-.01-18.33-.03-36.67-.01-55-.06-2.24-.02-4.96-1.05-7-1.32-2.41-3.67-4.05-5.13-6.43"/><path id="i" d="M798.32 224.63c9.93-.18 19.91-.16 29.84-.03-1.58 1.99-3.15 3.99-4.57 6.11 4.3 8.03 9.31 15.68 14.13 23.41 4.9-7.69 10.82-14.97 14.86-23.15-1.52-2.14-3.12-4.21-4.72-6.29 8.02-.22 16.09-.26 24.11.01-3.11 3.42-6.56 6.29-9.14 10.18-5.94 8.69-12.03 17.27-17.98 25.95-1.71 2.07-.03 3.44.96 5.31 6.77 10.25 13.16 20.78 20.12 30.9 2.25 3.45 5.58 5.79 7.98 9.1-10.18.13-20.38.06-30.56.04 1.44-1.95 3.8-3.84 4.53-6.17-.6-1.82-1.77-3.54-2.78-5.16-4.32-6.67-8.36-13.52-12.75-20.14-5.2 8.24-11.44 15.98-16.31 24.39.57 2.7 3.58 4.88 5.17 7.05-7.96.15-15.92-.02-23.88.12.05-.52.1-1.04.16-1.55 3.59-3.22 6.84-6.69 9.58-10.66 6.53-9.28 13.21-18.47 19.57-27.87-7.08-10.87-13.98-21.87-21.08-32.73-2.08-3.25-4.97-5.73-7.24-8.82"/><path id="j" d="M882.49 225.34c3.83-.47 7.66-.53 11.51-.46 15.56-.01 31.11.03 46.67-.01.04 6.16.23 12.33.26 18.49l-2.68.12c-3.1-4.79-6.43-8.91-12.43-9.81-6.51-.66-13.16-.18-19.7-.33.03 9.48.02 18.95-.01 28.43 5.12-.18 10.37.29 15.44-.39 4.77-.88 7.27-4.72 10.95-7.54.65 7.94.22 15.99.25 23.95-4.24-1.7-5.21-6.28-9.94-7.59-5.37-1.14-11.23-.4-16.71-.57.05 8.46.03 16.92.01 25.38.1 1.89-.03 4.03 1.29 5.56 1.63 1.96 3.58 3.64 5.29 5.54-9.99.24-20 .16-29.99.06 1.65-2.42 4.34-4.48 5.4-7.21.88-3.14.48-6.72.54-9.96-.02-17.35-.02-34.69-.03-52.04-.06-2.2-.02-4.3-1.31-6.21-1.34-1.97-3.22-3.64-4.81-5.41"/><path id="k" d="M1285.84 229.91c.01 5.84-.01 11.68.04 17.52-1.35.27-2.69.53-4.03.8-2.48-4.76-5-9.36-9.47-12.56-4.49-3.02-10.49-3.76-15.61-2.05-3.65 1.22-6.54 4.37-6.92 8.28-.39 3.89 1.62 7.28 4.72 9.48 9 6.6 22.53 8.99 30.55 17.54 7.01 7.02 8.24 18.73 2.93 27.08-3.67 5.8-9.56 9.25-16.06 11.04-12.14 3.32-25.85 1.01-36.83-4.93-.01-6.25 0-12.5-.04-18.75 1.15-.23 2.3-.46 3.45-.7 2.42 4.55 4.45 8.9 8.36 12.42 5.35 5.31 14.35 7.22 21.2 3.95 5.17-2.44 7.62-8.71 5.77-14.06-.97-2.87-3.53-5.21-5.94-6.92-7.13-4.76-15.68-7.2-22.87-12.19-4.01-2.73-7.36-6.18-9.22-10.72-2.62-6.91-1.39-15.12 3.49-20.75 3.96-4.73 9.47-7.33 15.43-8.54 10.58-2.08 21.28-.28 31.05 4.06"/><path id="l" d="M1064 226.14c10.11.06 20.97-.86 29.81 5.06 8.93 6.06 10.79 18.88 5.2 27.82-3.31 5.35-8.44 8.28-14.17 10.49 4.54 7 9.19 13.93 13.76 20.91 2.88 4.15 6 8.83 10.06 11.91 1.6 1.24 3.13 2.55 4.52 4.04-5.01.35-10.16.41-15.18.25-3.63-.17-7.11-1.21-9.73-3.84-3.33-3.31-5.79-7.79-8.23-11.78-3.66-6.3-7.36-12.57-11.07-18.84-2.03 0-4.07.01-6.1.02.06 7.28.02 14.55 0 21.82.05 2.02.07 4.35.88 6.23 1.49 2.24 3.67 4.02 5.4 6.07-9.73.19-19.57.22-29.3.06 1.76-2.04 4-4.02 5.28-6.4.79-1.77.69-4.05.75-5.96-.02-18.66 0-37.34-.01-56.01-.08-1.88-.04-4.13-1.05-5.79-1.29-2.11-3.32-3.86-4.97-5.69 8-.76 16.12-.14 24.15-.37m-1.12 8.03c.03 10.2.03 20.41 0 30.62 5.11-.03 10.08.44 14.66-2.26 4.54-2.58 6.64-7.48 6.88-12.53.27-5-.97-10.17-5.22-13.23-4.46-3.43-11-2.43-16.32-2.6"/><path id="m" d="M1115.39 226.27c22.87-.24 45.97.03 68.88-.14.3 6.74.53 13.48.67 20.22l-3.17.03c-2.53-3.74-4.91-7.91-8.94-10.22-4.08-2.52-9.89-1.88-14.53-2.01.14 18.95 0 37.9.07 56.85.09 2.95-.42 6.88 1.18 9.5 1.54 2.12 3.62 3.85 5.35 5.83-10.02.26-20.16.19-30.17 0 1.82-2.17 4.37-4.27 5.56-6.88.88-2.96.52-6.38.57-9.45-.04-18.63.01-37.27-.02-55.9-5.22.14-10.65-.49-15.22 2.59-3.8 2.51-5.32 6.27-8.24 9.44l-3.2.51c.52-6.78.44-13.63 1.21-20.37"/><path id="n" d="M1197.7 226.27c9.8.05 19.61 0 29.41 0-2.32 2.46-4.68 4.67-5.98 7.87-1.53 3.62-1.31 8.25-1.27 12.12-2.81-3.44-6.45-6.31-9.78-9.36-4.02-3.67-8.1-7.26-12.38-10.63"/><path id="o" d="M1196.49 227.56c5.34 4.63 10.69 9.31 15.91 14.08 1.83 1.47 1.2 3.27 1.38 5.35-.05 15.34.05 30.67-.04 46.01.04 2.28-.08 5.13 1.07 7.17 1.42 2.28 3.62 4.14 5.42 6.13-9.92.27-19.98.23-29.9.04 1.55-1.77 3.28-3.45 4.67-5.36 1.48-2.05 1.4-4.56 1.48-6.98-.01-22.15.08-44.3.01-66.44"/><path id="p" d="M985.47 232.6c5.7-2.02 12.7-1.37 17.64 2.25 4.39 3.15 7.34 7.85 9.08 12.91 2.91 8.2 3.06 17.64 2.31 26.23-1 8.19-3.67 16.81-10.34 22.18-7.1 5.72-17.88 5.4-24.66-.69-6.53-5.88-9.09-14.99-9.8-23.47-.59-8.83-.09-18.58 3.51-26.79 2.37-5.53 6.55-10.41 12.26-12.62"/><path id="q" d="M1062.88 234.17c5.32.17 11.86-.83 16.32 2.6 4.25 3.06 5.49 8.23 5.22 13.23-.24 5.05-2.34 9.95-6.88 12.53-4.58 2.7-9.55 2.23-14.66 2.26.03-10.21.03-20.42 0-30.62"/><path id="r" d="M515.23 249.88c-.22 23.24 1.63 45.12-6.46 67.44-5.19-4.85-9.87-10.27-14.24-15.86-1.62-1.9-1.56-4.08-1.66-6.44.2-7.77 1.05-15.22 5.03-22.04 4.87-8.28 12.13-14.92 17.33-23.1"/><path id="s" d="M405.42 262.05c5.34 4.78 10.07 10.43 14.43 16.1 1.73 2.05 1.63 4.32 1.86 6.86.43 8.03.48 15.61-2.51 23.21-4.54 11.67-14.76 20.48-20.79 31.94 0-13.71-.3-27.44.05-41.15.38-12.79 1.91-25.09 6.96-36.96"/><path id="t" d="M716.6 335.22c4.44.23 9.84-.69 13.98 1.09 5.28 2.18 5.53 10.26 1.08 13.41-3.36 2.54-7.23 2.1-11.2 2.23-.01 3.32-.01 6.64.02 9.96-1.3-.02-2.59-.03-3.89-.05.06-8.88-.01-17.76.01-26.64m3.85 2.97c.02 3.76.01 7.52 0 11.28 2.56-.35 6.08-.14 8.24-1.71 2.97-2.1 3.01-7.5-.65-8.95-2.37-.74-5.12-.52-7.59-.62"/><path id="u" d="M744.22 335.33c4.28-.12 8.96-.49 13.13.62 4.15 1.32 5.66 5.7 4.26 9.62-.9 2.65-3.3 3.59-5.48 5 2.91 3.68 5.54 7.58 8.3 11.38-1.58-.09-3.25 0-4.8-.33-2.51-3.32-4.54-7-6.85-10.46-1.64-.01-3.27-.01-4.9 0 .01 3.57.01 7.14.03 10.71-1.27.01-2.54.01-3.81.02.1-8.85-.1-17.72.12-26.56m3.7 13.12c2.26-.14 4.76.05 6.93-.63 3.16-1.07 4.3-5.27 2.37-7.92-2.09-2.21-6.47-1.66-9.23-1.49-.24 3.33-.08 6.7-.07 10.04"/><path id="v" d="M772.59 335.28c5.31-.2 10.66-.01 15.98-.07-.01 1.05-.01 2.09-.02 3.14-4.08-.03-8.17-.03-12.25-.01.02 2.78.02 5.57.01 8.35 3.65-.05 7.3-.08 10.96-.12l-.02 3.03c-3.64-.02-7.28-.01-10.92-.03.01 3.07 0 6.14-.04 9.21 4.09-.01 8.19 0 12.28-.02.01 1.04.03 2.08.04 3.12q-8.07-.015-16.14 0c.14-8.86-.16-17.75.12-26.6"/><path id="w" d="m817.61 336.51-1.38 2.82c-4.29-1.46-8.35-2.34-12.2.71-4.89 4.32-4.7 14.46 1.08 17.97 4.04 2.22 7.73.98 11.79-.28-.05 1.14-.09 2.27-.14 3.4-4.96 1.31-9.61 2.16-14.27-.63-8.07-5.01-7.86-18.85.24-23.75 4.77-2.78 9.93-2.17 14.88-.24"/><path id="x" d="M826.23 335.31q1.95-.12 3.9-.12c-.43 8.95-.13 17.94-.26 26.91-1.23.01-2.47.01-3.7.02-.02-8.93-.15-17.89.06-26.81"/><path id="y" d="M855.92 336.11c-.22 1.08-.44 2.16-.66 3.23-3.09-.88-5.87-2.08-9.12-1-2.61.79-3.73 4.2-1.43 6.02 3.24 2.49 8.81 3.23 11.32 6.73 1.84 3.26.91 7.73-2.44 9.65-4.6 2.75-9.2 1.49-14.01.21v-3.64c3.48 1.3 7.61 2.91 11.26 1.31 1.43-.51 2.07-2.53 2.85-3.71-2.77-5.06-7.62-4.64-11.71-7.9-3.23-2.7-2.86-8.06.59-10.42 4.36-2.8 8.7-1.68 13.35-.48"/><path id="z" d="M866.39 335.31c1.23-.1 2.47-.17 3.71-.2-.05 8.92.02 17.83-.02 26.75l-3.85.06c.19-8.86-.15-17.76.16-26.61"/><path id="A" d="M887.52 335.69c5.24-1.84 11.53-.82 15 3.78 4.02 5.39 3.74 14.18-.98 19.07-4.78 5.15-14.24 5.16-18.73-.39-5.46-6.66-4-19.19 4.71-22.46m2.64 2.43c-6.94 1.72-7.8 11.37-5.1 16.76 2.65 5.36 10.5 5.9 13.97 1.13 2.71-3.9 2.88-10.43.38-14.47-1.92-3.12-5.78-4.26-9.25-3.42"/><path id="B" d="m914.68 335.21 4.09.03c4.71 7.09 9.77 14 14.04 21.36-.27-7.14-.19-14.27-.12-21.42 1.2.01 2.41.01 3.61.01.01 8.9.02 17.79-.03 26.69-1.32-.03-2.65-.07-3.97-.1-4.74-7.43-9.94-14.53-14.49-22.08.66 7.33.25 14.77.41 22.14-1.22.02-2.43.03-3.65.05.07-8.89.04-17.79.11-26.68"/><path id="C" d="M970.02 335.06c2.79.59 4.96 3.13 4.29 6.08-.84 3.28-3.34 4.47-5.9 6.26 2.3 2.36 4.56 4.76 6.81 7.18.85-2.13 1.65-4.28 2.41-6.44 1.09.03 2.19.05 3.29.08-.9 3-2.05 5.63-3.67 8.32 1.81 1.77 3.62 3.55 5.43 5.33-1.57-.04-3.16-.03-4.72-.21-1.1-.67-2.04-1.64-3-2.48-2.54 1.6-4.78 3.14-7.93 3.12-4.31.11-9.11-2.43-8.97-7.29-.21-4.14 2.66-5.84 5.57-8.02-1.56-2.23-2.94-4.11-2.53-6.99.24-4.18 5.47-5.82 8.92-4.94m-3.12 10.9c1.61-1.73 4.34-3.18 3.99-5.93.03-3.25-4.61-3.27-5.94-.94-1.51 2.47.76 4.83 1.95 6.87m6.45 11.13c-2.75-2.59-5.27-5.38-7.81-8.18-2.92 1.94-5.24 4.94-2.89 8.38 3.18 3.57 7.21 1.76 10.7-.2"/><path id="D" d="M997.41 335.31c1.24-.1 2.49-.17 3.74-.21-.01 8.9-.02 17.8-.01 26.7l-3.84.12c.12-8.87-.1-17.75.11-26.61"/><path id="E" d="M1012.35 335.3c1.35-.09 2.72-.08 4.08-.08 4.65 7.14 9.64 14.1 13.98 21.44-.24-7.15-.13-14.33-.17-21.49 1.19.02 2.38.04 3.56.05.01 8.88 0 17.76.02 26.64-1.3-.01-2.6-.02-3.89-.02-4.84-7.32-9.88-14.49-14.4-22.02.27 7.35.18 14.69.24 22.03-1.18.01-2.36.01-3.54.02.14-8.85-.08-17.73.12-26.57"/><path id="F" d="M1041.4 335.18c7.01.05 14.02.02 21.03.02 0 1.05.01 2.11.01 3.16-2.91-.03-5.82-.03-8.72-.01.04 7.84-.05 15.69.05 23.54l-3.94-.03c0-7.85 0-15.7-.01-23.54-2.8 0-5.61.01-8.41.04 0-1.06-.01-2.12-.01-3.18"/><path id="G" d="M1069.68 335.19c5.32.02 10.64 0 15.96-.02l-.03 3.15c-4.04-.02-8.09-.01-12.13-.05q.03 4.185 0 8.37c3.65-.02 7.3-.03 10.95-.08l.05 3.06c-3.68-.01-7.37-.01-11.05-.03.02 3.06.03 6.11.04 9.16 4.06.01 8.12 0 12.18-.04.01 1.03.02 2.06.02 3.09-5.34.02-10.69.02-16.04.06.11-8.89.08-17.78.05-26.67"/><path id="H" d="m1114.85 336.39-.66 2.9c-3.91-1.04-7.39-2.18-11.35-.48-6.18 2.55-7.18 11.96-3.6 16.9 3.31 4.09 7.86 3.73 12.6 3.02.01-2.64.01-5.29.02-7.94-2.09-.01-4.19-.03-6.28-.07l.45-2.48c3.06-.56 6.35-.35 9.44-.35.01 4.21 0 8.43.02 12.65-5.56 2.06-11.28 2.84-16.61-.38-7.06-4.5-7.45-16.23-1.46-21.75 4.42-4.31 12.06-4.41 17.43-2.02"/><path id="I" d="M1125.57 335.3c4.32-.08 9.15-.56 13.32.67 4.16 1.37 5.49 6.08 3.81 9.87-1 2.31-3.14 3.18-5.13 4.48 2.8 3.76 5.39 7.66 8.08 11.5-1.53-.02-3.05-.05-4.58-.07-2.39-3.5-4.45-7.36-7.18-10.59-1.51-.22-3.04-.35-4.58-.41.01 3.69.07 7.38.09 11.07l-4 .03c.21-8.85-.04-17.71.17-26.55m3.71 13.09c2.5-.14 5.66.13 7.89-1.15 2.9-1.68 3.23-6.92-.04-8.42-2.39-.86-5.24-.65-7.74-.51-.23 3.35-.09 6.73-.11 10.08"/><path id="J" d="M1153.23 335.3c1.19-.1 2.38-.17 3.58-.22.05 8.93-.01 17.85.03 26.77-1.23 0-2.46 0-3.69-.01.07-8.84-.12-17.7.08-26.54"/><path id="K" d="M1163.87 335.23c6.93-.04 13.86.01 20.79-.05-.02 1.06-.04 2.12-.07 3.17-2.79-.01-5.59 0-8.38 0 .01 7.82-.02 15.64.03 23.47-1.32.01-2.64.02-3.96.04.08-7.85.02-15.71.08-23.56-2.82.03-5.64.04-8.47.04 0-1.04-.01-2.07-.02-3.11"/><path id="L" d="M1188.52 335.17c1.43.03 2.86.06 4.3.08 2.28 4.39 4.73 8.67 6.91 13.11 2.16-4.48 4.7-8.74 6.93-13.19 1.39.02 2.78.03 4.17.04-2.63 4.57-5.28 9.13-7.93 13.69-2.35 3.49-1.08 8.9-1.3 12.96-1.32 0-2.64-.01-3.95-.01-.27-4.13 1.17-9.69-1.39-13.14-2.66-4.47-5.14-9.04-7.74-13.54"/><path id="M" d="M747.99 338.41c2.76-.17 7.14-.72 9.23 1.49 1.93 2.65.79 6.85-2.37 7.92-2.17.68-4.67.49-6.93.63-.01-3.34-.17-6.71.07-10.04"/><path id="N" d="M890.16 338.12c3.47-.84 7.33.3 9.25 3.42 2.5 4.04 2.33 10.57-.38 14.47-3.47 4.77-11.32 4.23-13.97-1.13-2.7-5.39-1.84-15.04 5.1-16.76"/><path id="O" d="M970.89 340.03c.35 2.75-2.38 4.2-3.99 5.93-1.19-2.04-3.46-4.4-1.95-6.87 1.33-2.33 5.97-2.31 5.94.94"/><path id="P" d="M1129.39 338.31c2.5-.14 5.35-.35 7.74.51 3.27 1.5 2.94 6.74.04 8.42-2.23 1.28-5.39 1.01-7.89 1.15.02-3.35-.12-6.73.11-10.08"/><path id="Q" d="M720.45 338.19c2.47.1 5.22-.12 7.59.62 3.66 1.45 3.62 6.85.65 8.95-2.16 1.57-5.68 1.36-8.24 1.71.01-3.76.02-7.52 0-11.28"/><path id="R" d="M965.54 348.91c2.54 2.8 5.06 5.59 7.81 8.18-3.49 1.96-7.52 3.77-10.7.2-2.35-3.44-.03-6.44 2.89-8.38"/></defs><g stroke-width="10pt"><use xlink:href="#a" stroke="#fff"/><use xlink:href="#b" stroke="#010101"/><use xlink:href="#c" stroke="#010101"/><use xlink:href="#d" stroke="#fff"/><use xlink:href="#e" stroke="#010101"/><use xlink:href="#f" stroke="#010101"/><use xlink:href="#g" stroke="#010101"/><use xlink:href="#h" stroke="#010101"/><use xlink:href="#i" stroke="#010101"/><use xlink:href="#j" stroke="#010101"/><use xlink:href="#k" stroke="#010101"/><use xlink:href="#l" stroke="#010101"/><use xlink:href="#m" stroke="#010101"/><use xlink:href="#n" stroke="#010101"/><use xlink:href="#o" stroke="#010101"/><use xlink:href="#p" stroke="#fff"/><use xlink:href="#q" stroke="#fff"/><use xlink:href="#r" stroke="#010101"/><use xlink:href="#s" stroke="#010101"/><use xlink:href="#t" stroke="#010101"/><use xlink:href="#u" stroke="#010101"/><use xlink:href="#v" stroke="#010101"/><use xlink:href="#w" stroke="#010101"/><use xlink:href="#x" stroke="#010101"/><use xlink:href="#y" stroke="#010101"/><use xlink:href="#z" stroke="#010101"/><use xlink:href="#A" stroke="#010101"/><use xlink:href="#B" stroke="#010101"/><use xlink:href="#C" stroke="#010101"/><use xlink:href="#D" stroke="#010101"/><use xlink:href="#E" stroke="#010101"/><use xlink:href="#F" stroke="#010101"/><use xlink:href="#G" stroke="#010101"/><use xlink:href="#H" stroke="#010101"/><use xlink:href="#I" stroke="#010101"/><use xlink:href="#J" stroke="#010101"/><use xlink:href="#K" stroke="#010101"/><use xlink:href="#L" stroke="#010101"/><use xlink:href="#M" stroke="#fff"/><use xlink:href="#N" stroke="#fff"/><use xlink:href="#O" stroke="#fff"/><use xlink:href="#P" stroke="#fff"/><use xlink:href="#Q" stroke="#fff"/><use xlink:href="#R" stroke="#fff"/></g><use xlink:href="#a" fill="#fff"/><use xlink:href="#b" fill="#010101"/><use xlink:href="#c" fill="#010101"/><use xlink:href="#d" fill="#fff"/><use xlink:href="#e" fill="#010101"/><use xlink:href="#f" fill="#010101"/><use xlink:href="#g" fill="#010101"/><use xlink:href="#h" fill="#010101"/><use xlink:href="#i" fill="#010101"/><use xlink:href="#j" fill="#010101"/><use xlink:href="#k" fill="#010101"/><use xlink:href="#l" fill="#010101"/><use xlink:href="#m" fill="#010101"/><use xlink:href="#n" fill="#010101"/><use xlink:href="#o" fill="#010101"/><use xlink:href="#p" fill="#fff"/><use xlink:href="#q" fill="#fff"/><use xlink:href="#r" fill="#010101"/><use xlink:href="#s" fill="#010101"/><use xlink:href="#t" fill="#010101"/><use xlink:href="#u" fill="#010101"/><use xlink:href="#v" fill="#010101"/><use xlink:href="#w" fill="#010101"/><use xlink:href="#x" fill="#010101"/><use xlink:href="#y" fill="#010101"/><use xlink:href="#z" fill="#010101"/><use xlink:href="#A" fill="#010101"/><use xlink:href="#B" fill="#010101"/><use xlink:href="#C" fill="#010101"/><use xlink:href="#D" fill="#010101"/><use xlink:href="#E" fill="#010101"/><use xlink:href="#F" fill="#010101"/><use xlink:href="#G" fill="#010101"/><use xlink:href="#H" fill="#010101"/><use xlink:href="#I" fill="#010101"/><use xlink:href="#J" fill="#010101"/><use xlink:href="#K" fill="#010101"/><use xlink:href="#L" fill="#010101"/><use xlink:href="#M" fill="#fff"/><use xlink:href="#N" fill="#fff"/><use xlink:href="#O" fill="#fff"/><use xlink:href="#P" fill="#fff"/><use xlink:href="#Q" fill="#fff"/><use xlink:href="#R" fill="#fff"/></svg>